SplineFontDB: 3.2
FontName: NotoSerif-Regular
FullName: Noto Serif Regular
FamilyName: Noto Serif
Weight: Regular
Copyright: Copyright 2015 Google LLC. All Rights Reserved.
Version: 2.004; modified by Merc
ItalicAngle: 0
UnderlinePosition: -125
UnderlineWidth: 50
Ascent: 800
Descent: 200
InvalidEm: 0
sfntRevision: 0x00020106
LayerCount: 2
Layer: 0 1 "+BBcEMAQ0BD0EOAQ5 +BD8EOwQwBD0A" 1
Layer: 1 1 "+BB8ENQRABDUENAQ9BDgEOQAA +BD8EOwQwBD0A" 0
XUID: [1021 59 1751208496 25981]
StyleMap: 0x0040
FSType: 0
OS2Version: 4
OS2_WeightWidthSlopeOnly: 1
OS2_UseTypoMetrics: 0
CreationTime: 1608594664
ModificationTime: 1632378673
PfmFamily: 17
TTFWeight: 400
TTFWidth: 5
LineGap: 0
VLineGap: 0
Panose: 2 2 5 2 6 5 5 2 2 4
OS2TypoAscent: 1069
OS2TypoAOffset: 0
OS2TypoDescent: -293
OS2TypoDOffset: 0
OS2TypoLinegap: 0
OS2WinAscent: 1069
OS2WinAOffset: 0
OS2WinDescent: 293
OS2WinDOffset: 0
HheadAscent: 1069
HheadAOffset: 0
HheadDescent: -293
HheadDOffset: 0
OS2SubXSize: 650
OS2SubYSize: 600
OS2SubXOff: 0
OS2SubYOff: 75
OS2SupXSize: 650
OS2SupYSize: 600
OS2SupXOff: 0
OS2SupYOff: 350
OS2StrikeYSize: 50
OS2StrikeYPos: 322
OS2CapHeight: 714
OS2XHeight: 536
OS2Vendor: 'GOOG'
OS2CodePages: 0000019f.00000000
OS2UnicodeRanges: e00002ff.4000201f.08000029.00100000
Lookup: 1 0 0 "'aalt' +BBIEQQQ1 +BDAEOwRMBEIENQRABD0EMARCBDgEMgQ9BEsENQAA +BDIEMARABDgEMAQ9BEIESwAA lookup 0" { "'aalt' +BBIEQQQ1 +BDAEOwRMBEIENQRABD0EMARCBDgEMgQ9BEsENQAA +BDIEMARABDgEMAQ9BEIESwAA lookup 0 subtable"  } ['aalt' ('DFLT' <'dflt' > 'cyrl' <'MKD ' 'SRB ' 'dflt' > 'grek' <'dflt' > 'latn' <'APPH' 'CAT ' 'IPPH' 'MAH ' 'MOL ' 'NAV ' 'ROM ' 'dflt' > ) ]
Lookup: 3 0 0 "'aalt' +BBIEQQQ1 +BDAEOwRMBEIENQRABD0EMARCBDgEMgQ9BEsENQAA +BDIEMARABDgEMAQ9BEIESwAA lookup 1" { "'aalt' +BBIEQQQ1 +BDAEOwRMBEIENQRABD0EMARCBDgEMgQ9BEsENQAA +BDIEMARABDgEMAQ9BEIESwAA lookup 1 subtable"  } ['aalt' ('DFLT' <'dflt' > 'cyrl' <'MKD ' 'SRB ' 'dflt' > 'grek' <'dflt' > 'latn' <'APPH' 'CAT ' 'IPPH' 'MAH ' 'MOL ' 'NAV ' 'ROM ' 'dflt' > ) ]

StartChar: .notdef
Encoding: 2840 -1 0
Width: 600
Flags: W
LayerCount: 2
Fore
SplineSet
94 0 m 1,0,-1
 94 714 l 1,1,-1
 505 714 l 1,2,-1
 505 0 l 1,3,-1
 94 0 l 1,0,-1
145 51 m 1,4,-1
 454 51 l 1,5,-1
 454 663 l 1,6,-1
 145 663 l 1,7,-1
 145 51 l 1,4,-1
EndSplineSet
EndChar

StartChar: exclam
Encoding: 3 33 4
Width: 332
Flags: W
LayerCount: 2
Fore
SplineSet
139 201 m 1,0,-1
 108 714 l 1,1,-1
 224 714 l 1,2,-1
 193 201 l 1,3,-1
 139 201 l 1,0,-1
166 -7 m 256,4,5
 140 -7 140 -7 121.5 8 c 128,-1,6
 103 23 103 23 103 61 c 0,7,8
 103 100 103 100 121.5 114.5 c 128,-1,9
 140 129 140 129 166 129 c 256,10,11
 192 129 192 129 210.5 114.5 c 128,-1,12
 229 100 229 100 229 61 c 0,13,14
 229 23 229 23 210.5 8 c 128,-1,15
 192 -7 192 -7 166 -7 c 256,4,5
EndSplineSet
Substitution2: "'smcp' Lowercase to Small Capitals lookup 37 subtable" exclam.sc
Substitution2: "'c2sc' +BBoEMAQ/BDgEQgQ1BDsETAAA +BDgENwAA +BD8EQAQ+BD8EOARBBD0ESwRF lookup 36 subtable" exclam.sc
Substitution2: "'aalt' +BBIEQQQ1 +BDAEOwRMBEIENQRABD0EMARCBDgEMgQ9BEsENQAA +BDIEMARABDgEMAQ9BEIESwAA lookup 0 subtable" exclam.sc
EndChar

StartChar: quotedbl
Encoding: 4 34 5
Width: 408
Flags: W
LayerCount: 2
Fore
SplineSet
275 479 m 1,0,-1
 245 714 l 1,1,-1
 351 714 l 1,2,-1
 321 479 l 1,3,-1
 275 479 l 1,0,-1
87 479 m 1,4,-1
 57 714 l 1,5,-1
 163 714 l 1,6,-1
 133 479 l 1,7,-1
 87 479 l 1,4,-1
EndSplineSet
EndChar

StartChar: numbersign
Encoding: 5 35 6
Width: 559
Flags: W
LayerCount: 2
Fore
SplineSet
79 0 m 1,0,-1
 117 203 l 1,1,-1
 25 203 l 1,2,-1
 25 262 l 1,3,-1
 128 262 l 1,4,-1
 166 458 l 1,5,-1
 57 458 l 1,6,-1
 57 517 l 1,7,-1
 177 517 l 1,8,-1
 213 714 l 1,9,-1
 274 714 l 1,10,-1
 237 517 l 1,11,-1
 376 517 l 1,12,-1
 413 714 l 1,13,-1
 473 714 l 1,14,-1
 436 517 l 1,15,-1
 534 517 l 1,16,-1
 534 458 l 1,17,-1
 425 458 l 1,18,-1
 388 262 l 1,19,-1
 502 262 l 1,20,-1
 502 203 l 1,21,-1
 376 203 l 1,22,-1
 338 0 l 1,23,-1
 278 0 l 1,24,-1
 316 203 l 1,25,-1
 177 203 l 1,26,-1
 139 0 l 1,27,-1
 79 0 l 1,0,-1
189 262 m 1,28,-1
 328 262 l 1,29,-1
 365 458 l 1,30,-1
 226 458 l 1,31,-1
 189 262 l 1,28,-1
EndSplineSet
EndChar

StartChar: dollar
Encoding: 6 36 7
Width: 559
Flags: W
LayerCount: 2
Fore
SplineSet
253 40 m 1,0,1
 159 40 159 40 107.5 76.5 c 128,-1,2
 56 113 56 113 56 176 c 0,3,4
 56 206 56 206 75 224.5 c 128,-1,5
 94 243 94 243 128 243 c 1,6,7
 135 202 135 202 147.5 165.5 c 128,-1,8
 160 129 160 129 185 106.5 c 128,-1,9
 210 84 210 84 253 84 c 1,10,-1
 253 331 l 1,11,12
 191 359 191 359 153.5 386.5 c 128,-1,13
 116 414 116 414 99.5 447 c 128,-1,14
 83 480 83 480 83 524 c 0,15,16
 83 592 83 592 129 633 c 128,-1,17
 175 674 175 674 253 682 c 1,18,-1
 253 760 l 1,19,-1
 303 760 l 1,20,-1
 303 684 l 1,21,22
 393 682 393 682 431 650.5 c 128,-1,23
 469 619 469 619 469 572 c 0,24,25
 469 540 469 540 447.5 523.5 c 128,-1,26
 426 507 426 507 390 507 c 1,27,28
 390 536 390 536 383 565 c 128,-1,29
 376 594 376 594 357.5 614.5 c 128,-1,30
 339 635 339 635 303 638 c 1,31,-1
 303 405 l 1,32,33
 363 379 363 379 404.5 352 c 128,-1,34
 446 325 446 325 467.5 291.5 c 128,-1,35
 489 258 489 258 489 210 c 0,36,37
 489 135 489 135 440.5 93 c 128,-1,38
 392 51 392 51 303 42 c 1,39,-1
 303 -79 l 1,40,-1
 253 -79 l 1,41,-1
 253 40 l 1,0,1
253 636 m 1,42,43
 213 628 213 628 193 599.5 c 128,-1,44
 173 571 173 571 173 532 c 0,45,46
 173 490 173 490 193.5 467 c 128,-1,47
 214 444 214 444 253 427 c 1,48,-1
 253 636 l 1,42,43
303 87 m 1,49,50
 348 95 348 95 372.5 123.5 c 128,-1,51
 397 152 397 152 397 195 c 0,52,53
 397 235 397 235 376 260.5 c 128,-1,54
 355 286 355 286 303 309 c 1,55,-1
 303 87 l 1,49,50
EndSplineSet
EndChar

StartChar: percent
Encoding: 7 37 8
Width: 896
Flags: W
LayerCount: 2
Fore
SplineSet
209 280 m 0,0,1
 123 280 123 280 84 341.5 c 128,-1,2
 45 403 45 403 45 503 c 0,3,4
 45 604 45 604 84 664 c 128,-1,5
 123 724 123 724 210 724 c 0,6,7
 292 724 292 724 332.5 664 c 128,-1,8
 373 604 373 604 373 503 c 0,9,10
 373 403 373 403 332.5 341.5 c 128,-1,11
 292 280 292 280 209 280 c 0,0,1
235 0 m 1,12,-1
 592 714 l 1,13,-1
 657 714 l 1,14,-1
 301 0 l 1,15,-1
 235 0 l 1,12,-1
209 321 m 0,16,17
 250 321 250 321 266 369 c 128,-1,18
 282 417 282 417 282 503 c 0,19,20
 282 588 282 588 266.5 635 c 128,-1,21
 251 682 251 682 210 682 c 256,22,23
 169 682 169 682 152 635 c 128,-1,24
 135 588 135 588 135 503 c 0,25,26
 135 417 135 417 152 369 c 128,-1,27
 169 321 169 321 209 321 c 0,16,17
687 -10 m 0,28,29
 601 -10 601 -10 562 51.5 c 128,-1,30
 523 113 523 113 523 213 c 0,31,32
 523 314 523 314 562 374 c 128,-1,33
 601 434 601 434 688 434 c 0,34,35
 770 434 770 434 810.5 374 c 128,-1,36
 851 314 851 314 851 213 c 0,37,38
 851 113 851 113 810.5 51.5 c 128,-1,39
 770 -10 770 -10 687 -10 c 0,28,29
687 31 m 0,40,41
 728 31 728 31 744 79 c 128,-1,42
 760 127 760 127 760 213 c 0,43,44
 760 298 760 298 744.5 345 c 128,-1,45
 729 392 729 392 688 392 c 256,46,47
 647 392 647 392 630 345 c 128,-1,48
 613 298 613 298 613 213 c 0,49,50
 613 127 613 127 630 79 c 128,-1,51
 647 31 647 31 687 31 c 0,40,41
EndSplineSet
EndChar

StartChar: ampersand
Encoding: 8 38 9
Width: 742
Flags: W
LayerCount: 2
Fore
SplineSet
274 -10 m 0,0,1
 154 -10 154 -10 95 48 c 128,-1,2
 36 106 36 106 36 200 c 0,3,4
 36 257 36 257 56 295 c 128,-1,5
 76 333 76 333 112 359 c 128,-1,6
 148 385 148 385 196 405 c 1,7,8
 158 450 158 450 138.5 489 c 128,-1,9
 119 528 119 528 119 577 c 0,10,11
 119 643 119 643 163.5 683.5 c 128,-1,12
 208 724 208 724 308 724 c 0,13,14
 372 724 372 724 411 704.5 c 128,-1,15
 450 685 450 685 467.5 653 c 128,-1,16
 485 621 485 621 485 582 c 0,17,18
 485 539 485 539 468 508 c 128,-1,19
 451 477 451 477 414 452 c 128,-1,20
 377 427 377 427 316 401 c 1,21,-1
 498 208 l 1,22,23
 512 253 512 253 516.5 299 c 128,-1,24
 521 345 521 345 521 382 c 2,25,-1
 521 421 l 1,26,-1
 701 421 l 1,27,-1
 701 379 l 1,28,-1
 692 379 l 2,29,30
 658 379 658 379 629 368 c 128,-1,31
 600 357 600 357 587 311 c 0,32,33
 578 279 578 279 566.5 241.5 c 128,-1,34
 555 204 555 204 538 166 c 1,35,-1
 631 67 l 2,36,37
 645 52 645 52 664.5 47 c 128,-1,38
 684 42 684 42 724 42 c 2,39,-1
 733 42 l 1,40,-1
 733 0 l 1,41,-1
 573 0 l 1,42,-1
 490 88 l 1,43,44
 454 47 454 47 402.5 18.5 c 128,-1,45
 351 -10 351 -10 274 -10 c 0,0,1
282 439 m 1,46,47
 341 465 341 465 369 497 c 128,-1,48
 397 529 397 529 397 581 c 0,49,50
 397 621 397 621 376 648 c 128,-1,51
 355 675 355 675 304 675 c 0,52,53
 260 675 260 675 236 649 c 128,-1,54
 212 623 212 623 212 580 c 0,55,56
 212 542 212 542 228.5 511.5 c 128,-1,57
 245 481 245 481 282 439 c 1,46,47
283 46 m 0,58,59
 342 46 342 46 384 69 c 128,-1,60
 426 92 426 92 454 127 c 1,61,-1
 233 364 l 1,62,63
 187 339 187 339 160.5 300.5 c 128,-1,64
 134 262 134 262 134 197 c 0,65,66
 134 124 134 124 175 85 c 128,-1,67
 216 46 216 46 283 46 c 0,58,59
EndSplineSet
Substitution2: "'smcp' Lowercase to Small Capitals lookup 37 subtable" ampersand.sc
Substitution2: "'c2sc' +BBoEMAQ/BDgEQgQ1BDsETAAA +BDgENwAA +BD8EQAQ+BD8EOARBBD0ESwRF lookup 36 subtable" ampersand.sc
Substitution2: "'aalt' +BBIEQQQ1 +BDAEOwRMBEIENQRABD0EMARCBDgEMgQ9BEsENQAA +BDIEMARABDgEMAQ9BEIESwAA lookup 0 subtable" ampersand.sc
EndChar

StartChar: quotesingle
Encoding: 9 39 10
Width: 220
Flags: W
LayerCount: 2
Fore
SplineSet
87 479 m 1,0,-1
 57 714 l 1,1,-1
 163 714 l 1,2,-1
 133 479 l 1,3,-1
 87 479 l 1,0,-1
EndSplineSet
EndChar

StartChar: parenleft
Encoding: 10 40 11
Width: 346
Flags: W
LayerCount: 2
Fore
SplineSet
314 -128 m 1,0,1
 222 -91 222 -91 165.5 -33.5 c 128,-1,2
 109 24 109 24 83 110.5 c 128,-1,3
 57 197 57 197 57 317 c 256,4,5
 57 437 57 437 83 522.5 c 128,-1,6
 109 608 109 608 165.5 666 c 128,-1,7
 222 724 222 724 314 760 c 1,8,-1
 314 715 l 1,9,10
 245 674 245 674 212.5 611 c 128,-1,11
 180 548 180 548 170.5 472.5 c 128,-1,12
 161 397 161 397 161 317 c 0,13,14
 161 238 161 238 170.5 162 c 128,-1,15
 180 86 180 86 212.5 23 c 128,-1,16
 245 -40 245 -40 314 -82 c 1,17,-1
 314 -128 l 1,0,1
EndSplineSet
Substitution2: "'smcp' Lowercase to Small Capitals lookup 37 subtable" parenleft.sc
Substitution2: "'c2sc' +BBoEMAQ/BDgEQgQ1BDsETAAA +BDgENwAA +BD8EQAQ+BD8EOARBBD0ESwRF lookup 36 subtable" parenleft.sc
Substitution2: "'sups' +BBIENQRABEUEPQQ4BDkA +BDgEPQQ0BDUEOgRB lookup 21 subtable" uni207D
Substitution2: "'subs' +BB0EOAQ2BD0EOAQ5 +BDgEPQQ0BDUEOgRB lookup 20 subtable" uni208D
AlternateSubs2: "'aalt' +BBIEQQQ1 +BDAEOwRMBEIENQRABD0EMARCBDgEMgQ9BEsENQAA +BDIEMARABDgEMAQ9BEIESwAA lookup 1 subtable" uni208D uni207D parenleft.sc
EndChar

StartChar: parenright
Encoding: 11 41 12
Width: 346
Flags: W
LayerCount: 2
Fore
SplineSet
32 -82 m 1,0,1
 101 -40 101 -40 133.5 23 c 128,-1,2
 166 86 166 86 175.5 162 c 128,-1,3
 185 238 185 238 185 317 c 0,4,5
 185 397 185 397 175.5 472.5 c 128,-1,6
 166 548 166 548 133.5 611 c 128,-1,7
 101 674 101 674 32 715 c 1,8,-1
 32 760 l 1,9,10
 124 724 124 724 180.5 666 c 128,-1,11
 237 608 237 608 263 522.5 c 128,-1,12
 289 437 289 437 289 317 c 256,13,14
 289 197 289 197 263 110.5 c 128,-1,15
 237 24 237 24 180.5 -33.5 c 128,-1,16
 124 -91 124 -91 32 -128 c 1,17,-1
 32 -82 l 1,0,1
EndSplineSet
Substitution2: "'smcp' Lowercase to Small Capitals lookup 37 subtable" parenright.sc
Substitution2: "'c2sc' +BBoEMAQ/BDgEQgQ1BDsETAAA +BDgENwAA +BD8EQAQ+BD8EOARBBD0ESwRF lookup 36 subtable" parenright.sc
Substitution2: "'sups' +BBIENQRABEUEPQQ4BDkA +BDgEPQQ0BDUEOgRB lookup 21 subtable" uni207E
Substitution2: "'subs' +BB0EOAQ2BD0EOAQ5 +BDgEPQQ0BDUEOgRB lookup 20 subtable" uni208E
AlternateSubs2: "'aalt' +BBIEQQQ1 +BDAEOwRMBEIENQRABD0EMARCBDgEMgQ9BEsENQAA +BDIEMARABDgEMAQ9BEIESwAA lookup 1 subtable" uni208E uni207E parenright.sc
EndChar

StartChar: asterisk
Encoding: 12 42 13
Width: 500
Flags: W
LayerCount: 2
Fore
SplineSet
204 378 m 1,0,-1
 229 536 l 1,1,-1
 76 441 l 1,2,-1
 41 519 l 1,3,-1
 209 569 l 1,4,-1
 41 619 l 1,5,-1
 76 698 l 1,6,-1
 230 601 l 1,7,-1
 204 760 l 1,8,-1
 291 760 l 1,9,-1
 263 602 l 1,10,-1
 418 696 l 1,11,-1
 453 618 l 1,12,-1
 284 569 l 1,13,-1
 453 520 l 1,14,-1
 418 443 l 1,15,-1
 263 536 l 1,16,-1
 291 378 l 1,17,-1
 204 378 l 1,0,-1
EndSplineSet
EndChar

StartChar: plus
Encoding: 13 43 14
Width: 559
Flags: W
LayerCount: 2
Fore
SplineSet
249 143 m 1,0,-1
 249 328 l 1,1,-1
 65 328 l 1,2,-1
 65 387 l 1,3,-1
 249 387 l 1,4,-1
 249 572 l 1,5,-1
 309 572 l 1,6,-1
 309 387 l 1,7,-1
 494 387 l 1,8,-1
 494 328 l 1,9,-1
 309 328 l 1,10,-1
 309 143 l 1,11,-1
 249 143 l 1,0,-1
EndSplineSet
Substitution2: "'sups' +BBIENQRABEUEPQQ4BDkA +BDgEPQQ0BDUEOgRB lookup 21 subtable" uni207A
Substitution2: "'subs' +BB0EOAQ2BD0EOAQ5 +BDgEPQQ0BDUEOgRB lookup 20 subtable" uni208A
AlternateSubs2: "'aalt' +BBIEQQQ1 +BDAEOwRMBEIENQRABD0EMARCBDgEMgQ9BEsENQAA +BDIEMARABDgEMAQ9BEIESwAA lookup 1 subtable" uni208A uni207A
EndChar

StartChar: comma
Encoding: 14 44 15
Width: 250
Flags: W
LayerCount: 2
Fore
SplineSet
30 -112 m 1,0,1
 125 -81 125 -81 125 -22 c 0,2,3
 125 -7 125 -7 114 1 c 128,-1,4
 103 9 103 9 88.5 16 c 128,-1,5
 74 23 74 23 63 35 c 128,-1,6
 52 47 52 47 52 70 c 0,7,8
 52 99 52 99 70.5 114 c 128,-1,9
 89 129 89 129 117 129 c 0,10,11
 148 129 148 129 171 106.5 c 128,-1,12
 194 84 194 84 194 42 c 0,13,14
 194 -22 194 -22 156.5 -75 c 128,-1,15
 119 -128 119 -128 30 -154 c 1,16,-1
 30 -112 l 1,0,1
EndSplineSet
EndChar

StartChar: hyphen
Encoding: 15 45 16
Width: 310
Flags: W
LayerCount: 2
Fore
SplineSet
25 235 m 1,0,-1
 25 310 l 1,1,-1
 285 310 l 1,2,-1
 285 235 l 1,3,-1
 25 235 l 1,0,-1
EndSplineSet
EndChar

StartChar: period
Encoding: 16 46 17
Width: 250
Flags: W
LayerCount: 2
Fore
SplineSet
125 -7 m 256,0,1
 99 -7 99 -7 80.5 8 c 128,-1,2
 62 23 62 23 62 61 c 0,3,4
 62 100 62 100 80.5 114.5 c 128,-1,5
 99 129 99 129 125 129 c 256,6,7
 151 129 151 129 169.5 114.5 c 128,-1,8
 188 100 188 100 188 61 c 0,9,10
 188 23 188 23 169.5 8 c 128,-1,11
 151 -7 151 -7 125 -7 c 256,0,1
EndSplineSet
EndChar

StartChar: slash
Encoding: 17 47 18
Width: 288
Flags: W
LayerCount: 2
Fore
SplineSet
0 -121 m 1,0,-1
 230 760 l 1,1,-1
 288 760 l 1,2,-1
 59 -121 l 1,3,-1
 0 -121 l 1,0,-1
EndSplineSet
Substitution2: "'frac' Diagonal Fractions lookup 25 subtable" fraction
Substitution2: "'aalt' +BBIEQQQ1 +BDAEOwRMBEIENQRABD0EMARCBDgEMgQ9BEsENQAA +BDIEMARABDgEMAQ9BEIESwAA lookup 0 subtable" fraction
EndChar

StartChar: zero
Encoding: 18 48 19
Width: 559
Flags: W
LayerCount: 2
Fore
SplineSet
280 -10 m 0,0,1
 198 -10 198 -10 146 36 c 128,-1,2
 94 82 94 82 69.5 165 c 128,-1,3
 45 248 45 248 45 359 c 256,4,5
 45 470 45 470 69.5 552 c 128,-1,6
 94 634 94 634 146 679 c 128,-1,7
 198 724 198 724 281 724 c 0,8,9
 359 724 359 724 411 679 c 128,-1,10
 463 634 463 634 488.5 551.5 c 128,-1,11
 514 469 514 469 514 358 c 256,12,13
 514 247 514 247 488 164.5 c 128,-1,14
 462 82 462 82 410.5 36 c 128,-1,15
 359 -10 359 -10 280 -10 c 0,0,1
280 44 m 256,16,17
 353 44 353 44 381.5 127 c 128,-1,18
 410 210 410 210 410 358 c 0,19,20
 410 507 410 507 381.5 588.5 c 128,-1,21
 353 670 353 670 281 670 c 0,22,23
 208 670 208 670 178.5 588.5 c 128,-1,24
 149 507 149 507 149 358 c 0,25,26
 149 210 149 210 178 127 c 128,-1,27
 207 44 207 44 280 44 c 256,16,17
EndSplineSet
Substitution2: "'zero' Slashed Zero lookup 41 subtable" zero.slash
Substitution2: "'case' +BCAENQQzBDgEQQRCBEAEPgQ3BDAEMgQ4BEEEOAQ8BEsENQAA +BEQEPgRABDwESwAA lookup 38 subtable" zero.lf
Substitution2: "'onum' Oldstyle Figures lookup 35 subtable" zero.tosf
Substitution2: "'pnum' Proportional Numbers lookup 33 subtable" zero.lf
Substitution2: "'frac' Diagonal Fractions lookup 26 subtable" zero.numr
Substitution2: "'dnom' Denominators lookup 24 subtable" zero.dnom
Substitution2: "'numr' Numerators lookup 23 subtable" zero.numr
Substitution2: "'sups' +BBIENQRABEUEPQQ4BDkA +BDgEPQQ0BDUEOgRB lookup 21 subtable" uni2070
Substitution2: "'subs' +BB0EOAQ2BD0EOAQ5 +BDgEPQQ0BDUEOgRB lookup 20 subtable" uni2080
AlternateSubs2: "'aalt' +BBIEQQQ1 +BDAEOwRMBEIENQRABD0EMARCBDgEMgQ9BEsENQAA +BDIEMARABDgEMAQ9BEIESwAA lookup 1 subtable" uni2070 zero.lf zero.tosf zero.dnom zero.numr uni2080
EndChar

StartChar: one
Encoding: 19 49 20
Width: 559
Flags: W
LayerCount: 2
Fore
SplineSet
96 0 m 1,0,-1
 96 42 l 1,1,-1
 163 42 l 2,2,3
 197 42 197 42 221 54.5 c 128,-1,4
 245 67 245 67 245 114 c 2,5,-1
 245 639 l 1,6,7
 207 593 207 593 176.5 564 c 128,-1,8
 146 535 146 535 116 535 c 0,9,10
 94 535 94 535 80 550 c 128,-1,11
 66 565 66 565 66 589 c 1,12,13
 96 597 96 597 129.5 613 c 128,-1,14
 163 629 163 629 212 666 c 2,15,-1
 282 718 l 1,16,-1
 346 718 l 1,17,-1
 346 114 l 2,18,19
 346 67 346 67 370 54.5 c 128,-1,20
 394 42 394 42 428 42 c 2,21,-1
 477 42 l 1,22,-1
 477 0 l 1,23,-1
 96 0 l 1,0,-1
EndSplineSet
Substitution2: "'case' +BCAENQQzBDgEQQRCBEAEPgQ3BDAEMgQ4BEEEOAQ8BEsENQAA +BEQEPgRABDwESwAA lookup 38 subtable" one.lf
Substitution2: "'onum' Oldstyle Figures lookup 35 subtable" one.tosf
Substitution2: "'pnum' Proportional Numbers lookup 33 subtable" one.lf
Substitution2: "'frac' Diagonal Fractions lookup 26 subtable" one.numr
Substitution2: "'dnom' Denominators lookup 24 subtable" one.dnom
Substitution2: "'numr' Numerators lookup 23 subtable" one.numr
Substitution2: "'sups' +BBIENQRABEUEPQQ4BDkA +BDgEPQQ0BDUEOgRB lookup 21 subtable" uni00B9
Substitution2: "'subs' +BB0EOAQ2BD0EOAQ5 +BDgEPQQ0BDUEOgRB lookup 20 subtable" uni2081
AlternateSubs2: "'aalt' +BBIEQQQ1 +BDAEOwRMBEIENQRABD0EMARCBDgEMgQ9BEsENQAA +BDIEMARABDgEMAQ9BEIESwAA lookup 1 subtable" uni00B9 one.lf one.tosf one.dnom one.numr uni2081
EndChar

StartChar: two
Encoding: 20 50 21
Width: 559
Flags: W
LayerCount: 2
Fore
SplineSet
61 0 m 1,0,-1
 61 73 l 1,1,-1
 228 266 l 2,2,3
 281 328 281 328 312 373.5 c 128,-1,4
 343 419 343 419 356.5 460 c 128,-1,5
 370 501 370 501 370 547 c 0,6,7
 370 604 370 604 345.5 639 c 128,-1,8
 321 674 321 674 268 674 c 0,9,10
 223 674 223 674 199 653 c 128,-1,11
 175 632 175 632 166.5 598.5 c 128,-1,12
 158 565 158 565 158 525 c 1,13,14
 122 525 122 525 97 538.5 c 128,-1,15
 72 552 72 552 72 590 c 0,16,17
 72 648 72 648 121.5 686 c 128,-1,18
 171 724 171 724 268 724 c 0,19,20
 363 724 363 724 417 678.5 c 128,-1,21
 471 633 471 633 471 557 c 0,22,23
 471 487 471 487 427 420.5 c 128,-1,24
 383 354 383 354 304 267 c 2,25,-1
 135 80 l 1,26,-1
 366 80 l 2,27,28
 411 80 411 80 427 103 c 128,-1,29
 443 126 443 126 450 155 c 2,30,-1
 454 173 l 1,31,-1
 496 173 l 1,32,-1
 491 0 l 1,33,-1
 61 0 l 1,0,-1
EndSplineSet
Substitution2: "'case' +BCAENQQzBDgEQQRCBEAEPgQ3BDAEMgQ4BEEEOAQ8BEsENQAA +BEQEPgRABDwESwAA lookup 38 subtable" two.lf
Substitution2: "'onum' Oldstyle Figures lookup 35 subtable" two.tosf
Substitution2: "'pnum' Proportional Numbers lookup 33 subtable" two.lf
Substitution2: "'frac' Diagonal Fractions lookup 26 subtable" two.numr
Substitution2: "'dnom' Denominators lookup 24 subtable" two.dnom
Substitution2: "'numr' Numerators lookup 23 subtable" two.numr
Substitution2: "'sups' +BBIENQRABEUEPQQ4BDkA +BDgEPQQ0BDUEOgRB lookup 21 subtable" uni00B2
Substitution2: "'subs' +BB0EOAQ2BD0EOAQ5 +BDgEPQQ0BDUEOgRB lookup 20 subtable" uni2082
AlternateSubs2: "'aalt' +BBIEQQQ1 +BDAEOwRMBEIENQRABD0EMARCBDgEMgQ9BEsENQAA +BDIEMARABDgEMAQ9BEIESwAA lookup 1 subtable" uni00B2 two.lf two.tosf two.dnom two.numr uni2082
EndChar

StartChar: three
Encoding: 21 51 22
Width: 559
Flags: W
LayerCount: 2
Fore
SplineSet
247 -10 m 0,0,1
 148 -10 148 -10 103 23.5 c 128,-1,2
 58 57 58 57 58 101 c 0,3,4
 58 131 58 131 75.5 148 c 128,-1,5
 93 165 93 165 121 165 c 1,6,7
 121 113 121 113 154 78.5 c 128,-1,8
 187 44 187 44 248 44 c 0,9,10
 288 44 288 44 321.5 59.5 c 128,-1,11
 355 75 355 75 376 110 c 128,-1,12
 397 145 397 145 397 205 c 0,13,14
 397 268 397 268 348.5 306 c 128,-1,15
 300 344 300 344 216 344 c 2,16,-1
 184 344 l 1,17,-1
 184 395 l 1,18,-1
 216 395 l 2,19,20
 260 395 260 395 295.5 414 c 128,-1,21
 331 433 331 433 352 468 c 128,-1,22
 373 503 373 503 373 550 c 0,23,24
 373 609 373 609 348.5 641.5 c 128,-1,25
 324 674 324 674 266 674 c 0,26,27
 221 674 221 674 197 653 c 128,-1,28
 173 632 173 632 164.5 598.5 c 128,-1,29
 156 565 156 565 156 525 c 1,30,31
 120 525 120 525 95 538.5 c 128,-1,32
 70 552 70 552 70 590 c 0,33,34
 70 648 70 648 119.5 686 c 128,-1,35
 169 724 169 724 266 724 c 0,36,37
 361 724 361 724 418.5 682.5 c 128,-1,38
 476 641 476 641 476 565 c 0,39,40
 476 520 476 520 455 482.5 c 128,-1,41
 434 445 434 445 398 418.5 c 128,-1,42
 362 392 362 392 316 381 c 1,43,44
 344 378 344 378 376 368.5 c 128,-1,45
 408 359 408 359 436.5 339 c 128,-1,46
 465 319 465 319 483 286.5 c 128,-1,47
 501 254 501 254 501 204 c 0,48,49
 501 144 501 144 478 102.5 c 128,-1,50
 455 61 455 61 417 36.5 c 128,-1,51
 379 12 379 12 334.5 1 c 128,-1,52
 290 -10 290 -10 247 -10 c 0,0,1
EndSplineSet
Substitution2: "'case' +BCAENQQzBDgEQQRCBEAEPgQ3BDAEMgQ4BEEEOAQ8BEsENQAA +BEQEPgRABDwESwAA lookup 38 subtable" three.lf
Substitution2: "'onum' Oldstyle Figures lookup 35 subtable" three.tosf
Substitution2: "'pnum' Proportional Numbers lookup 33 subtable" three.lf
Substitution2: "'frac' Diagonal Fractions lookup 26 subtable" three.numr
Substitution2: "'dnom' Denominators lookup 24 subtable" three.dnom
Substitution2: "'numr' Numerators lookup 23 subtable" three.numr
Substitution2: "'sups' +BBIENQRABEUEPQQ4BDkA +BDgEPQQ0BDUEOgRB lookup 21 subtable" uni00B3
Substitution2: "'subs' +BB0EOAQ2BD0EOAQ5 +BDgEPQQ0BDUEOgRB lookup 20 subtable" uni2083
AlternateSubs2: "'aalt' +BBIEQQQ1 +BDAEOwRMBEIENQRABD0EMARCBDgEMgQ9BEsENQAA +BDIEMARABDgEMAQ9BEIESwAA lookup 1 subtable" uni00B3 three.lf three.tosf three.dnom three.numr uni2083
EndChar

StartChar: four
Encoding: 22 52 23
Width: 559
Flags: W
LayerCount: 2
Fore
SplineSet
215 0 m 1,0,-1
 215 42 l 1,1,-1
 243 42 l 2,2,3
 277 42 277 42 301 54.5 c 128,-1,4
 325 67 325 67 325 114 c 2,5,-1
 325 196 l 1,6,-1
 17 196 l 1,7,-1
 17 237 l 1,8,-1
 326 714 l 1,9,-1
 421 714 l 1,10,-1
 421 252 l 1,11,-1
 545 252 l 1,12,-1
 545 196 l 1,13,-1
 421 196 l 1,14,-1
 421 114 l 2,15,16
 421 67 421 67 445 54.5 c 128,-1,17
 469 42 469 42 503 42 c 2,18,-1
 516 42 l 1,19,-1
 516 0 l 1,20,-1
 215 0 l 1,0,-1
89 252 m 1,21,-1
 325 252 l 1,22,-1
 325 437 l 2,23,24
 325 466 325 466 325.5 502.5 c 128,-1,25
 326 539 326 539 328 576 c 128,-1,26
 330 613 330 613 332 644 c 1,27,28
 327 634 327 634 316 614 c 128,-1,29
 305 594 305 594 291 570.5 c 128,-1,30
 277 547 277 547 264 525.5 c 128,-1,31
 251 504 251 504 242 490 c 2,32,-1
 89 252 l 1,21,-1
EndSplineSet
Substitution2: "'case' +BCAENQQzBDgEQQRCBEAEPgQ3BDAEMgQ4BEEEOAQ8BEsENQAA +BEQEPgRABDwESwAA lookup 38 subtable" four.lf
Substitution2: "'onum' Oldstyle Figures lookup 35 subtable" four.tosf
Substitution2: "'pnum' Proportional Numbers lookup 33 subtable" four.lf
Substitution2: "'frac' Diagonal Fractions lookup 26 subtable" four.numr
Substitution2: "'dnom' Denominators lookup 24 subtable" four.dnom
Substitution2: "'numr' Numerators lookup 23 subtable" four.numr
Substitution2: "'sups' +BBIENQRABEUEPQQ4BDkA +BDgEPQQ0BDUEOgRB lookup 21 subtable" uni2074
Substitution2: "'subs' +BB0EOAQ2BD0EOAQ5 +BDgEPQQ0BDUEOgRB lookup 20 subtable" uni2084
AlternateSubs2: "'aalt' +BBIEQQQ1 +BDAEOwRMBEIENQRABD0EMARCBDgEMgQ9BEsENQAA +BDIEMARABDgEMAQ9BEIESwAA lookup 1 subtable" uni2074 four.lf four.tosf four.dnom four.numr uni2084
EndChar

StartChar: five
Encoding: 23 53 24
Width: 559
Flags: W
LayerCount: 2
Fore
SplineSet
244 -10 m 0,0,1
 170 -10 170 -10 129 6 c 128,-1,2
 88 22 88 22 71.5 45.5 c 128,-1,3
 55 69 55 69 55 91 c 0,4,5
 55 119 55 119 70.5 134.5 c 128,-1,6
 86 150 86 150 118 150 c 1,7,8
 118 107 118 107 148 78 c 128,-1,9
 178 49 178 49 239 49 c 0,10,11
 280 49 280 49 312.5 65 c 128,-1,12
 345 81 345 81 363.5 118 c 128,-1,13
 382 155 382 155 382 218 c 0,14,15
 382 297 382 297 340.5 335.5 c 128,-1,16
 299 374 299 374 230 374 c 0,17,18
 178 374 178 374 152 367 c 128,-1,19
 126 360 126 360 107 352 c 1,20,-1
 83 359 l 1,21,-1
 115 714 l 1,22,-1
 449 714 l 1,23,-1
 454 563 l 1,24,-1
 412 563 l 1,25,-1
 408 593 l 2,26,27
 405 614 405 614 395.5 624 c 128,-1,28
 386 634 386 634 354 634 c 2,29,-1
 160 634 l 1,30,-1
 141 413 l 1,31,32
 156 418 156 418 185 423.5 c 128,-1,33
 214 429 214 429 258 429 c 0,34,35
 323 429 323 429 374.5 405.5 c 128,-1,36
 426 382 426 382 456 335.5 c 128,-1,37
 486 289 486 289 486 218 c 0,38,39
 486 150 486 150 457.5 98.5 c 128,-1,40
 429 47 429 47 375 18.5 c 128,-1,41
 321 -10 321 -10 244 -10 c 0,0,1
EndSplineSet
Substitution2: "'case' +BCAENQQzBDgEQQRCBEAEPgQ3BDAEMgQ4BEEEOAQ8BEsENQAA +BEQEPgRABDwESwAA lookup 38 subtable" five.lf
Substitution2: "'onum' Oldstyle Figures lookup 35 subtable" five.tosf
Substitution2: "'pnum' Proportional Numbers lookup 33 subtable" five.lf
Substitution2: "'frac' Diagonal Fractions lookup 26 subtable" five.numr
Substitution2: "'dnom' Denominators lookup 24 subtable" five.dnom
Substitution2: "'numr' Numerators lookup 23 subtable" five.numr
Substitution2: "'sups' +BBIENQRABEUEPQQ4BDkA +BDgEPQQ0BDUEOgRB lookup 21 subtable" uni2075
Substitution2: "'subs' +BB0EOAQ2BD0EOAQ5 +BDgEPQQ0BDUEOgRB lookup 20 subtable" uni2085
AlternateSubs2: "'aalt' +BBIEQQQ1 +BDAEOwRMBEIENQRABD0EMARCBDgEMgQ9BEsENQAA +BDIEMARABDgEMAQ9BEIESwAA lookup 1 subtable" uni2075 five.lf five.tosf five.dnom five.numr uni2085
EndChar

StartChar: six
Encoding: 24 54 25
Width: 559
Flags: W
LayerCount: 2
Fore
SplineSet
293 -10 m 0,0,1
 227 -10 227 -10 174.5 27.5 c 128,-1,2
 122 65 122 65 91.5 146.5 c 128,-1,3
 61 228 61 228 61 360 c 0,4,5
 61 431 61 431 77 496.5 c 128,-1,6
 93 562 93 562 125 613.5 c 128,-1,7
 157 665 157 665 206.5 694.5 c 128,-1,8
 256 724 256 724 322 724 c 0,9,10
 405 724 405 724 446 692 c 128,-1,11
 487 660 487 660 487 619 c 0,12,13
 487 559 487 559 410 559 c 1,14,15
 410 608 410 608 390 642 c 128,-1,16
 370 676 370 676 322 676 c 0,17,18
 247 676 247 676 208 601.5 c 128,-1,19
 169 527 169 527 164 382 c 1,20,21
 189 402 189 402 223.5 418 c 128,-1,22
 258 434 258 434 307 434 c 0,23,24
 399 434 399 434 453.5 379.5 c 128,-1,25
 508 325 508 325 508 229 c 0,26,27
 508 159 508 159 482.5 105 c 128,-1,28
 457 51 457 51 409 20.5 c 128,-1,29
 361 -10 361 -10 293 -10 c 0,0,1
296 45 m 0,30,31
 349 45 349 45 377.5 86.5 c 128,-1,32
 406 128 406 128 406 219 c 0,33,34
 406 305 406 305 375.5 344 c 128,-1,35
 345 383 345 383 287 383 c 0,36,37
 248 383 248 383 215.5 364.5 c 128,-1,38
 183 346 183 346 163 325 c 1,39,40
 165 175 165 175 200.5 110 c 128,-1,41
 236 45 236 45 296 45 c 0,30,31
EndSplineSet
Substitution2: "'case' +BCAENQQzBDgEQQRCBEAEPgQ3BDAEMgQ4BEEEOAQ8BEsENQAA +BEQEPgRABDwESwAA lookup 38 subtable" six.lf
Substitution2: "'onum' Oldstyle Figures lookup 35 subtable" six.tosf
Substitution2: "'pnum' Proportional Numbers lookup 33 subtable" six.lf
Substitution2: "'frac' Diagonal Fractions lookup 26 subtable" six.numr
Substitution2: "'dnom' Denominators lookup 24 subtable" six.dnom
Substitution2: "'numr' Numerators lookup 23 subtable" six.numr
Substitution2: "'sups' +BBIENQRABEUEPQQ4BDkA +BDgEPQQ0BDUEOgRB lookup 21 subtable" uni2076
Substitution2: "'subs' +BB0EOAQ2BD0EOAQ5 +BDgEPQQ0BDUEOgRB lookup 20 subtable" uni2086
AlternateSubs2: "'aalt' +BBIEQQQ1 +BDAEOwRMBEIENQRABD0EMARCBDgEMgQ9BEsENQAA +BDIEMARABDgEMAQ9BEIESwAA lookup 1 subtable" uni2076 six.lf six.tosf six.dnom six.numr uni2086
EndChar

StartChar: seven
Encoding: 25 55 26
Width: 559
Flags: W
LayerCount: 2
Fore
SplineSet
176 0 m 1,0,-1
 412 634 l 1,1,-1
 163 634 l 2,2,3
 110 634 110 634 105 583 c 2,4,-1
 101 533 l 1,5,-1
 59 533 l 1,6,-1
 64 714 l 1,7,-1
 511 714 l 1,8,-1
 511 685 l 1,9,-1
 265 0 l 1,10,-1
 176 0 l 1,0,-1
EndSplineSet
Substitution2: "'case' +BCAENQQzBDgEQQRCBEAEPgQ3BDAEMgQ4BEEEOAQ8BEsENQAA +BEQEPgRABDwESwAA lookup 38 subtable" seven.lf
Substitution2: "'onum' Oldstyle Figures lookup 35 subtable" seven.tosf
Substitution2: "'pnum' Proportional Numbers lookup 33 subtable" seven.lf
Substitution2: "'frac' Diagonal Fractions lookup 26 subtable" seven.numr
Substitution2: "'dnom' Denominators lookup 24 subtable" seven.dnom
Substitution2: "'numr' Numerators lookup 23 subtable" seven.numr
Substitution2: "'sups' +BBIENQRABEUEPQQ4BDkA +BDgEPQQ0BDUEOgRB lookup 21 subtable" uni2077
Substitution2: "'subs' +BB0EOAQ2BD0EOAQ5 +BDgEPQQ0BDUEOgRB lookup 20 subtable" uni2087
AlternateSubs2: "'aalt' +BBIEQQQ1 +BDAEOwRMBEIENQRABD0EMARCBDgEMgQ9BEsENQAA +BDIEMARABDgEMAQ9BEIESwAA lookup 1 subtable" uni2077 seven.lf seven.tosf seven.dnom seven.numr uni2087
EndChar

StartChar: eight
Encoding: 26 56 27
Width: 559
Flags: W
LayerCount: 2
Fore
SplineSet
273 -10 m 0,0,1
 198 -10 198 -10 147.5 15.5 c 128,-1,2
 97 41 97 41 71.5 84 c 128,-1,3
 46 127 46 127 46 179 c 0,4,5
 46 227 46 227 66 260 c 128,-1,6
 86 293 86 293 120.5 317 c 128,-1,7
 155 341 155 341 198 362 c 1,8,9
 141 394 141 394 105 438 c 128,-1,10
 69 482 69 482 69 545 c 0,11,12
 69 591 69 591 91 632 c 128,-1,13
 113 673 113 673 160.5 698.5 c 128,-1,14
 208 724 208 724 285 724 c 0,15,16
 379 724 379 724 430.5 675.5 c 128,-1,17
 482 627 482 627 482 552 c 0,18,19
 482 486 482 486 445 449.5 c 128,-1,20
 408 413 408 413 347 383 c 1,21,22
 421 348 421 348 467 302 c 128,-1,23
 513 256 513 256 513 191 c 0,24,25
 513 96 513 96 448 43 c 128,-1,26
 383 -10 383 -10 273 -10 c 0,0,1
298 406 m 1,27,28
 354 434 354 434 373.5 468 c 128,-1,29
 393 502 393 502 393 554 c 0,30,31
 393 585 393 585 382 613 c 128,-1,32
 371 641 371 641 346 659 c 128,-1,33
 321 677 321 677 279 677 c 0,34,35
 223 677 223 677 193 643 c 128,-1,36
 163 609 163 609 163 557 c 0,37,38
 163 503 163 503 197 470 c 128,-1,39
 231 437 231 437 298 406 c 1,27,28
278 36 m 0,40,41
 343 36 343 36 382.5 73.5 c 128,-1,42
 422 111 422 111 422 169 c 0,43,44
 422 220 422 220 382.5 258 c 128,-1,45
 343 296 343 296 246 338 c 1,46,47
 199 313 199 313 171 272 c 128,-1,48
 143 231 143 231 143 175 c 0,49,50
 143 113 143 113 177 74.5 c 128,-1,51
 211 36 211 36 278 36 c 0,40,41
EndSplineSet
Substitution2: "'case' +BCAENQQzBDgEQQRCBEAEPgQ3BDAEMgQ4BEEEOAQ8BEsENQAA +BEQEPgRABDwESwAA lookup 38 subtable" eight.lf
Substitution2: "'onum' Oldstyle Figures lookup 35 subtable" eight.tosf
Substitution2: "'pnum' Proportional Numbers lookup 33 subtable" eight.lf
Substitution2: "'frac' Diagonal Fractions lookup 26 subtable" eight.numr
Substitution2: "'dnom' Denominators lookup 24 subtable" eight.dnom
Substitution2: "'numr' Numerators lookup 23 subtable" eight.numr
Substitution2: "'sups' +BBIENQRABEUEPQQ4BDkA +BDgEPQQ0BDUEOgRB lookup 21 subtable" uni2078
Substitution2: "'subs' +BB0EOAQ2BD0EOAQ5 +BDgEPQQ0BDUEOgRB lookup 20 subtable" uni2088
AlternateSubs2: "'aalt' +BBIEQQQ1 +BDAEOwRMBEIENQRABD0EMARCBDgEMgQ9BEsENQAA +BDIEMARABDgEMAQ9BEIESwAA lookup 1 subtable" uni2078 eight.lf eight.tosf eight.dnom eight.numr uni2088
EndChar

StartChar: nine
Encoding: 27 57 28
Width: 559
Flags: W
LayerCount: 2
Fore
SplineSet
227 -11 m 0,0,1
 171 -11 171 -11 139 2 c 128,-1,2
 107 15 107 15 94.5 34.5 c 128,-1,3
 82 54 82 54 82 75 c 0,4,5
 82 94 82 94 91.5 106.5 c 128,-1,6
 101 119 101 119 112 123 c 1,7,8
 126 92 126 92 153.5 68 c 128,-1,9
 181 44 181 44 228 44 c 0,10,11
 311 44 311 44 350.5 118 c 128,-1,12
 390 192 390 192 395 343 c 1,13,14
 373 317 373 317 337 296 c 128,-1,15
 301 275 301 275 248 275 c 0,16,17
 161 275 161 275 106 326 c 128,-1,18
 51 377 51 377 51 478 c 0,19,20
 51 550 51 550 76.5 605.5 c 128,-1,21
 102 661 102 661 150 692.5 c 128,-1,22
 198 724 198 724 265 724 c 0,23,24
 333 724 333 724 385.5 689 c 128,-1,25
 438 654 438 654 468 580 c 128,-1,26
 498 506 498 506 498 388 c 0,27,28
 498 309 498 309 483 237.5 c 128,-1,29
 468 166 468 166 435.5 110 c 128,-1,30
 403 54 403 54 351.5 21.5 c 128,-1,31
 300 -11 300 -11 227 -11 c 0,0,1
270 334 m 0,32,33
 319 334 319 334 351 358.5 c 128,-1,34
 383 383 383 383 396 415 c 1,35,36
 394 549 394 549 358.5 609 c 128,-1,37
 323 669 323 669 265 669 c 0,38,39
 213 669 213 669 183.5 622.5 c 128,-1,40
 154 576 154 576 154 488 c 0,41,42
 154 406 154 406 183 370 c 128,-1,43
 212 334 212 334 270 334 c 0,32,33
EndSplineSet
Substitution2: "'case' +BCAENQQzBDgEQQRCBEAEPgQ3BDAEMgQ4BEEEOAQ8BEsENQAA +BEQEPgRABDwESwAA lookup 38 subtable" nine.lf
Substitution2: "'onum' Oldstyle Figures lookup 35 subtable" nine.tosf
Substitution2: "'pnum' Proportional Numbers lookup 33 subtable" nine.lf
Substitution2: "'frac' Diagonal Fractions lookup 26 subtable" nine.numr
Substitution2: "'dnom' Denominators lookup 24 subtable" nine.dnom
Substitution2: "'numr' Numerators lookup 23 subtable" nine.numr
Substitution2: "'sups' +BBIENQRABEUEPQQ4BDkA +BDgEPQQ0BDUEOgRB lookup 21 subtable" uni2079
Substitution2: "'subs' +BB0EOAQ2BD0EOAQ5 +BDgEPQQ0BDUEOgRB lookup 20 subtable" uni2089
AlternateSubs2: "'aalt' +BBIEQQQ1 +BDAEOwRMBEIENQRABD0EMARCBDgEMgQ9BEsENQAA +BDIEMARABDgEMAQ9BEIESwAA lookup 1 subtable" uni2079 nine.lf nine.tosf nine.dnom nine.numr uni2089
EndChar

StartChar: colon
Encoding: 28 58 29
Width: 286
Flags: W
LayerCount: 2
Fore
SplineSet
144 405 m 256,0,1
 118 405 118 405 99.5 420 c 128,-1,2
 81 435 81 435 81 473 c 0,3,4
 81 512 81 512 99.5 526.5 c 128,-1,5
 118 541 118 541 144 541 c 256,6,7
 170 541 170 541 188.5 526.5 c 128,-1,8
 207 512 207 512 207 473 c 0,9,10
 207 435 207 435 188.5 420 c 128,-1,11
 170 405 170 405 144 405 c 256,0,1
144 -7 m 256,12,13
 118 -7 118 -7 99.5 8 c 128,-1,14
 81 23 81 23 81 61 c 0,15,16
 81 100 81 100 99.5 114.5 c 128,-1,17
 118 129 118 129 144 129 c 256,18,19
 170 129 170 129 188.5 114.5 c 128,-1,20
 207 100 207 100 207 61 c 0,21,22
 207 23 207 23 188.5 8 c 128,-1,23
 170 -7 170 -7 144 -7 c 256,12,13
EndSplineSet
EndChar

StartChar: semicolon
Encoding: 29 59 30
Width: 286
Flags: W
LayerCount: 2
Fore
SplineSet
144 405 m 256,0,1
 118 405 118 405 99.5 420 c 128,-1,2
 81 435 81 435 81 473 c 0,3,4
 81 512 81 512 99.5 526.5 c 128,-1,5
 118 541 118 541 144 541 c 256,6,7
 170 541 170 541 188.5 526.5 c 128,-1,8
 207 512 207 512 207 473 c 0,9,10
 207 435 207 435 188.5 420 c 128,-1,11
 170 405 170 405 144 405 c 256,0,1
48 -112 m 1,12,13
 143 -81 143 -81 143 -22 c 0,14,15
 143 -7 143 -7 132 1 c 128,-1,16
 121 9 121 9 106.5 16 c 128,-1,17
 92 23 92 23 81 35 c 128,-1,18
 70 47 70 47 70 70 c 0,19,20
 70 99 70 99 88.5 114 c 128,-1,21
 107 129 107 129 135 129 c 0,22,23
 166 129 166 129 189 106.5 c 128,-1,24
 212 84 212 84 212 42 c 0,25,26
 212 -22 212 -22 174.5 -75 c 128,-1,27
 137 -128 137 -128 48 -154 c 1,28,-1
 48 -112 l 1,12,13
EndSplineSet
EndChar

StartChar: less
Encoding: 30 60 31
Width: 559
Flags: W
LayerCount: 2
Fore
SplineSet
494 110 m 1,0,-1
 65 340 l 1,1,-1
 65 375 l 1,2,-1
 494 606 l 1,3,-1
 494 539 l 1,4,-1
 158 357 l 1,5,-1
 494 177 l 1,6,-1
 494 110 l 1,0,-1
EndSplineSet
EndChar

StartChar: equal
Encoding: 31 61 32
Width: 559
Flags: W
LayerCount: 2
Fore
SplineSet
65 426 m 1,0,-1
 65 485 l 1,1,-1
 494 485 l 1,2,-1
 494 426 l 1,3,-1
 65 426 l 1,0,-1
65 229 m 1,4,-1
 65 288 l 1,5,-1
 494 288 l 1,6,-1
 494 229 l 1,7,-1
 65 229 l 1,4,-1
EndSplineSet
Substitution2: "'sups' +BBIENQRABEUEPQQ4BDkA +BDgEPQQ0BDUEOgRB lookup 21 subtable" uni207C
Substitution2: "'subs' +BB0EOAQ2BD0EOAQ5 +BDgEPQQ0BDUEOgRB lookup 20 subtable" uni208C
AlternateSubs2: "'aalt' +BBIEQQQ1 +BDAEOwRMBEIENQRABD0EMARCBDgEMgQ9BEsENQAA +BDIEMARABDgEMAQ9BEIESwAA lookup 1 subtable" uni208C uni207C
EndChar

StartChar: greater
Encoding: 32 62 33
Width: 559
Flags: W
LayerCount: 2
Fore
SplineSet
65 110 m 1,0,-1
 65 177 l 1,1,-1
 401 357 l 1,2,-1
 65 539 l 1,3,-1
 65 606 l 1,4,-1
 494 375 l 1,5,-1
 494 340 l 1,6,-1
 65 110 l 1,0,-1
EndSplineSet
EndChar

StartChar: question
Encoding: 33 63 34
Width: 474
Flags: W
LayerCount: 2
Fore
SplineSet
184 353 m 1,0,1
 244 377 244 377 277.5 410 c 128,-1,2
 311 443 311 443 325 481.5 c 128,-1,3
 339 520 339 520 339 560 c 0,4,5
 339 612 339 612 313 643.5 c 128,-1,6
 287 675 287 675 228 675 c 0,7,8
 187 675 187 675 162 657 c 128,-1,9
 137 639 137 639 126.5 610 c 128,-1,10
 116 581 116 581 116 546 c 1,11,12
 80 546 80 546 56.5 562 c 128,-1,13
 33 578 33 578 33 609 c 0,14,15
 33 658 33 658 79 691 c 128,-1,16
 125 724 125 724 220 724 c 0,17,18
 283 724 283 724 332 702.5 c 128,-1,19
 381 681 381 681 408.5 640.5 c 128,-1,20
 436 600 436 600 436 543 c 0,21,22
 436 461 436 461 385 406.5 c 128,-1,23
 334 352 334 352 245 314 c 1,24,-1
 242 201 l 1,25,-1
 188 201 l 1,26,-1
 184 353 l 1,0,1
213 -7 m 256,27,28
 187 -7 187 -7 168.5 8 c 128,-1,29
 150 23 150 23 150 61 c 0,30,31
 150 100 150 100 168.5 114.5 c 128,-1,32
 187 129 187 129 213 129 c 256,33,34
 239 129 239 129 257.5 114.5 c 128,-1,35
 276 100 276 100 276 61 c 0,36,37
 276 23 276 23 257.5 8 c 128,-1,38
 239 -7 239 -7 213 -7 c 256,27,28
EndSplineSet
Substitution2: "'smcp' Lowercase to Small Capitals lookup 37 subtable" question.sc
Substitution2: "'c2sc' +BBoEMAQ/BDgEQgQ1BDsETAAA +BDgENwAA +BD8EQAQ+BD8EOARBBD0ESwRF lookup 36 subtable" question.sc
Substitution2: "'aalt' +BBIEQQQ1 +BDAEOwRMBEIENQRABD0EMARCBDgEMgQ9BEsENQAA +BDIEMARABDgEMAQ9BEIESwAA lookup 0 subtable" question.sc
EndChar

StartChar: at
Encoding: 34 64 35
Width: 921
Flags: W
LayerCount: 2
Fore
SplineSet
432 -142 m 0,0,1
 325 -142 325 -142 242 -102.5 c 128,-1,2
 159 -63 159 -63 112 17 c 128,-1,3
 65 97 65 97 65 218 c 0,4,5
 65 324 65 324 99 414.5 c 128,-1,6
 133 505 133 505 195 572 c 128,-1,7
 257 639 257 639 342.5 676.5 c 128,-1,8
 428 714 428 714 530 714 c 0,9,10
 642 714 642 714 717 671 c 128,-1,11
 792 628 792 628 830 555.5 c 128,-1,12
 868 483 868 483 868 392 c 0,13,14
 868 296 868 296 838 225 c 128,-1,15
 808 154 808 154 763 115.5 c 128,-1,16
 718 77 718 77 672 77 c 0,17,18
 628 77 628 77 598 101 c 128,-1,19
 568 125 568 125 554 168 c 1,20,-1
 549 168 l 1,21,22
 528 129 528 129 496.5 103 c 128,-1,23
 465 77 465 77 414 77 c 0,24,25
 374 77 374 77 339 95.5 c 128,-1,26
 304 114 304 114 283 152 c 128,-1,27
 262 190 262 190 262 248 c 0,28,29
 262 288 262 288 276 336.5 c 128,-1,30
 290 385 290 385 320.5 429 c 128,-1,31
 351 473 351 473 399.5 501 c 128,-1,32
 448 529 448 529 517 529 c 0,33,34
 549 529 549 529 572.5 520 c 128,-1,35
 596 511 596 511 611 499 c 1,36,-1
 651 520 l 1,37,-1
 675 520 l 1,38,-1
 624 265 l 1,39,40
 624 265 624 265 622.5 254 c 128,-1,41
 621 243 621 243 619 227.5 c 128,-1,42
 617 212 617 212 617 198 c 0,43,44
 617 163 617 163 635.5 146.5 c 128,-1,45
 654 130 654 130 678 130 c 0,46,47
 708 130 708 130 737.5 161 c 128,-1,48
 767 192 767 192 787 251.5 c 128,-1,49
 807 311 807 311 807 395 c 0,50,51
 807 483 807 483 771 542.5 c 128,-1,52
 735 602 735 602 671 632.5 c 128,-1,53
 607 663 607 663 524 663 c 0,54,55
 451 663 451 663 383 632.5 c 128,-1,56
 315 602 315 602 261 544.5 c 128,-1,57
 207 487 207 487 175.5 405 c 128,-1,58
 144 323 144 323 144 220 c 0,59,60
 144 109 144 109 185 41 c 128,-1,61
 226 -27 226 -27 294 -58.5 c 128,-1,62
 362 -90 362 -90 442 -90 c 0,63,64
 524 -90 524 -90 588.5 -64 c 128,-1,65
 653 -38 653 -38 696 -7 c 1,66,-1
 719 -43 l 1,67,68
 670 -80 670 -80 597 -111 c 128,-1,69
 524 -142 524 -142 432 -142 c 0,0,1
431 130 m 256,70,71
 465 130 465 130 487 148.5 c 128,-1,72
 509 167 509 167 521.5 196 c 128,-1,73
 534 225 534 225 539 255 c 2,74,-1
 577 458 l 1,75,76
 571 472 571 472 555 480 c 128,-1,77
 539 488 539 488 521 488 c 0,78,79
 476 488 476 488 444.5 461 c 128,-1,80
 413 434 413 434 393 393 c 128,-1,81
 373 352 373 352 364 309 c 128,-1,82
 355 266 355 266 355 234 c 0,83,84
 355 182 355 182 376 156 c 128,-1,85
 397 130 397 130 431 130 c 256,70,71
EndSplineSet
EndChar

StartChar: A
Encoding: 35 65 36
Width: 705
GlyphClass: 2
Flags: W
AnchorPoint: "+BBEENQQ3BEsEPARPBD0EPQQ+BDUA--2" 555 714 basechar 0
AnchorPoint: "+BBEENQQ3BEsEPARPBD0EPQQ+BDUA--1" 353 714 basechar 0
AnchorPoint: "+BBEENQQ3BEsEPARPBD0EPQQ+BDUA--0" 582 0 basechar 0
LayerCount: 2
Fore
SplineSet
0 0 m 1,0,-1
 0 42 l 1,1,-1
 19 42 l 2,2,3
 48 42 48 42 62.5 57 c 128,-1,4
 77 72 77 72 95 120 c 2,5,-1
 317 714 l 1,6,-1
 395 714 l 1,7,-1
 621 95 l 2,8,9
 632 64 632 64 647.5 53 c 128,-1,10
 663 42 663 42 692 42 c 2,11,-1
 705 42 l 1,12,-1
 705 0 l 1,13,-1
 430 0 l 1,14,-1
 430 42 l 1,15,-1
 453 42 l 2,16,17
 513 42 513 42 513 90 c 0,18,19
 513 98 513 98 511 107 c 128,-1,20
 509 116 509 116 505 127 c 2,21,-1
 465 239 l 1,22,-1
 202 239 l 1,23,-1
 164 134 l 2,24,25
 155 110 155 110 155 91 c 0,26,27
 155 42 155 42 221 42 c 2,28,-1
 244 42 l 1,29,-1
 244 0 l 1,30,-1
 0 0 l 1,0,-1
221 289 m 1,31,-1
 447 289 l 1,32,-1
 385 464 l 2,33,34
 369 508 369 508 356 547 c 128,-1,35
 343 586 343 586 335 622 c 1,36,37
 328 586 328 586 317 553 c 128,-1,38
 306 520 306 520 289 473 c 2,39,-1
 221 289 l 1,31,-1
EndSplineSet
Substitution2: "'c2sc' +BBoEMAQ/BDgEQgQ1BDsETAAA +BDgENwAA +BD8EQAQ+BD8EOARBBD0ESwRF lookup 36 subtable" a.sc
Substitution2: "Single Substitution lookup 31 subtable" ordfeminine
AlternateSubs2: "'aalt' +BBIEQQQ1 +BDAEOwRMBEIENQRABD0EMARCBDgEMgQ9BEsENQAA +BDIEMARABDgEMAQ9BEIESwAA lookup 1 subtable" ordfeminine a.sc
EndChar

StartChar: B
Encoding: 36 66 37
Width: 654
GlyphClass: 2
Flags: W
AnchorPoint: "+BBEENQQ3BEsEPARPBD0EPQQ+BDUA--2" 634 714 basechar 0
AnchorPoint: "+BBEENQQ3BEsEPARPBD0EPQQ+BDUA--1" 327 714 basechar 0
AnchorPoint: "+BBEENQQ3BEsEPARPBD0EPQQ+BDUA--0" 327 0 basechar 0
LayerCount: 2
Fore
SplineSet
38 0 m 1,0,-1
 38 42 l 1,1,-1
 51 42 l 2,2,3
 85 42 85 42 109 54.5 c 128,-1,4
 133 67 133 67 133 114 c 2,5,-1
 133 604 l 2,6,7
 133 648 133 648 108.5 660 c 128,-1,8
 84 672 84 672 51 672 c 2,9,-1
 38 672 l 1,10,-1
 38 714 l 1,11,-1
 306 714 l 2,12,13
 436 714 436 714 499.5 670.5 c 128,-1,14
 563 627 563 627 563 535 c 0,15,16
 563 468 563 468 527.5 431.5 c 128,-1,17
 492 395 492 395 439 378 c 1,18,-1
 439 374 l 1,19,20
 507 362 507 362 550 317.5 c 128,-1,21
 593 273 593 273 593 193 c 0,22,23
 593 0 593 0 336 0 c 2,24,-1
 38 0 l 1,0,-1
303 399 m 2,25,26
 391 399 391 399 423.5 431 c 128,-1,27
 456 463 456 463 456 535 c 0,28,29
 456 609 456 609 421 636.5 c 128,-1,30
 386 664 386 664 301 664 c 2,31,-1
 234 664 l 1,32,-1
 234 399 l 1,33,-1
 303 399 l 2,25,26
331 50 m 2,34,35
 416 50 416 50 451 83 c 128,-1,36
 486 116 486 116 486 196 c 0,37,38
 486 274 486 274 453.5 311.5 c 128,-1,39
 421 349 421 349 333 349 c 2,40,-1
 234 349 l 1,41,-1
 234 50 l 1,42,-1
 331 50 l 2,34,35
EndSplineSet
Substitution2: "'c2sc' +BBoEMAQ/BDgEQgQ1BDsETAAA +BDgENwAA +BD8EQAQ+BD8EOARBBD0ESwRF lookup 36 subtable" b.sc
Substitution2: "'aalt' +BBIEQQQ1 +BDAEOwRMBEIENQRABD0EMARCBDgEMgQ9BEsENQAA +BDIEMARABDgEMAQ9BEIESwAA lookup 0 subtable" b.sc
EndChar

StartChar: C
Encoding: 37 67 38
Width: 614
GlyphClass: 2
Flags: W
AnchorPoint: "+BBEENQQ3BEsEPARPBD0EPQQ+BDUA--2" 594 714 basechar 0
AnchorPoint: "+BBEENQQ3BEsEPARPBD0EPQQ+BDUA--1" 375 714 basechar 0
AnchorPoint: "+BBEENQQ3BEsEPARPBD0EPQQ+BDUA--0" 357 0 basechar 0
LayerCount: 2
Fore
SplineSet
361 -10 m 0,0,1
 262 -10 262 -10 194 36 c 128,-1,2
 126 82 126 82 91.5 164.5 c 128,-1,3
 57 247 57 247 57 358 c 0,4,5
 57 466 57 466 93.5 548.5 c 128,-1,6
 130 631 130 631 201.5 677.5 c 128,-1,7
 273 724 273 724 378 724 c 0,8,9
 480 724 480 724 530 692 c 128,-1,10
 580 660 580 660 580 612 c 0,11,12
 580 580 580 580 555 561 c 128,-1,13
 530 542 530 542 493 542 c 1,14,15
 493 573 493 573 482 602.5 c 128,-1,16
 471 632 471 632 445.5 651.5 c 128,-1,17
 420 671 420 671 376 671 c 0,18,19
 263 671 263 671 215.5 589.5 c 128,-1,20
 168 508 168 508 168 358 c 0,21,22
 168 269 168 269 189.5 200.5 c 128,-1,23
 211 132 211 132 257 94 c 128,-1,24
 303 56 303 56 376 56 c 256,25,26
 449 56 449 56 490.5 81.5 c 128,-1,27
 532 107 532 107 557 141 c 1,28,29
 565 136 565 136 570.5 126.5 c 128,-1,30
 576 117 576 117 576 102 c 0,31,32
 576 77 576 77 553 51 c 128,-1,33
 530 25 530 25 482.5 7.5 c 128,-1,34
 435 -10 435 -10 361 -10 c 0,0,1
EndSplineSet
Substitution2: "'c2sc' +BBoEMAQ/BDgEQgQ1BDsETAAA +BDgENwAA +BD8EQAQ+BD8EOARBBD0ESwRF lookup 36 subtable" c.sc
Substitution2: "'aalt' +BBIEQQQ1 +BDAEOwRMBEIENQRABD0EMARCBDgEMgQ9BEsENQAA +BDIEMARABDgEMAQ9BEIESwAA lookup 0 subtable" c.sc
EndChar

StartChar: D
Encoding: 38 68 39
Width: 727
GlyphClass: 2
Flags: W
AnchorPoint: "+BBEENQQ3BEsEPARPBD0EPQQ+BDUA--3" 364 357 basechar 0
AnchorPoint: "+BBEENQQ3BEsEPARPBD0EPQQ+BDUA--2" 707 714 basechar 0
AnchorPoint: "+BBEENQQ3BEsEPARPBD0EPQQ+BDUA--1" 364 714 basechar 0
AnchorPoint: "+BBEENQQ3BEsEPARPBD0EPQQ+BDUA--0" 353 0 basechar 0
LayerCount: 2
Fore
SplineSet
38 0 m 1,0,-1
 38 42 l 1,1,-1
 51 42 l 2,2,3
 85 42 85 42 109 54.5 c 128,-1,4
 133 67 133 67 133 114 c 2,5,-1
 133 604 l 2,6,7
 133 648 133 648 108.5 660 c 128,-1,8
 84 672 84 672 51 672 c 2,9,-1
 38 672 l 1,10,-1
 38 714 l 1,11,-1
 344 714 l 2,12,13
 499 714 499 714 584.5 621 c 128,-1,14
 670 528 670 528 670 358 c 0,15,16
 670 249 670 249 633.5 168.5 c 128,-1,17
 597 88 597 88 525 44 c 128,-1,18
 453 0 453 0 344 0 c 2,19,-1
 38 0 l 1,0,-1
321 51 m 2,20,21
 440 51 440 51 499.5 130.5 c 128,-1,22
 559 210 559 210 559 358 c 0,23,24
 559 507 559 507 500 585.5 c 128,-1,25
 441 664 441 664 322 664 c 2,26,-1
 234 664 l 1,27,-1
 234 51 l 1,28,-1
 321 51 l 2,20,21
EndSplineSet
Substitution2: "'c2sc' +BBoEMAQ/BDgEQgQ1BDsETAAA +BDgENwAA +BD8EQAQ+BD8EOARBBD0ESwRF lookup 36 subtable" d.sc
Substitution2: "'aalt' +BBIEQQQ1 +BDAEOwRMBEIENQRABD0EMARCBDgEMgQ9BEsENQAA +BDIEMARABDgEMAQ9BEIESwAA lookup 0 subtable" d.sc
EndChar

StartChar: E
Encoding: 39 69 40
Width: 623
GlyphClass: 2
Flags: W
AnchorPoint: "+BBEENQQ3BEsEPARPBD0EPQQ+BDUA--2" 603 714 basechar 0
AnchorPoint: "+BBEENQQ3BEsEPARPBD0EPQQ+BDUA--1" 312 714 basechar 0
AnchorPoint: "+BBEENQQ3BEsEPARPBD0EPQQ+BDUA--0" 312 0 basechar 0
LayerCount: 2
Fore
SplineSet
38 0 m 1,0,-1
 38 42 l 1,1,-1
 51 42 l 2,2,3
 84 42 84 42 108.5 53.5 c 128,-1,4
 133 65 133 65 133 109 c 2,5,-1
 133 600 l 2,6,7
 133 647 133 647 109 659.5 c 128,-1,8
 85 672 85 672 51 672 c 2,9,-1
 38 672 l 1,10,-1
 38 714 l 1,11,-1
 542 714 l 1,12,-1
 547 539 l 1,13,-1
 495 539 l 1,14,-1
 490 582 l 2,15,16
 486 615 486 615 466.5 639.5 c 128,-1,17
 447 664 447 664 402 664 c 2,18,-1
 234 664 l 1,19,-1
 234 398 l 1,20,-1
 475 398 l 1,21,-1
 475 349 l 1,22,-1
 234 349 l 1,23,-1
 234 50 l 1,24,-1
 427 50 l 2,25,26
 474 50 474 50 495.5 74.5 c 128,-1,27
 517 99 517 99 522 132 c 2,28,-1
 529 175 l 1,29,-1
 581 175 l 1,30,-1
 574 0 l 1,31,-1
 38 0 l 1,0,-1
EndSplineSet
Substitution2: "'c2sc' +BBoEMAQ/BDgEQgQ1BDsETAAA +BDgENwAA +BD8EQAQ+BD8EOARBBD0ESwRF lookup 36 subtable" e.sc
Substitution2: "'aalt' +BBIEQQQ1 +BDAEOwRMBEIENQRABD0EMARCBDgEMgQ9BEsENQAA +BDIEMARABDgEMAQ9BEIESwAA lookup 0 subtable" e.sc
EndChar

StartChar: F
Encoding: 40 70 41
Width: 590
GlyphClass: 2
Flags: W
AnchorPoint: "+BBEENQQ3BEsEPARPBD0EPQQ+BDUA--2" 570 714 basechar 0
AnchorPoint: "+BBEENQQ3BEsEPARPBD0EPQQ+BDUA--1" 295 714 basechar 0
AnchorPoint: "+BBEENQQ3BEsEPARPBD0EPQQ+BDUA--0" 184 0 basechar 0
LayerCount: 2
Fore
SplineSet
38 0 m 1,0,-1
 38 42 l 1,1,-1
 51 42 l 2,2,3
 84 42 84 42 108.5 53.5 c 128,-1,4
 133 65 133 65 133 109 c 2,5,-1
 133 604 l 2,6,7
 133 648 133 648 108.5 660 c 128,-1,8
 84 672 84 672 51 672 c 2,9,-1
 38 672 l 1,10,-1
 38 714 l 1,11,-1
 542 714 l 1,12,-1
 547 539 l 1,13,-1
 495 539 l 1,14,-1
 490 582 l 2,15,16
 486 616 486 616 465.5 640 c 128,-1,17
 445 664 445 664 398 664 c 2,18,-1
 234 664 l 1,19,-1
 234 375 l 1,20,-1
 475 375 l 1,21,-1
 475 326 l 1,22,-1
 234 326 l 1,23,-1
 234 114 l 2,24,25
 234 67 234 67 258 54.5 c 128,-1,26
 282 42 282 42 316 42 c 2,27,-1
 349 42 l 1,28,-1
 349 0 l 1,29,-1
 38 0 l 1,0,-1
EndSplineSet
Substitution2: "'c2sc' +BBoEMAQ/BDgEQgQ1BDsETAAA +BDgENwAA +BD8EQAQ+BD8EOARBBD0ESwRF lookup 36 subtable" f.sc
Substitution2: "'aalt' +BBIEQQQ1 +BDAEOwRMBEIENQRABD0EMARCBDgEMgQ9BEsENQAA +BDIEMARABDgEMAQ9BEIESwAA lookup 0 subtable" f.sc
EndChar

StartChar: G
Encoding: 41 71 42
Width: 714
GlyphClass: 2
Flags: W
AnchorPoint: "+BBEENQQ3BEsEPARPBD0EPQQ+BDUA--2" 694 714 basechar 0
AnchorPoint: "+BBEENQQ3BEsEPARPBD0EPQQ+BDUA--1" 407 714 basechar 0
AnchorPoint: "+BBEENQQ3BEsEPARPBD0EPQQ+BDUA--0" 401 0 basechar 0
LayerCount: 2
Fore
SplineSet
401 -10 m 0,0,1
 285 -10 285 -10 208.5 36 c 128,-1,2
 132 82 132 82 94.5 164.5 c 128,-1,3
 57 247 57 247 57 358 c 0,4,5
 57 466 57 466 96.5 548.5 c 128,-1,6
 136 631 136 631 214 677.5 c 128,-1,7
 292 724 292 724 407 724 c 0,8,9
 518 724 518 724 573 692 c 128,-1,10
 628 660 628 660 628 612 c 0,11,12
 628 580 628 580 601 561 c 128,-1,13
 574 542 574 542 535 542 c 1,14,15
 535 573 535 573 522.5 602.5 c 128,-1,16
 510 632 510 632 481 651.5 c 128,-1,17
 452 671 452 671 403 671 c 0,18,19
 276 671 276 671 222 589.5 c 128,-1,20
 168 508 168 508 168 358 c 256,21,22
 168 208 168 208 224.5 127.5 c 128,-1,23
 281 47 281 47 417 47 c 0,24,25
 446 47 446 47 473 50 c 128,-1,26
 500 53 500 53 521 59 c 1,27,-1
 521 220 l 2,28,29
 521 264 521 264 496.5 276 c 128,-1,30
 472 288 472 288 439 288 c 2,31,-1
 435 288 l 1,32,-1
 435 330 l 1,33,-1
 695 330 l 1,34,-1
 695 288 l 1,35,-1
 691 288 l 2,36,37
 663 288 663 288 642.5 275.5 c 128,-1,38
 622 263 622 263 622 216 c 2,39,-1
 622 36 l 1,40,41
 572 13 572 13 519 1.5 c 128,-1,42
 466 -10 466 -10 401 -10 c 0,0,1
EndSplineSet
Substitution2: "'c2sc' +BBoEMAQ/BDgEQgQ1BDsETAAA +BDgENwAA +BD8EQAQ+BD8EOARBBD0ESwRF lookup 36 subtable" g.sc
Substitution2: "'aalt' +BBIEQQQ1 +BDAEOwRMBEIENQRABD0EMARCBDgEMgQ9BEsENQAA +BDIEMARABDgEMAQ9BEIESwAA lookup 0 subtable" g.sc
EndChar

StartChar: H
Encoding: 42 72 43
Width: 793
GlyphClass: 2
Flags: W
AnchorPoint: "+BBEENQQ3BEsEPARPBD0EPQQ+BDUA--3" 397 371 basechar 0
AnchorPoint: "+BBEENQQ3BEsEPARPBD0EPQQ+BDUA--2" 773 714 basechar 0
AnchorPoint: "+BBEENQQ3BEsEPARPBD0EPQQ+BDUA--1" 397 714 basechar 0
AnchorPoint: "+BBEENQQ3BEsEPARPBD0EPQQ+BDUA--0" 397 0 basechar 0
LayerCount: 2
Fore
SplineSet
38 0 m 1,0,-1
 38 42 l 1,1,-1
 51 42 l 2,2,3
 85 42 85 42 109 54.5 c 128,-1,4
 133 67 133 67 133 114 c 2,5,-1
 133 604 l 2,6,7
 133 648 133 648 108.5 660 c 128,-1,8
 84 672 84 672 51 672 c 2,9,-1
 38 672 l 1,10,-1
 38 714 l 1,11,-1
 329 714 l 1,12,-1
 329 672 l 1,13,-1
 316 672 l 2,14,15
 282 672 282 672 258 659.5 c 128,-1,16
 234 647 234 647 234 600 c 2,17,-1
 234 398 l 1,18,-1
 559 398 l 1,19,-1
 559 600 l 2,20,21
 559 647 559 647 535 659.5 c 128,-1,22
 511 672 511 672 477 672 c 2,23,-1
 464 672 l 1,24,-1
 464 714 l 1,25,-1
 755 714 l 1,26,-1
 755 672 l 1,27,-1
 742 672 l 2,28,29
 708 672 708 672 684 659.5 c 128,-1,30
 660 647 660 647 660 600 c 2,31,-1
 660 109 l 2,32,33
 660 65 660 65 684.5 53.5 c 128,-1,34
 709 42 709 42 742 42 c 2,35,-1
 755 42 l 1,36,-1
 755 0 l 1,37,-1
 464 0 l 1,38,-1
 464 42 l 1,39,-1
 477 42 l 2,40,41
 511 42 511 42 535 54.5 c 128,-1,42
 559 67 559 67 559 114 c 2,43,-1
 559 348 l 1,44,-1
 234 348 l 1,45,-1
 234 114 l 2,46,47
 234 67 234 67 258 54.5 c 128,-1,48
 282 42 282 42 316 42 c 2,49,-1
 329 42 l 1,50,-1
 329 0 l 1,51,-1
 38 0 l 1,0,-1
EndSplineSet
Substitution2: "'c2sc' +BBoEMAQ/BDgEQgQ1BDsETAAA +BDgENwAA +BD8EQAQ+BD8EOARBBD0ESwRF lookup 36 subtable" h.sc
Substitution2: "'aalt' +BBIEQQQ1 +BDAEOwRMBEIENQRABD0EMARCBDgEMgQ9BEsENQAA +BDIEMARABDgEMAQ9BEIESwAA lookup 0 subtable" h.sc
EndChar

StartChar: I
Encoding: 43 73 44
Width: 367
GlyphClass: 2
Flags: W
AnchorPoint: "+BBEENQQ3BEsEPARPBD0EPQQ+BDUA--2" 347 714 basechar 0
AnchorPoint: "+BBEENQQ3BEsEPARPBD0EPQQ+BDUA--1" 184 714 basechar 0
AnchorPoint: "+BBEENQQ3BEsEPARPBD0EPQQ+BDUA--0" 184 0 basechar 0
LayerCount: 2
Fore
SplineSet
38 0 m 1,0,-1
 38 42 l 1,1,-1
 51 42 l 2,2,3
 85 42 85 42 109 54.5 c 128,-1,4
 133 67 133 67 133 114 c 2,5,-1
 133 600 l 2,6,7
 133 647 133 647 109 659.5 c 128,-1,8
 85 672 85 672 51 672 c 2,9,-1
 38 672 l 1,10,-1
 38 714 l 1,11,-1
 329 714 l 1,12,-1
 329 672 l 1,13,-1
 316 672 l 2,14,15
 282 672 282 672 258 659.5 c 128,-1,16
 234 647 234 647 234 600 c 2,17,-1
 234 114 l 2,18,19
 234 67 234 67 258 54.5 c 128,-1,20
 282 42 282 42 316 42 c 2,21,-1
 329 42 l 1,22,-1
 329 0 l 1,23,-1
 38 0 l 1,0,-1
EndSplineSet
Substitution2: "'c2sc' +BBoEMAQ/BDgEQgQ1BDsETAAA +BDgENwAA +BD8EQAQ+BD8EOARBBD0ESwRF lookup 36 subtable" i.sc
Substitution2: "'aalt' +BBIEQQQ1 +BDAEOwRMBEIENQRABD0EMARCBDgEMgQ9BEsENQAA +BDIEMARABDgEMAQ9BEIESwAA lookup 0 subtable" i.sc
EndChar

StartChar: J
Encoding: 44 74 45
Width: 357
GlyphClass: 2
Flags: W
AnchorPoint: "+BBEENQQ3BEsEPARPBD0EPQQ+BDUA--2" 337 714 basechar 0
AnchorPoint: "+BBEENQQ3BEsEPARPBD0EPQQ+BDUA--1" 182 714 basechar 0
AnchorPoint: "+BBEENQQ3BEsEPARPBD0EPQQ+BDUA--0" 109 -240 basechar 0
LayerCount: 2
Fore
SplineSet
-11 -240 m 1,0,-1
 -11 -193 l 1,1,-1
 -2 -193 l 2,2,3
 41 -193 41 -193 71 -176.5 c 128,-1,4
 101 -160 101 -160 117 -119.5 c 128,-1,5
 133 -79 133 -79 133 -9 c 2,6,-1
 133 604 l 2,7,8
 133 648 133 648 108.5 660 c 128,-1,9
 84 672 84 672 51 672 c 2,10,-1
 38 672 l 1,11,-1
 38 714 l 1,12,-1
 329 714 l 1,13,-1
 329 672 l 1,14,-1
 316 672 l 2,15,16
 282 672 282 672 258 659.5 c 128,-1,17
 234 647 234 647 234 600 c 2,18,-1
 234 -8 l 2,19,20
 234 -97 234 -97 203.5 -148 c 128,-1,21
 173 -199 173 -199 121.5 -219.5 c 128,-1,22
 70 -240 70 -240 6 -240 c 2,23,-1
 -11 -240 l 1,0,-1
EndSplineSet
Substitution2: "'c2sc' +BBoEMAQ/BDgEQgQ1BDsETAAA +BDgENwAA +BD8EQAQ+BD8EOARBBD0ESwRF lookup 36 subtable" j.sc
Substitution2: "'aalt' +BBIEQQQ1 +BDAEOwRMBEIENQRABD0EMARCBDgEMgQ9BEsENQAA +BDIEMARABDgEMAQ9BEIESwAA lookup 0 subtable" j.sc
EndChar

StartChar: K
Encoding: 45 75 46
Width: 700
GlyphClass: 2
Flags: W
AnchorPoint: "+BBEENQQ3BEsEPARPBD0EPQQ+BDUA--2" 680 714 basechar 0
AnchorPoint: "+BBEENQQ3BEsEPARPBD0EPQQ+BDUA--1" 370 714 basechar 0
AnchorPoint: "+BBEENQQ3BEsEPARPBD0EPQQ+BDUA--0" 399 0 basechar 0
LayerCount: 2
Fore
SplineSet
38 0 m 1,0,-1
 38 42 l 1,1,-1
 51 42 l 2,2,3
 84 42 84 42 108.5 53.5 c 128,-1,4
 133 65 133 65 133 109 c 2,5,-1
 133 604 l 2,6,7
 133 648 133 648 108.5 660 c 128,-1,8
 84 672 84 672 51 672 c 2,9,-1
 38 672 l 1,10,-1
 38 714 l 1,11,-1
 329 714 l 1,12,-1
 329 672 l 1,13,-1
 316 672 l 2,14,15
 282 672 282 672 258 659.5 c 128,-1,16
 234 647 234 647 234 600 c 2,17,-1
 234 318 l 1,18,-1
 441 555 l 2,19,20
 473 592 473 592 484.5 614.5 c 128,-1,21
 496 637 496 637 496 651 c 0,22,23
 496 664 496 664 484 668.5 c 128,-1,24
 472 673 472 673 447 673 c 1,25,-1
 447 714 l 1,26,-1
 668 714 l 1,27,-1
 668 673 l 1,28,29
 634 673 634 673 603.5 648 c 128,-1,30
 573 623 573 623 534 579 c 2,31,-1
 389 416 l 1,32,-1
 600 122 l 2,33,34
 629 83 629 83 655.5 62.5 c 128,-1,35
 682 42 682 42 710 42 c 2,36,-1
 712 42 l 1,37,-1
 712 0 l 1,38,-1
 701 0 l 2,39,40
 651 0 651 0 618.5 4 c 128,-1,41
 586 8 586 8 564.5 18 c 128,-1,42
 543 28 543 28 526.5 45.5 c 128,-1,43
 510 63 510 63 491 90 c 2,44,-1
 319 337 l 1,45,-1
 234 253 l 1,46,-1
 234 114 l 2,47,48
 234 67 234 67 258 54.5 c 128,-1,49
 282 42 282 42 316 42 c 2,50,-1
 329 42 l 1,51,-1
 329 0 l 1,52,-1
 38 0 l 1,0,-1
EndSplineSet
Substitution2: "'c2sc' +BBoEMAQ/BDgEQgQ1BDsETAAA +BDgENwAA +BD8EQAQ+BD8EOARBBD0ESwRF lookup 36 subtable" k.sc
Substitution2: "'aalt' +BBIEQQQ1 +BDAEOwRMBEIENQRABD0EMARCBDgEMgQ9BEsENQAA +BDIEMARABDgEMAQ9BEIESwAA lookup 0 subtable" k.sc
EndChar

StartChar: L
Encoding: 46 76 47
Width: 623
GlyphClass: 2
Flags: W
AnchorPoint: "+BBEENQQ3BEsEPARPBD0EPQQ+BDUA--3" 184 357 basechar 0
AnchorPoint: "+BBEENQQ3BEsEPARPBD0EPQQ+BDUA--2" 603 714 basechar 0
AnchorPoint: "+BBEENQQ3BEsEPARPBD0EPQQ+BDUA--1" 180 714 basechar 0
AnchorPoint: "+BBEENQQ3BEsEPARPBD0EPQQ+BDUA--0" 312 0 basechar 0
LayerCount: 2
Fore
SplineSet
38 0 m 1,0,-1
 38 42 l 1,1,-1
 51 42 l 2,2,3
 85 42 85 42 109 54.5 c 128,-1,4
 133 67 133 67 133 114 c 2,5,-1
 133 600 l 2,6,7
 133 647 133 647 109 659.5 c 128,-1,8
 85 672 85 672 51 672 c 2,9,-1
 38 672 l 1,10,-1
 38 714 l 1,11,-1
 329 714 l 1,12,-1
 329 672 l 1,13,-1
 316 672 l 2,14,15
 283 672 283 672 258.5 660 c 128,-1,16
 234 648 234 648 234 604 c 2,17,-1
 234 50 l 1,18,-1
 431 50 l 2,19,20
 461 50 461 50 479.5 63.5 c 128,-1,21
 498 77 498 77 507 98 c 128,-1,22
 516 119 516 119 519 140 c 2,23,-1
 529 215 l 1,24,-1
 581 215 l 1,25,-1
 574 0 l 1,26,-1
 38 0 l 1,0,-1
EndSplineSet
Substitution2: "'c2sc' +BBoEMAQ/BDgEQgQ1BDsETAAA +BDgENwAA +BD8EQAQ+BD8EOARBBD0ESwRF lookup 36 subtable" l.sc
Substitution2: "'aalt' +BBIEQQQ1 +BDAEOwRMBEIENQRABD0EMARCBDgEMgQ9BEsENQAA +BDIEMARABDgEMAQ9BEIESwAA lookup 0 subtable" l.sc
EndChar

StartChar: M
Encoding: 47 77 48
Width: 938
GlyphClass: 2
Flags: W
AnchorPoint: "+BBEENQQ3BEsEPARPBD0EPQQ+BDUA--2" 918 714 basechar 0
AnchorPoint: "+BBEENQQ3BEsEPARPBD0EPQQ+BDUA--1" 469 714 basechar 0
AnchorPoint: "+BBEENQQ3BEsEPARPBD0EPQQ+BDUA--0" 462 0 basechar 0
LayerCount: 2
Fore
SplineSet
38 0 m 1,0,-1
 38 42 l 1,1,-1
 51 42 l 2,2,3
 84 42 84 42 108.5 53.5 c 128,-1,4
 133 65 133 65 133 109 c 2,5,-1
 133 604 l 2,6,7
 133 648 133 648 108.5 660 c 128,-1,8
 84 672 84 672 51 672 c 2,9,-1
 38 672 l 1,10,-1
 38 714 l 1,11,-1
 266 714 l 1,12,-1
 473 142 l 1,13,-1
 678 714 l 1,14,-1
 900 714 l 1,15,-1
 900 672 l 1,16,-1
 887 672 l 2,17,18
 853 672 853 672 829 659.5 c 128,-1,19
 805 647 805 647 805 600 c 2,20,-1
 805 114 l 2,21,22
 805 67 805 67 829 54.5 c 128,-1,23
 853 42 853 42 887 42 c 2,24,-1
 900 42 l 1,25,-1
 900 0 l 1,26,-1
 634 0 l 1,27,-1
 634 42 l 1,28,-1
 637 42 l 2,29,30
 669 42 669 42 688 53 c 128,-1,31
 707 64 707 64 709 105 c 2,32,-1
 709 639 l 1,33,-1
 480 0 l 1,34,-1
 426 0 l 1,35,-1
 194 637 l 1,36,-1
 194 114 l 2,37,38
 194 67 194 67 213 54.5 c 128,-1,39
 232 42 232 42 266 42 c 2,40,-1
 269 42 l 1,41,-1
 269 0 l 1,42,-1
 38 0 l 1,0,-1
EndSplineSet
Substitution2: "'c2sc' +BBoEMAQ/BDgEQgQ1BDsETAAA +BDgENwAA +BD8EQAQ+BD8EOARBBD0ESwRF lookup 36 subtable" m.sc
Substitution2: "'aalt' +BBIEQQQ1 +BDAEOwRMBEIENQRABD0EMARCBDgEMgQ9BEsENQAA +BDIEMARABDgEMAQ9BEIESwAA lookup 0 subtable" m.sc
EndChar

StartChar: N
Encoding: 48 78 49
Width: 763
GlyphClass: 2
Flags: W
AnchorPoint: "+BBEENQQ3BEsEPARPBD0EPQQ+BDUA--2" 743 714 basechar 0
AnchorPoint: "+BBEENQQ3BEsEPARPBD0EPQQ+BDUA--1" 382 714 basechar 0
AnchorPoint: "+BBEENQQ3BEsEPARPBD0EPQQ+BDUA--0" 382 0 basechar 0
LayerCount: 2
Fore
SplineSet
38 0 m 1,0,-1
 38 42 l 1,1,-1
 51 42 l 2,2,3
 85 42 85 42 109 54.5 c 128,-1,4
 133 67 133 67 133 114 c 2,5,-1
 133 604 l 2,6,7
 133 648 133 648 108.5 660 c 128,-1,8
 84 672 84 672 51 672 c 2,9,-1
 38 672 l 1,10,-1
 38 714 l 1,11,-1
 221 714 l 1,12,-1
 579 161 l 1,13,-1
 579 604 l 2,14,15
 579 648 579 648 554.5 660 c 128,-1,16
 530 672 530 672 497 672 c 2,17,-1
 484 672 l 1,18,-1
 484 714 l 1,19,-1
 735 714 l 1,20,-1
 735 672 l 1,21,-1
 722 672 l 2,22,23
 688 672 688 672 664 659.5 c 128,-1,24
 640 647 640 647 640 600 c 2,25,-1
 640 0 l 1,26,-1
 569 0 l 1,27,-1
 194 576 l 1,28,-1
 194 114 l 2,29,30
 194 67 194 67 218 54.5 c 128,-1,31
 242 42 242 42 276 42 c 2,32,-1
 289 42 l 1,33,-1
 289 0 l 1,34,-1
 38 0 l 1,0,-1
EndSplineSet
Substitution2: "'c2sc' +BBoEMAQ/BDgEQgQ1BDsETAAA +BDgENwAA +BD8EQAQ+BD8EOARBBD0ESwRF lookup 36 subtable" n.sc
Substitution2: "'aalt' +BBIEQQQ1 +BDAEOwRMBEIENQRABD0EMARCBDgEMgQ9BEsENQAA +BDIEMARABDgEMAQ9BEIESwAA lookup 0 subtable" n.sc
EndChar

StartChar: O
Encoding: 49 79 50
Width: 742
GlyphClass: 2
Flags: W
AnchorPoint: "+BBEENQQ3BEsEPARPBD0EPQQ+BDUA--3" 371 357 basechar 0
AnchorPoint: "+BBEENQQ3BEsEPARPBD0EPQQ+BDUA--2" 722 714 basechar 0
AnchorPoint: "+BBEENQQ3BEsEPARPBD0EPQQ+BDUA--1" 371 714 basechar 0
AnchorPoint: "+BBEENQQ3BEsEPARPBD0EPQQ+BDUA--0" 371 0 basechar 0
LayerCount: 2
Fore
SplineSet
371 -10 m 0,0,1
 265 -10 265 -10 195 36 c 128,-1,2
 125 82 125 82 90.5 165 c 128,-1,3
 56 248 56 248 56 359 c 256,4,5
 56 470 56 470 90.5 552 c 128,-1,6
 125 634 125 634 195.5 679.5 c 128,-1,7
 266 725 266 725 372 725 c 0,8,9
 473 725 473 725 542.5 679.5 c 128,-1,10
 612 634 612 634 648.5 551.5 c 128,-1,11
 685 469 685 469 685 358 c 256,12,13
 685 247 685 247 648.5 164.5 c 128,-1,14
 612 82 612 82 542 36 c 128,-1,15
 472 -10 472 -10 371 -10 c 0,0,1
371 44 m 0,16,17
 483 44 483 44 528.5 127 c 128,-1,18
 574 210 574 210 574 358 c 0,19,20
 574 507 574 507 528.5 589 c 128,-1,21
 483 671 483 671 372 671 c 0,22,23
 260 671 260 671 213.5 589 c 128,-1,24
 167 507 167 507 167 358 c 0,25,26
 167 210 167 210 213.5 127 c 128,-1,27
 260 44 260 44 371 44 c 0,16,17
EndSplineSet
Substitution2: "'c2sc' +BBoEMAQ/BDgEQgQ1BDsETAAA +BDgENwAA +BD8EQAQ+BD8EOARBBD0ESwRF lookup 36 subtable" o.sc
Substitution2: "Single Substitution lookup 31 subtable" ordmasculine
AlternateSubs2: "'aalt' +BBIEQQQ1 +BDAEOwRMBEIENQRABD0EMARCBDgEMgQ9BEsENQAA +BDIEMARABDgEMAQ9BEIESwAA lookup 1 subtable" ordmasculine o.sc
EndChar

StartChar: P
Encoding: 50 80 51
Width: 604
GlyphClass: 2
Flags: W
AnchorPoint: "+BBEENQQ3BEsEPARPBD0EPQQ+BDUA--2" 589 714 basechar 0
AnchorPoint: "+BBEENQQ3BEsEPARPBD0EPQQ+BDUA--1" 302 714 basechar 0
AnchorPoint: "+BBEENQQ3BEsEPARPBD0EPQQ+BDUA--0" 184 0 basechar 0
LayerCount: 2
Fore
SplineSet
38 0 m 1,0,-1
 38 42 l 1,1,-1
 51 42 l 2,2,3
 85 42 85 42 109 54.5 c 128,-1,4
 133 67 133 67 133 114 c 2,5,-1
 133 604 l 2,6,7
 133 648 133 648 108.5 660 c 128,-1,8
 84 672 84 672 51 672 c 2,9,-1
 38 672 l 1,10,-1
 38 714 l 1,11,-1
 319 714 l 2,12,13
 445 714 445 714 505 658.5 c 128,-1,14
 565 603 565 603 565 505 c 0,15,16
 565 446 565 446 539.5 394 c 128,-1,17
 514 342 514 342 455 310 c 128,-1,18
 396 278 396 278 297 278 c 2,19,-1
 234 278 l 1,20,-1
 234 109 l 2,21,22
 234 65 234 65 258.5 53.5 c 128,-1,23
 283 42 283 42 316 42 c 2,24,-1
 349 42 l 1,25,-1
 349 0 l 1,26,-1
 38 0 l 1,0,-1
287 325 m 2,27,28
 378 325 378 325 417.5 365.5 c 128,-1,29
 457 406 457 406 457 501 c 0,30,31
 457 585 457 585 422 625.5 c 128,-1,32
 387 666 387 666 302 666 c 2,33,-1
 234 666 l 1,34,-1
 234 325 l 1,35,-1
 287 325 l 2,27,28
EndSplineSet
Substitution2: "'c2sc' +BBoEMAQ/BDgEQgQ1BDsETAAA +BDgENwAA +BD8EQAQ+BD8EOARBBD0ESwRF lookup 36 subtable" p.sc
Substitution2: "'aalt' +BBIEQQQ1 +BDAEOwRMBEIENQRABD0EMARCBDgEMgQ9BEsENQAA +BDIEMARABDgEMAQ9BEIESwAA lookup 0 subtable" p.sc
EndChar

StartChar: Q
Encoding: 51 81 52
Width: 742
GlyphClass: 2
Flags: W
AnchorPoint: "+BBEENQQ3BEsEPARPBD0EPQQ+BDUA--2" 722 714 basechar 0
AnchorPoint: "+BBEENQQ3BEsEPARPBD0EPQQ+BDUA--1" 371 714 basechar 0
AnchorPoint: "+BBEENQQ3BEsEPARPBD0EPQQ+BDUA--0" 371 -230 basechar 0
LayerCount: 2
Fore
SplineSet
559 -230 m 2,0,1
 506 -230 506 -230 455.5 -210 c 128,-1,2
 405 -190 405 -190 370 -141.5 c 128,-1,3
 335 -93 335 -93 328 -8 c 1,4,5
 237 2 237 2 176.5 49.5 c 128,-1,6
 116 97 116 97 86 176.5 c 128,-1,7
 56 256 56 256 56 359 c 0,8,9
 56 470 56 470 90.5 552 c 128,-1,10
 125 634 125 634 195.5 679.5 c 128,-1,11
 266 725 266 725 372 725 c 0,12,13
 473 725 473 725 542.5 679.5 c 128,-1,14
 612 634 612 634 648.5 551.5 c 128,-1,15
 685 469 685 469 685 358 c 0,16,17
 685 261 685 261 656.5 184.5 c 128,-1,18
 628 108 628 108 573 59.5 c 128,-1,19
 518 11 518 11 438 -4 c 1,20,21
 444 -72 444 -72 463.5 -111.5 c 128,-1,22
 483 -151 483 -151 514.5 -167 c 128,-1,23
 546 -183 546 -183 586 -183 c 2,24,-1
 602 -183 l 1,25,-1
 602 -230 l 1,26,-1
 559 -230 l 2,0,1
371 44 m 0,27,28
 483 44 483 44 528.5 127 c 128,-1,29
 574 210 574 210 574 358 c 0,30,31
 574 507 574 507 528.5 589 c 128,-1,32
 483 671 483 671 372 671 c 0,33,34
 260 671 260 671 213.5 589 c 128,-1,35
 167 507 167 507 167 358 c 0,36,37
 167 210 167 210 213.5 127 c 128,-1,38
 260 44 260 44 371 44 c 0,27,28
EndSplineSet
Substitution2: "'c2sc' +BBoEMAQ/BDgEQgQ1BDsETAAA +BDgENwAA +BD8EQAQ+BD8EOARBBD0ESwRF lookup 36 subtable" q.sc
Substitution2: "'aalt' +BBIEQQQ1 +BDAEOwRMBEIENQRABD0EMARCBDgEMgQ9BEsENQAA +BDIEMARABDgEMAQ9BEIESwAA lookup 0 subtable" q.sc
EndChar

StartChar: R
Encoding: 52 82 53
Width: 656
GlyphClass: 2
Flags: W
AnchorPoint: "+BBEENQQ3BEsEPARPBD0EPQQ+BDUA--2" 636 714 basechar 0
AnchorPoint: "+BBEENQQ3BEsEPARPBD0EPQQ+BDUA--1" 328 714 basechar 0
AnchorPoint: "+BBEENQQ3BEsEPARPBD0EPQQ+BDUA--0" 368 0 basechar 0
LayerCount: 2
Fore
SplineSet
38 0 m 1,0,-1
 38 42 l 1,1,-1
 51 42 l 2,2,3
 84 42 84 42 108.5 53.5 c 128,-1,4
 133 65 133 65 133 109 c 2,5,-1
 133 604 l 2,6,7
 133 648 133 648 108.5 660 c 128,-1,8
 84 672 84 672 51 672 c 2,9,-1
 38 672 l 1,10,-1
 38 714 l 1,11,-1
 307 714 l 2,12,13
 564 714 564 714 564 521 c 0,14,15
 564 468 564 468 542 431.5 c 128,-1,16
 520 395 520 395 486.5 373 c 128,-1,17
 453 351 453 351 417 339 c 1,18,-1
 554 122 l 2,19,20
 580 82 580 82 604 62 c 128,-1,21
 628 42 628 42 659 42 c 2,22,-1
 662 42 l 1,23,-1
 662 0 l 1,24,-1
 648 0 l 2,25,26
 586 0 586 0 551.5 6.5 c 128,-1,27
 517 13 517 13 496 32.5 c 128,-1,28
 475 52 475 52 452 90 c 2,29,-1
 317 315 l 1,30,-1
 234 315 l 1,31,-1
 234 109 l 2,32,33
 234 65 234 65 258.5 53.5 c 128,-1,34
 283 42 283 42 316 42 c 2,35,-1
 329 42 l 1,36,-1
 329 0 l 1,37,-1
 38 0 l 1,0,-1
304 362 m 2,38,39
 392 362 392 362 424.5 401 c 128,-1,40
 457 440 457 440 457 518 c 0,41,42
 457 598 457 598 422 632 c 128,-1,43
 387 666 387 666 302 666 c 2,44,-1
 234 666 l 1,45,-1
 234 362 l 1,46,-1
 304 362 l 2,38,39
EndSplineSet
Substitution2: "'c2sc' +BBoEMAQ/BDgEQgQ1BDsETAAA +BDgENwAA +BD8EQAQ+BD8EOARBBD0ESwRF lookup 36 subtable" r.sc
Substitution2: "'aalt' +BBIEQQQ1 +BDAEOwRMBEIENQRABD0EMARCBDgEMgQ9BEsENQAA +BDIEMARABDgEMAQ9BEIESwAA lookup 0 subtable" r.sc
EndChar

StartChar: S
Encoding: 53 83 54
Width: 544
GlyphClass: 2
Flags: W
AnchorPoint: "+BBEENQQ3BEsEPARPBD0EPQQ+BDUA--2" 524 714 basechar 0
AnchorPoint: "+BBEENQQ3BEsEPARPBD0EPQQ+BDUA--1" 272 714 basechar 0
AnchorPoint: "+BBEENQQ3BEsEPARPBD0EPQQ+BDUA--0" 272 0 basechar 0
LayerCount: 2
Fore
SplineSet
247 -10 m 0,0,1
 149 -10 149 -10 98.5 29 c 128,-1,2
 48 68 48 68 48 131 c 0,3,4
 48 161 48 161 67 179.5 c 128,-1,5
 86 198 86 198 120 198 c 1,6,7
 122 157 122 157 136 120.5 c 128,-1,8
 150 84 150 84 179 61.5 c 128,-1,9
 208 39 208 39 255 39 c 0,10,11
 322 39 322 39 360 71.5 c 128,-1,12
 398 104 398 104 398 165 c 0,13,14
 398 202 398 202 383.5 227.5 c 128,-1,15
 369 253 369 253 335.5 275 c 128,-1,16
 302 297 302 297 243 321 c 0,17,18
 150 359 150 359 104.5 410 c 128,-1,19
 59 461 59 461 59 543 c 0,20,21
 59 600 59 600 87.5 640.5 c 128,-1,22
 116 681 116 681 165.5 702.5 c 128,-1,23
 215 724 215 724 278 724 c 0,24,25
 367 724 367 724 416 690 c 128,-1,26
 465 656 465 656 465 612 c 0,27,28
 465 580 465 580 443.5 563.5 c 128,-1,29
 422 547 422 547 386 547 c 1,30,31
 386 578 386 578 375.5 607 c 128,-1,32
 365 636 365 636 340.5 655 c 128,-1,33
 316 674 316 674 274 674 c 0,34,35
 216 674 216 674 184 643 c 128,-1,36
 152 612 152 612 152 560 c 0,37,38
 152 520 152 520 166.5 492.5 c 128,-1,39
 181 465 181 465 215 443.5 c 128,-1,40
 249 422 249 422 307 398 c 0,41,42
 395 362 395 362 444 315 c 128,-1,43
 493 268 493 268 493 191 c 0,44,45
 493 96 493 96 426.5 43 c 128,-1,46
 360 -10 360 -10 247 -10 c 0,0,1
EndSplineSet
Substitution2: "'c2sc' +BBoEMAQ/BDgEQgQ1BDsETAAA +BDgENwAA +BD8EQAQ+BD8EOARBBD0ESwRF lookup 36 subtable" s.sc
Substitution2: "'aalt' +BBIEQQQ1 +BDAEOwRMBEIENQRABD0EMARCBDgEMgQ9BEsENQAA +BDIEMARABDgEMAQ9BEIESwAA lookup 0 subtable" s.sc
EndChar

StartChar: T
Encoding: 54 84 55
Width: 613
GlyphClass: 2
Flags: W
AnchorPoint: "+BBEENQQ3BEsEPARPBD0EPQQ+BDUA--3" 307 357 basechar 0
AnchorPoint: "+BBEENQQ3BEsEPARPBD0EPQQ+BDUA--2" 593 714 basechar 0
AnchorPoint: "+BBEENQQ3BEsEPARPBD0EPQQ+BDUA--1" 307 714 basechar 0
AnchorPoint: "+BBEENQQ3BEsEPARPBD0EPQQ+BDUA--0" 307 0 basechar 0
LayerCount: 2
Fore
SplineSet
150 0 m 1,0,-1
 150 42 l 1,1,-1
 173 42 l 2,2,3
 206 42 206 42 230.5 53.5 c 128,-1,4
 255 65 255 65 255 109 c 2,5,-1
 255 664 l 1,6,-1
 159 664 l 2,7,8
 115 664 115 664 98 639.5 c 128,-1,9
 81 615 81 615 77 582 c 2,10,-1
 72 539 l 1,11,-1
 20 539 l 1,12,-1
 25 714 l 1,13,-1
 588 714 l 1,14,-1
 593 539 l 1,15,-1
 541 539 l 1,16,-1
 536 582 l 2,17,18
 532 615 532 615 515 639.5 c 128,-1,19
 498 664 498 664 453 664 c 2,20,-1
 356 664 l 1,21,-1
 356 114 l 2,22,23
 356 67 356 67 380 54.5 c 128,-1,24
 404 42 404 42 438 42 c 2,25,-1
 461 42 l 1,26,-1
 461 0 l 1,27,-1
 150 0 l 1,0,-1
EndSplineSet
Substitution2: "'c2sc' +BBoEMAQ/BDgEQgQ1BDsETAAA +BDgENwAA +BD8EQAQ+BD8EOARBBD0ESwRF lookup 36 subtable" t.sc
Substitution2: "'aalt' +BBIEQQQ1 +BDAEOwRMBEIENQRABD0EMARCBDgEMgQ9BEsENQAA +BDIEMARABDgEMAQ9BEIESwAA lookup 0 subtable" t.sc
EndChar

StartChar: U
Encoding: 55 85 56
Width: 717
GlyphClass: 2
Flags: W
AnchorPoint: "+BBEENQQ3BEsEPARPBD0EPQQ+BDUA--2" 703 714 basechar 0
AnchorPoint: "+BBEENQQ3BEsEPARPBD0EPQQ+BDUA--1" 379 714 basechar 0
AnchorPoint: "+BBEENQQ3BEsEPARPBD0EPQQ+BDUA--0" 359 0 basechar 0
LayerCount: 2
Fore
SplineSet
362 -10 m 0,0,1
 244 -10 244 -10 177 42 c 128,-1,2
 110 94 110 94 110 216 c 2,3,-1
 110 604 l 2,4,5
 110 648 110 648 85.5 660 c 128,-1,6
 61 672 61 672 28 672 c 2,7,-1
 15 672 l 1,8,-1
 15 714 l 1,9,-1
 306 714 l 1,10,-1
 306 672 l 1,11,-1
 293 672 l 2,12,13
 259 672 259 672 235 659.5 c 128,-1,14
 211 647 211 647 211 600 c 2,15,-1
 211 210 l 2,16,17
 211 123 211 123 258 86.5 c 128,-1,18
 305 50 305 50 378 50 c 0,19,20
 464 50 464 50 505 94 c 128,-1,21
 546 138 546 138 546 206 c 2,22,-1
 546 604 l 2,23,24
 546 648 546 648 521.5 660 c 128,-1,25
 497 672 497 672 464 672 c 2,26,-1
 451 672 l 1,27,-1
 451 714 l 1,28,-1
 702 714 l 1,29,-1
 702 672 l 1,30,-1
 689 672 l 2,31,32
 655 672 655 672 631 659.5 c 128,-1,33
 607 647 607 647 607 600 c 2,34,-1
 607 204 l 2,35,36
 607 104 607 104 544 47 c 128,-1,37
 481 -10 481 -10 362 -10 c 0,0,1
EndSplineSet
Substitution2: "'c2sc' +BBoEMAQ/BDgEQgQ1BDsETAAA +BDgENwAA +BD8EQAQ+BD8EOARBBD0ESwRF lookup 36 subtable" u.sc
Substitution2: "'aalt' +BBIEQQQ1 +BDAEOwRMBEIENQRABD0EMARCBDgEMgQ9BEsENQAA +BDIEMARABDgEMAQ9BEIESwAA lookup 0 subtable" u.sc
EndChar

StartChar: V
Encoding: 56 86 57
Width: 675
GlyphClass: 2
Flags: W
AnchorPoint: "+BBEENQQ3BEsEPARPBD0EPQQ+BDUA--2" 655 714 basechar 0
AnchorPoint: "+BBEENQQ3BEsEPARPBD0EPQQ+BDUA--1" 348 714 basechar 0
AnchorPoint: "+BBEENQQ3BEsEPARPBD0EPQQ+BDUA--0" 338 0 basechar 0
LayerCount: 2
Fore
SplineSet
84 619 m 2,0,1
 74 651 74 651 58 661.5 c 128,-1,2
 42 672 42 672 13 672 c 2,3,-1
 0 672 l 1,4,-1
 0 714 l 1,5,-1
 275 714 l 1,6,-1
 275 672 l 1,7,-1
 252 672 l 2,8,9
 192 672 192 672 192 624 c 0,10,11
 192 616 192 616 194 607 c 128,-1,12
 196 598 196 598 200 587 c 2,13,-1
 310 262 l 2,14,15
 325 218 325 218 336 176 c 128,-1,16
 347 134 347 134 355 98 c 1,17,18
 363 134 363 134 374 175 c 128,-1,19
 385 216 385 216 401 262 c 2,20,-1
 511 580 l 2,21,22
 515 592 515 592 517.5 603.5 c 128,-1,23
 520 615 520 615 520 623 c 0,24,25
 520 672 520 672 454 672 c 2,26,-1
 431 672 l 1,27,-1
 431 714 l 1,28,-1
 675 714 l 1,29,-1
 675 672 l 1,30,-1
 656 672 l 2,31,32
 627 672 627 672 612 657.5 c 128,-1,33
 597 643 597 643 580 594 c 2,34,-1
 373 0 l 1,35,-1
 300 0 l 1,36,-1
 84 619 l 2,0,1
EndSplineSet
Substitution2: "'c2sc' +BBoEMAQ/BDgEQgQ1BDsETAAA +BDgENwAA +BD8EQAQ+BD8EOARBBD0ESwRF lookup 36 subtable" v.sc
Substitution2: "'aalt' +BBIEQQQ1 +BDAEOwRMBEIENQRABD0EMARCBDgEMgQ9BEsENQAA +BDIEMARABDgEMAQ9BEIESwAA lookup 0 subtable" v.sc
EndChar

StartChar: W
Encoding: 57 87 58
Width: 1047
GlyphClass: 2
Flags: W
AnchorPoint: "+BBEENQQ3BEsEPARPBD0EPQQ+BDUA--2" 1027 714 basechar 0
AnchorPoint: "+BBEENQQ3BEsEPARPBD0EPQQ+BDUA--1" 540 714 basechar 0
AnchorPoint: "+BBEENQQ3BEsEPARPBD0EPQQ+BDUA--0" 524 0 basechar 0
LayerCount: 2
Fore
SplineSet
93 619 m 2,0,1
 83 651 83 651 67 661.5 c 128,-1,2
 51 672 51 672 22 672 c 2,3,-1
 9 672 l 1,4,-1
 9 714 l 1,5,-1
 284 714 l 1,6,-1
 284 672 l 1,7,-1
 261 672 l 2,8,9
 201 672 201 672 201 624 c 0,10,11
 201 616 201 616 203.5 607 c 128,-1,12
 206 598 206 598 209 587 c 2,13,-1
 301 267 l 2,14,15
 314 222 314 222 325 178 c 128,-1,16
 336 134 336 134 344 98 c 1,17,18
 352 137 352 137 362 183.5 c 128,-1,19
 372 230 372 230 385 278 c 2,20,-1
 504 707 l 1,21,-1
 576 707 l 1,22,-1
 701 274 l 2,23,24
 715 225 715 225 726 179 c 128,-1,25
 737 133 737 133 744 98 c 1,26,27
 752 134 752 134 761.5 174 c 128,-1,28
 771 214 771 214 784 262 c 2,29,-1
 872 571 l 2,30,31
 875 583 875 583 879 599 c 128,-1,32
 883 615 883 615 883 623 c 0,33,34
 883 672 883 672 817 672 c 2,35,-1
 794 672 l 1,36,-1
 794 714 l 1,37,-1
 1038 714 l 1,38,-1
 1038 672 l 1,39,-1
 1019 672 l 2,40,41
 990 672 990 672 973.5 658 c 128,-1,42
 957 644 957 644 943 594 c 2,43,-1
 774 0 l 1,44,-1
 684 0 l 1,45,-1
 521 560 l 1,46,-1
 368 0 l 1,47,-1
 276 0 l 1,48,-1
 93 619 l 2,0,1
EndSplineSet
Substitution2: "'c2sc' +BBoEMAQ/BDgEQgQ1BDsETAAA +BDgENwAA +BD8EQAQ+BD8EOARBBD0ESwRF lookup 36 subtable" w.sc
Substitution2: "'aalt' +BBIEQQQ1 +BDAEOwRMBEIENQRABD0EMARCBDgEMgQ9BEsENQAA +BDIEMARABDgEMAQ9BEIESwAA lookup 0 subtable" w.sc
EndChar

StartChar: X
Encoding: 58 88 59
Width: 660
GlyphClass: 2
Flags: W
AnchorPoint: "+BBEENQQ3BEsEPARPBD0EPQQ+BDUA--2" 640 714 basechar 0
AnchorPoint: "+BBEENQQ3BEsEPARPBD0EPQQ+BDUA--1" 330 714 basechar 0
AnchorPoint: "+BBEENQQ3BEsEPARPBD0EPQQ+BDUA--0" 330 0 basechar 0
LayerCount: 2
Fore
SplineSet
8 0 m 1,0,-1
 8 42 l 1,1,-1
 14 42 l 2,2,3
 50 42 50 42 70.5 57.5 c 128,-1,4
 91 73 91 73 118 112 c 2,5,-1
 285 351 l 1,6,-1
 120 619 l 2,7,8
 102 648 102 648 79.5 660 c 128,-1,9
 57 672 57 672 34 672 c 2,10,-1
 21 672 l 1,11,-1
 21 714 l 1,12,-1
 292 714 l 1,13,-1
 292 672 l 1,14,-1
 289 672 l 2,15,16
 255 672 255 672 243.5 663.5 c 128,-1,17
 232 655 232 655 232 643 c 0,18,19
 232 633 232 633 236 621.5 c 128,-1,20
 240 610 240 610 256 584 c 2,21,-1
 346 438 l 1,22,-1
 441 582 l 2,23,24
 452 599 452 599 459 614.5 c 128,-1,25
 466 630 466 630 466 643 c 0,26,27
 466 661 466 661 450.5 666.5 c 128,-1,28
 435 672 435 672 412 672 c 2,29,-1
 409 672 l 1,30,-1
 409 714 l 1,31,-1
 628 714 l 1,32,-1
 628 672 l 1,33,-1
 619 672 l 2,34,35
 590 672 590 672 569.5 656.5 c 128,-1,36
 549 641 549 641 520 600 c 2,37,-1
 375 391 l 1,38,-1
 559 95 l 2,39,40
 581 66 581 66 600.5 54 c 128,-1,41
 620 42 620 42 639 42 c 2,42,-1
 652 42 l 1,43,-1
 652 0 l 1,44,-1
 382 0 l 1,45,-1
 382 42 l 1,46,-1
 387 42 l 2,47,48
 447 42 447 42 447 75 c 0,49,50
 447 86 447 86 441 98.5 c 128,-1,51
 435 111 435 111 414 144 c 2,52,-1
 315 303 l 1,53,-1
 204 139 l 2,54,55
 196 126 196 126 187 107.5 c 128,-1,56
 178 89 178 89 178 73 c 0,57,58
 178 42 178 42 243 42 c 2,59,-1
 246 42 l 1,60,-1
 246 0 l 1,61,-1
 8 0 l 1,0,-1
EndSplineSet
Substitution2: "'c2sc' +BBoEMAQ/BDgEQgQ1BDsETAAA +BDgENwAA +BD8EQAQ+BD8EOARBBD0ESwRF lookup 36 subtable" x.sc
Substitution2: "'aalt' +BBIEQQQ1 +BDAEOwRMBEIENQRABD0EMARCBDgEMgQ9BEsENQAA +BDIEMARABDgEMAQ9BEIESwAA lookup 0 subtable" x.sc
EndChar

StartChar: Y
Encoding: 59 89 60
Width: 625
GlyphClass: 2
Flags: W
AnchorPoint: "+BBEENQQ3BEsEPARPBD0EPQQ+BDUA--2" 605 714 basechar 0
AnchorPoint: "+BBEENQQ3BEsEPARPBD0EPQQ+BDUA--1" 313 714 basechar 0
AnchorPoint: "+BBEENQQ3BEsEPARPBD0EPQQ+BDUA--0" 313 0 basechar 0
LayerCount: 2
Fore
SplineSet
159 0 m 1,0,-1
 159 42 l 1,1,-1
 182 42 l 2,2,3
 215 42 215 42 239.5 53.5 c 128,-1,4
 264 65 264 65 264 109 c 2,5,-1
 264 298 l 1,6,-1
 79 619 l 2,7,8
 63 648 63 648 48.5 660 c 128,-1,9
 34 672 34 672 8 672 c 2,10,-1
 -5 672 l 1,11,-1
 -5 714 l 1,12,-1
 270 714 l 1,13,-1
 270 672 l 1,14,-1
 233 672 l 2,15,16
 206 672 206 672 197.5 662.5 c 128,-1,17
 189 653 189 653 189 640 c 0,18,19
 189 626 189 626 195 612 c 128,-1,20
 201 598 201 598 207 587 c 2,21,-1
 281 453 l 2,22,23
 298 422 298 422 310.5 392 c 128,-1,24
 323 362 323 362 331 339 c 1,25,26
 340 360 340 360 357 391 c 128,-1,27
 374 422 374 422 391 453 c 2,28,-1
 455 568 l 2,29,30
 465 585 465 585 469 600.5 c 128,-1,31
 473 616 473 616 473 628 c 0,32,33
 473 672 473 672 413 672 c 2,34,-1
 384 672 l 1,35,-1
 384 714 l 1,36,-1
 628 714 l 1,37,-1
 628 672 l 1,38,-1
 616 672 l 2,39,40
 595 672 595 672 577 655.5 c 128,-1,41
 559 639 559 639 533 594 c 2,42,-1
 365 298 l 1,43,-1
 365 114 l 2,44,45
 365 67 365 67 389 54.5 c 128,-1,46
 413 42 413 42 447 42 c 2,47,-1
 470 42 l 1,48,-1
 470 0 l 1,49,-1
 159 0 l 1,0,-1
EndSplineSet
Substitution2: "'c2sc' +BBoEMAQ/BDgEQgQ1BDsETAAA +BDgENwAA +BD8EQAQ+BD8EOARBBD0ESwRF lookup 36 subtable" y.sc
Substitution2: "'aalt' +BBIEQQQ1 +BDAEOwRMBEIENQRABD0EMARCBDgEMgQ9BEsENQAA +BDIEMARABDgEMAQ9BEIESwAA lookup 0 subtable" y.sc
EndChar

StartChar: Z
Encoding: 60 90 61
Width: 592
GlyphClass: 2
Flags: W
AnchorPoint: "+BBEENQQ3BEsEPARPBD0EPQQ+BDUA--2" 572 714 basechar 0
AnchorPoint: "+BBEENQQ3BEsEPARPBD0EPQQ+BDUA--1" 296 714 basechar 0
AnchorPoint: "+BBEENQQ3BEsEPARPBD0EPQQ+BDUA--0" 296 0 basechar 0
LayerCount: 2
Fore
SplineSet
36 0 m 1,0,-1
 36 40 l 1,1,-1
 411 664 l 1,2,-1
 194 664 l 2,3,4
 150 664 150 664 133 639.5 c 128,-1,5
 116 615 116 615 112 582 c 2,6,-1
 107 539 l 1,7,-1
 55 539 l 1,8,-1
 60 714 l 1,9,-1
 534 714 l 1,10,-1
 534 673 l 1,11,-1
 158 50 l 1,12,-1
 410 50 l 2,13,14
 455 50 455 50 472 74.5 c 128,-1,15
 489 99 489 99 493 132 c 2,16,-1
 498 175 l 1,17,-1
 550 175 l 1,18,-1
 545 0 l 1,19,-1
 36 0 l 1,0,-1
EndSplineSet
Substitution2: "'c2sc' +BBoEMAQ/BDgEQgQ1BDsETAAA +BDgENwAA +BD8EQAQ+BD8EOARBBD0ESwRF lookup 36 subtable" z.sc
Substitution2: "'aalt' +BBIEQQQ1 +BDAEOwRMBEIENQRABD0EMARCBDgEMgQ9BEsENQAA +BDIEMARABDgEMAQ9BEIESwAA lookup 0 subtable" z.sc
EndChar

StartChar: bracketleft
Encoding: 61 91 62
Width: 360
Flags: W
LayerCount: 2
Fore
SplineSet
100 -128 m 1,0,-1
 100 760 l 1,1,-1
 323 760 l 1,2,-1
 323 718 l 1,3,-1
 280 718 l 2,4,5
 246 718 246 718 222 705.5 c 128,-1,6
 198 693 198 693 198 646 c 2,7,-1
 198 -14 l 2,8,9
 198 -61 198 -61 222 -73.5 c 128,-1,10
 246 -86 246 -86 280 -86 c 2,11,-1
 323 -86 l 1,12,-1
 323 -128 l 1,13,-1
 100 -128 l 1,0,-1
EndSplineSet
Substitution2: "'smcp' Lowercase to Small Capitals lookup 37 subtable" bracketleft.sc
Substitution2: "'c2sc' +BBoEMAQ/BDgEQgQ1BDsETAAA +BDgENwAA +BD8EQAQ+BD8EOARBBD0ESwRF lookup 36 subtable" bracketleft.sc
Substitution2: "'aalt' +BBIEQQQ1 +BDAEOwRMBEIENQRABD0EMARCBDgEMgQ9BEsENQAA +BDIEMARABDgEMAQ9BEIESwAA lookup 0 subtable" bracketleft.sc
EndChar

StartChar: backslash
Encoding: 62 92 63
Width: 288
Flags: W
LayerCount: 2
Fore
SplineSet
229 -121 m 1,0,-1
 0 760 l 1,1,-1
 58 760 l 1,2,-1
 288 -121 l 1,3,-1
 229 -121 l 1,0,-1
EndSplineSet
EndChar

StartChar: bracketright
Encoding: 63 93 64
Width: 360
Flags: W
LayerCount: 2
Fore
SplineSet
37 -128 m 1,0,-1
 37 -86 l 1,1,-1
 80 -86 l 2,2,3
 114 -86 114 -86 138 -73.5 c 128,-1,4
 162 -61 162 -61 162 -14 c 2,5,-1
 162 646 l 2,6,7
 162 693 162 693 138 705.5 c 128,-1,8
 114 718 114 718 80 718 c 2,9,-1
 37 718 l 1,10,-1
 37 760 l 1,11,-1
 260 760 l 1,12,-1
 260 -128 l 1,13,-1
 37 -128 l 1,0,-1
EndSplineSet
Substitution2: "'smcp' Lowercase to Small Capitals lookup 37 subtable" bracketright.sc
Substitution2: "'c2sc' +BBoEMAQ/BDgEQgQ1BDsETAAA +BDgENwAA +BD8EQAQ+BD8EOARBBD0ESwRF lookup 36 subtable" bracketright.sc
Substitution2: "'aalt' +BBIEQQQ1 +BDAEOwRMBEIENQRABD0EMARCBDgEMgQ9BEsENQAA +BDIEMARABDgEMAQ9BEIESwAA lookup 0 subtable" bracketright.sc
EndChar

StartChar: asciicircum
Encoding: 64 94 65
Width: 559
Flags: W
LayerCount: 2
Fore
SplineSet
51 266 m 1,0,-1
 261 714 l 1,1,-1
 296 714 l 1,2,-1
 507 266 l 1,3,-1
 440 266 l 1,4,-1
 278 622 l 1,5,-1
 118 266 l 1,6,-1
 51 266 l 1,0,-1
EndSplineSet
EndChar

StartChar: underscore
Encoding: 65 95 66
Width: 459
Flags: W
LayerCount: 2
Fore
SplineSet
-5 -142 m 1,0,-1
 -5 -83 l 1,1,-1
 464 -83 l 1,2,-1
 464 -142 l 1,3,-1
 -5 -142 l 1,0,-1
EndSplineSet
EndChar

StartChar: grave
Encoding: 66 96 67
Width: 274
Flags: W
LayerCount: 2
Fore
SplineSet
196 606 m 1,0,1
 170 624 170 624 138 652.5 c 128,-1,2
 106 681 106 681 79.5 710 c 128,-1,3
 53 739 53 739 40 756 c 1,4,-1
 40 766 l 1,5,-1
 147 766 l 1,6,7
 163 732 163 732 187.5 690 c 128,-1,8
 212 648 212 648 234 619 c 1,9,-1
 234 606 l 1,10,-1
 196 606 l 1,0,1
EndSplineSet
EndChar

StartChar: a
Encoding: 67 97 68
Width: 563
GlyphClass: 2
Flags: W
AnchorPoint: "+BBEENQQ3BEsEPARPBD0EPQQ+BDUA--2" 543 536 basechar 0
AnchorPoint: "+BBEENQQ3BEsEPARPBD0EPQQ+BDUA--1" 282 536 basechar 0
AnchorPoint: "+BBEENQQ3BEsEPARPBD0EPQQ+BDUA--0" 438 0 basechar 0
LayerCount: 2
Fore
SplineSet
205 -10 m 0,0,1
 138 -10 138 -10 94 29 c 128,-1,2
 50 68 50 68 50 150 c 0,3,4
 50 230 50 230 106.5 268 c 128,-1,5
 163 306 163 306 278 310 c 2,6,-1
 361 313 l 1,7,-1
 361 373 l 2,8,9
 361 409 361 409 355 436.5 c 128,-1,10
 349 464 349 464 329 480 c 128,-1,11
 309 496 309 496 268 496 c 0,12,13
 230 496 230 496 210 482 c 128,-1,14
 190 468 190 468 183.5 443.5 c 128,-1,15
 177 419 177 419 177 387 c 1,16,17
 135 387 135 387 113.5 401.5 c 128,-1,18
 92 416 92 416 92 450 c 0,19,20
 92 485 92 485 116.5 506 c 128,-1,21
 141 527 141 527 182 536.5 c 128,-1,22
 223 546 223 546 272 546 c 0,23,24
 364 546 364 546 409.5 507 c 128,-1,25
 455 468 455 468 455 373 c 2,26,-1
 455 114 l 2,27,28
 455 72 455 72 469 57 c 128,-1,29
 483 42 483 42 517 42 c 2,30,-1
 520 42 l 1,31,-1
 520 0 l 1,32,-1
 385 0 l 1,33,-1
 369 86 l 1,34,-1
 361 86 l 1,35,36
 340 58 340 58 320 36.5 c 128,-1,37
 300 15 300 15 273.5 2.5 c 128,-1,38
 247 -10 247 -10 205 -10 c 0,0,1
228 52 m 0,39,40
 289 52 289 52 325 89.5 c 128,-1,41
 361 127 361 127 361 191 c 2,42,-1
 361 272 l 1,43,-1
 297 269 l 2,44,45
 212 265 212 265 179.5 234.5 c 128,-1,46
 147 204 147 204 147 145 c 0,47,48
 147 52 147 52 228 52 c 0,39,40
EndSplineSet
Substitution2: "'smcp' Lowercase to Small Capitals lookup 37 subtable" a.sc
Substitution2: "Single Substitution lookup 31 subtable" ordfeminine
AlternateSubs2: "'aalt' +BBIEQQQ1 +BDAEOwRMBEIENQRABD0EMARCBDgEMgQ9BEsENQAA +BDIEMARABDgEMAQ9BEIESwAA lookup 1 subtable" ordfeminine a.sc
EndChar

StartChar: b
Encoding: 68 98 69
Width: 614
GlyphClass: 2
Flags: W
AnchorPoint: "+BBEENQQ3BEsEPARPBD0EPQQ+BDUA--2" 574 760 basechar 0
AnchorPoint: "+BBEENQQ3BEsEPARPBD0EPQQ+BDUA--1" 153 760 basechar 0
AnchorPoint: "+BBEENQQ3BEsEPARPBD0EPQQ+BDUA--0" 307 0 basechar 0
LayerCount: 2
Fore
SplineSet
355 -10 m 0,0,1
 297 -10 297 -10 260.5 14.5 c 128,-1,2
 224 39 224 39 202 78 c 1,3,-1
 196 78 l 1,4,-1
 178 0 l 1,5,-1
 18 0 l 1,6,-1
 18 42 l 1,7,-1
 26 42 l 2,8,9
 60 42 60 42 84 54.5 c 128,-1,10
 108 67 108 67 108 114 c 2,11,-1
 108 650 l 2,12,13
 108 694 108 694 83.5 706 c 128,-1,14
 59 718 59 718 26 718 c 2,15,-1
 18 718 l 1,16,-1
 18 760 l 1,17,-1
 202 760 l 1,18,-1
 202 576 l 2,19,20
 202 559 202 559 201.5 532.5 c 128,-1,21
 201 506 201 506 200 481.5 c 128,-1,22
 199 457 199 457 198 446 c 1,23,-1
 202 446 l 1,24,25
 225 492 225 492 261 519 c 128,-1,26
 297 546 297 546 355 546 c 0,27,28
 454 546 454 546 506.5 479.5 c 128,-1,29
 559 413 559 413 559 269 c 0,30,31
 559 124 559 124 506.5 57 c 128,-1,32
 454 -10 454 -10 355 -10 c 0,0,1
339 54 m 0,33,34
 405 54 405 54 433.5 109.5 c 128,-1,35
 462 165 462 165 462 270 c 0,36,37
 462 377 462 377 433.5 429.5 c 128,-1,38
 405 482 405 482 338 482 c 0,39,40
 260 482 260 482 231 429.5 c 128,-1,41
 202 377 202 377 202 269 c 0,42,43
 202 165 202 165 231 109.5 c 128,-1,44
 260 54 260 54 339 54 c 0,33,34
EndSplineSet
Substitution2: "'smcp' Lowercase to Small Capitals lookup 37 subtable" b.sc
Substitution2: "'aalt' +BBIEQQQ1 +BDAEOwRMBEIENQRABD0EMARCBDgEMgQ9BEsENQAA +BDIEMARABDgEMAQ9BEIESwAA lookup 0 subtable" b.sc
EndChar

StartChar: c
Encoding: 69 99 70
Width: 492
GlyphClass: 2
Flags: W
AnchorPoint: "+BBEENQQ3BEsEPARPBD0EPQQ+BDUA--2" 472 536 basechar 0
AnchorPoint: "+BBEENQQ3BEsEPARPBD0EPQQ+BDUA--1" 279 536 basechar 0
AnchorPoint: "+BBEENQQ3BEsEPARPBD0EPQQ+BDUA--0" 266 0 basechar 0
LayerCount: 2
Fore
SplineSet
283 -10 m 0,0,1
 217 -10 217 -10 165.5 18 c 128,-1,2
 114 46 114 46 84.5 106.5 c 128,-1,3
 55 167 55 167 55 265 c 0,4,5
 55 372 55 372 84.5 433.5 c 128,-1,6
 114 495 114 495 164.5 520.5 c 128,-1,7
 215 546 215 546 278 546 c 0,8,9
 320 546 320 546 360 535 c 128,-1,10
 400 524 400 524 426 501.5 c 128,-1,11
 452 479 452 479 452 444 c 0,12,13
 452 410 452 410 429.5 395.5 c 128,-1,14
 407 381 407 381 363 381 c 1,15,16
 363 428 363 428 345.5 462 c 128,-1,17
 328 496 328 496 278 496 c 0,18,19
 240 496 240 496 211.5 476 c 128,-1,20
 183 456 183 456 167.5 406 c 128,-1,21
 152 356 152 356 152 266 c 0,22,23
 152 160 152 160 187.5 107.5 c 128,-1,24
 223 55 223 55 303 55 c 0,25,26
 350 55 350 55 384.5 74.5 c 128,-1,27
 419 94 419 94 436 125 c 1,28,29
 453 111 453 111 453 86 c 0,30,31
 453 63 453 63 434 41 c 128,-1,32
 415 19 415 19 377.5 4.5 c 128,-1,33
 340 -10 340 -10 283 -10 c 0,0,1
EndSplineSet
Substitution2: "'smcp' Lowercase to Small Capitals lookup 37 subtable" c.sc
Substitution2: "'aalt' +BBIEQQQ1 +BDAEOwRMBEIENQRABD0EMARCBDgEMgQ9BEsENQAA +BDIEMARABDgEMAQ9BEIESwAA lookup 0 subtable" c.sc
EndChar

StartChar: d
Encoding: 70 100 71
Width: 614
GlyphClass: 2
Flags: W
AnchorPoint: "+BBEENQQ3BEsEPARPBD0EPQQ+BDUA--3" 307 268 basechar 0
AnchorPoint: "+BBEENQQ3BEsEPARPBD0EPQQ+BDUA--2" 574 760 basechar 0
AnchorPoint: "+BBEENQQ3BEsEPARPBD0EPQQ+BDUA--1" 447 760 basechar 0
AnchorPoint: "+BBEENQQ3BEsEPARPBD0EPQQ+BDUA--0" 307 0 basechar 0
LayerCount: 2
Fore
SplineSet
259 -10 m 0,0,1
 160 -10 160 -10 107.5 56.5 c 128,-1,2
 55 123 55 123 55 267 c 0,3,4
 55 412 55 412 107.5 479 c 128,-1,5
 160 546 160 546 259 546 c 0,6,7
 317 546 317 546 353.5 521.5 c 128,-1,8
 390 497 390 497 412 458 c 1,9,-1
 418 458 l 1,10,11
 415 483 415 483 413.5 513.5 c 128,-1,12
 412 544 412 544 412 568 c 2,13,-1
 412 650 l 2,14,15
 412 694 412 694 387.5 706 c 128,-1,16
 363 718 363 718 330 718 c 2,17,-1
 322 718 l 1,18,-1
 322 760 l 1,19,-1
 506 760 l 1,20,-1
 506 110 l 2,21,22
 506 66 506 66 530.5 54 c 128,-1,23
 555 42 555 42 588 42 c 2,24,-1
 596 42 l 1,25,-1
 596 0 l 1,26,-1
 427 0 l 1,27,-1
 416 90 l 1,28,-1
 412 90 l 1,29,30
 390 44 390 44 354 17 c 128,-1,31
 318 -10 318 -10 259 -10 c 0,0,1
276 54 m 0,32,33
 354 54 354 54 383 106.5 c 128,-1,34
 412 159 412 159 412 267 c 0,35,36
 412 371 412 371 383 426.5 c 128,-1,37
 354 482 354 482 275 482 c 0,38,39
 209 482 209 482 180.5 426.5 c 128,-1,40
 152 371 152 371 152 266 c 0,41,42
 152 160 152 160 180.5 107 c 128,-1,43
 209 54 209 54 276 54 c 0,32,33
EndSplineSet
Substitution2: "'smcp' Lowercase to Small Capitals lookup 37 subtable" d.sc
Substitution2: "'aalt' +BBIEQQQ1 +BDAEOwRMBEIENQRABD0EMARCBDgEMgQ9BEsENQAA +BDIEMARABDgEMAQ9BEIESwAA lookup 0 subtable" d.sc
EndChar

StartChar: e
Encoding: 71 101 72
Width: 535
GlyphClass: 2
Flags: W
AnchorPoint: "+BBEENQQ3BEsEPARPBD0EPQQ+BDUA--2" 515 536 basechar 0
AnchorPoint: "+BBEENQQ3BEsEPARPBD0EPQQ+BDUA--1" 278 536 basechar 0
AnchorPoint: "+BBEENQQ3BEsEPARPBD0EPQQ+BDUA--0" 278 0 basechar 0
LayerCount: 2
Fore
SplineSet
287 -10 m 0,0,1
 178 -10 178 -10 116.5 62 c 128,-1,2
 55 134 55 134 55 264 c 0,3,4
 55 404 55 404 113 475 c 128,-1,5
 171 546 171 546 277 546 c 0,6,7
 374 546 374 546 429.5 486 c 128,-1,8
 485 426 485 426 485 307 c 2,9,-1
 485 261 l 1,10,-1
 152 261 l 1,11,12
 154 152 154 152 191.5 102.5 c 128,-1,13
 229 53 229 53 301 53 c 0,14,15
 353 53 353 53 389.5 74.5 c 128,-1,16
 426 96 426 96 444 123 c 1,17,18
 451 120 451 120 457 111 c 128,-1,19
 463 102 463 102 463 89 c 0,20,21
 463 69 463 69 444 46 c 128,-1,22
 425 23 425 23 386 6.5 c 128,-1,23
 347 -10 347 -10 287 -10 c 0,0,1
384 315 m 1,24,25
 384 395 384 395 359.5 443.5 c 128,-1,26
 335 492 335 492 275 492 c 0,27,28
 220 492 220 492 189.5 446.5 c 128,-1,29
 159 401 159 401 154 315 c 1,30,-1
 384 315 l 1,24,25
EndSplineSet
Substitution2: "'smcp' Lowercase to Small Capitals lookup 37 subtable" e.sc
Substitution2: "'aalt' +BBIEQQQ1 +BDAEOwRMBEIENQRABD0EMARCBDgEMgQ9BEsENQAA +BDIEMARABDgEMAQ9BEIESwAA lookup 0 subtable" e.sc
EndChar

StartChar: f
Encoding: 72 102 73
Width: 369
GlyphClass: 2
Flags: W
AnchorPoint: "+BBEENQQ3BEsEPARPBD0EPQQ+BDUA--2" 439 770 basechar 0
AnchorPoint: "+BBEENQQ3BEsEPARPBD0EPQQ+BDUA--1" 285 770 basechar 0
AnchorPoint: "+BBEENQQ3BEsEPARPBD0EPQQ+BDUA--0" 185 0 basechar 0
LayerCount: 2
Fore
SplineSet
27 0 m 1,0,-1
 27 42 l 1,1,-1
 40 42 l 2,2,3
 74 42 74 42 98 54.5 c 128,-1,4
 122 67 122 67 122 114 c 2,5,-1
 122 489 l 1,6,-1
 31 489 l 1,7,-1
 31 536 l 1,8,-1
 122 536 l 1,9,-1
 122 586 l 2,10,11
 122 675 122 675 169.5 722.5 c 128,-1,12
 217 770 217 770 299 770 c 0,13,14
 377 770 377 770 408 750.5 c 128,-1,15
 439 731 439 731 439 700 c 0,16,17
 439 673 439 673 416 658.5 c 128,-1,18
 393 644 393 644 357 644 c 1,19,20
 357 674 357 674 343 699 c 128,-1,21
 329 724 329 724 291 724 c 0,22,23
 248 724 248 724 232 691 c 128,-1,24
 216 658 216 658 216 595 c 2,25,-1
 216 536 l 1,26,-1
 357 536 l 1,27,-1
 357 489 l 1,28,-1
 216 489 l 1,29,-1
 216 114 l 2,30,31
 216 67 216 67 240 54.5 c 128,-1,32
 264 42 264 42 298 42 c 2,33,-1
 336 42 l 1,34,-1
 336 0 l 1,35,-1
 27 0 l 1,0,-1
EndSplineSet
Substitution2: "'smcp' Lowercase to Small Capitals lookup 37 subtable" f.sc
Substitution2: "'aalt' +BBIEQQQ1 +BDAEOwRMBEIENQRABD0EMARCBDgEMgQ9BEsENQAA +BDIEMARABDgEMAQ9BEIESwAA lookup 0 subtable" f.sc
EndChar

StartChar: g
Encoding: 73 103 74
Width: 538
GlyphClass: 2
Flags: W
AnchorPoint: "+BBEENQQ3BEsEPARPBD0EPQQ+BDUA--2" 518 536 basechar 0
AnchorPoint: "+BBEENQQ3BEsEPARPBD0EPQQ+BDUA--1" 258 536 basechar 0
AnchorPoint: "+BBEENQQ3BEsEPARPBD0EPQQ+BDUA--0" 258 -240 basechar 0
LayerCount: 2
Fore
SplineSet
231 -240 m 0,0,1
 127 -240 127 -240 75 -201.5 c 128,-1,2
 23 -163 23 -163 23 -94 c 0,3,4
 23 -35 23 -35 61 -5 c 128,-1,5
 99 25 99 25 148 34 c 1,6,7
 128 43 128 43 110.5 63.5 c 128,-1,8
 93 84 93 84 93 116 c 0,9,10
 93 146 93 146 108.5 168 c 128,-1,11
 124 190 124 190 158 210 c 1,12,13
 115 228 115 228 91.5 269.5 c 128,-1,14
 68 311 68 311 68 361 c 0,15,16
 68 447 68 447 115 496.5 c 128,-1,17
 162 546 162 546 256 546 c 0,18,19
 292 546 292 546 324 536 c 128,-1,20
 356 526 356 526 370 513 c 1,21,22
 384 529 384 529 409 548 c 128,-1,23
 434 567 434 567 467 567 c 0,24,25
 497 567 497 567 511.5 551.5 c 128,-1,26
 526 536 526 536 526 515 c 256,27,28
 526 494 526 494 513.5 478.5 c 128,-1,29
 501 463 501 463 473 463 c 1,30,31
 473 474 473 474 466.5 485.5 c 128,-1,32
 460 497 460 497 440 497 c 0,33,34
 417 497 417 497 397 485 c 1,35,36
 414 464 414 464 425 435.5 c 128,-1,37
 436 407 436 407 436 364 c 0,38,39
 436 290 436 290 391.5 241 c 128,-1,40
 347 192 347 192 256 192 c 0,41,42
 244 192 244 192 228.5 193.5 c 128,-1,43
 213 195 213 195 203 197 c 1,44,45
 184 187 184 187 170 172 c 128,-1,46
 156 157 156 157 156 134 c 0,47,48
 156 116 156 116 167.5 106 c 128,-1,49
 179 96 179 96 218 96 c 2,50,-1
 331 96 l 2,51,52
 420 96 420 96 458 54 c 128,-1,53
 496 12 496 12 496 -53 c 0,54,55
 496 -139 496 -139 431.5 -189.5 c 128,-1,56
 367 -240 367 -240 231 -240 c 0,0,1
253 240 m 0,57,58
 302 240 302 240 322 270 c 128,-1,59
 342 300 342 300 342 365 c 0,60,61
 342 433 342 433 321.5 465 c 128,-1,62
 301 497 301 497 252 497 c 0,63,64
 204 497 204 497 183 464 c 128,-1,65
 162 431 162 431 162 364 c 0,66,67
 162 300 162 300 183.5 270 c 128,-1,68
 205 240 205 240 253 240 c 0,57,58
233 -191 m 0,69,70
 305 -191 305 -191 344 -175.5 c 128,-1,71
 383 -160 383 -160 398.5 -132.5 c 128,-1,72
 414 -105 414 -105 414 -70 c 0,73,74
 414 -24 414 -24 388 -8.5 c 128,-1,75
 362 7 362 7 312 7 c 2,76,-1
 214 7 l 2,77,78
 186 7 186 7 161 -0.5 c 128,-1,79
 136 -8 136 -8 120 -28 c 128,-1,80
 104 -48 104 -48 104 -88 c 0,81,82
 104 -117 104 -117 115 -140.5 c 128,-1,83
 126 -164 126 -164 154 -177.5 c 128,-1,84
 182 -191 182 -191 233 -191 c 0,69,70
EndSplineSet
Substitution2: "'smcp' Lowercase to Small Capitals lookup 37 subtable" g.sc
Substitution2: "'aalt' +BBIEQQQ1 +BDAEOwRMBEIENQRABD0EMARCBDgEMgQ9BEsENQAA +BDIEMARABDgEMAQ9BEIESwAA lookup 0 subtable" g.sc
EndChar

StartChar: h
Encoding: 74 104 75
Width: 635
GlyphClass: 2
Flags: W
AnchorPoint: "+BBEENQQ3BEsEPARPBD0EPQQ+BDUA--3" 318 268 basechar 0
AnchorPoint: "+BBEENQQ3BEsEPARPBD0EPQQ+BDUA--2" 545 760 basechar 0
AnchorPoint: "+BBEENQQ3BEsEPARPBD0EPQQ+BDUA--1" 152 760 basechar 0
AnchorPoint: "+BBEENQQ3BEsEPARPBD0EPQQ+BDUA--0" 318 0 basechar 0
LayerCount: 2
Fore
SplineSet
18 0 m 1,0,-1
 18 42 l 1,1,-1
 26 42 l 2,2,3
 60 42 60 42 84 54.5 c 128,-1,4
 108 67 108 67 108 114 c 2,5,-1
 108 650 l 2,6,7
 108 694 108 694 83.5 706 c 128,-1,8
 59 718 59 718 26 718 c 2,9,-1
 18 718 l 1,10,-1
 18 760 l 1,11,-1
 202 760 l 1,12,-1
 202 540 l 2,13,14
 202 522 202 522 201 502.5 c 128,-1,15
 200 483 200 483 199 469 c 128,-1,16
 198 455 198 455 198 455 c 1,17,-1
 203 455 l 1,18,19
 249 546 249 546 350 546 c 0,20,21
 436 546 436 546 481.5 499.5 c 128,-1,22
 527 453 527 453 527 350 c 2,23,-1
 527 114 l 2,24,25
 527 67 527 67 548.5 54.5 c 128,-1,26
 570 42 570 42 604 42 c 2,27,-1
 607 42 l 1,28,-1
 607 0 l 1,29,-1
 433 0 l 1,30,-1
 433 345 l 2,31,32
 433 410 433 410 408.5 446 c 128,-1,33
 384 482 384 482 323 482 c 0,34,35
 261 482 261 482 231.5 438 c 128,-1,36
 202 394 202 394 202 320 c 2,37,-1
 202 109 l 2,38,39
 202 65 202 65 226.5 53.5 c 128,-1,40
 251 42 251 42 284 42 c 2,41,-1
 287 42 l 1,42,-1
 287 0 l 1,43,-1
 18 0 l 1,0,-1
EndSplineSet
Substitution2: "'smcp' Lowercase to Small Capitals lookup 37 subtable" h.sc
Substitution2: "'subs' +BB0EOAQ2BD0EOAQ5 +BDgEPQQ0BDUEOgRB lookup 20 subtable" uni2095
AlternateSubs2: "'aalt' +BBIEQQQ1 +BDAEOwRMBEIENQRABD0EMARCBDgEMgQ9BEsENQAA +BDIEMARABDgEMAQ9BEIESwAA lookup 1 subtable" h.sc uni2095
EndChar

StartChar: i
Encoding: 75 105 76
Width: 320
GlyphClass: 2
Flags: W
AnchorPoint: "+BBEENQQ3BEsEPARPBD0EPQQ+BDUA--2" 250 760 basechar 0
AnchorPoint: "+BBEENQQ3BEsEPARPBD0EPQQ+BDUA--1" 160 760 basechar 0
AnchorPoint: "+BBEENQQ3BEsEPARPBD0EPQQ+BDUA--0" 160 0 basechar 0
LayerCount: 2
Fore
SplineSet
161 636 m 0,0,1
 137 636 137 636 120.5 650 c 128,-1,2
 104 664 104 664 104 698 c 0,3,4
 104 733 104 733 120.5 746.5 c 128,-1,5
 137 760 137 760 161 760 c 0,6,7
 184 760 184 760 201 746.5 c 128,-1,8
 218 733 218 733 218 698 c 0,9,10
 218 664 218 664 201 650 c 128,-1,11
 184 636 184 636 161 636 c 0,0,1
23 0 m 1,12,-1
 23 42 l 1,13,-1
 36 42 l 2,14,15
 69 42 69 42 93.5 53.5 c 128,-1,16
 118 65 118 65 118 109 c 2,17,-1
 118 426 l 2,18,19
 118 470 118 470 93.5 482 c 128,-1,20
 69 494 69 494 36 494 c 2,21,-1
 33 494 l 1,22,-1
 33 536 l 1,23,-1
 212 536 l 1,24,-1
 212 114 l 2,25,26
 212 67 212 67 236 54.5 c 128,-1,27
 260 42 260 42 294 42 c 2,28,-1
 307 42 l 1,29,-1
 307 0 l 1,30,-1
 23 0 l 1,12,-1
EndSplineSet
Substitution2: "'smcp' Lowercase to Small Capitals lookup 37 subtable" i.sc
Substitution2: "Single Substitution lookup 5 subtable" dotlessi
Substitution2: "Single Substitution lookup 4 subtable" dotlessi
AlternateSubs2: "'aalt' +BBIEQQQ1 +BDAEOwRMBEIENQRABD0EMARCBDgEMgQ9BEsENQAA +BDIEMARABDgEMAQ9BEIESwAA lookup 1 subtable" dotlessi i.sc
EndChar

StartChar: j
Encoding: 76 106 77
Width: 300
GlyphClass: 2
Flags: W
AnchorPoint: "+BBEENQQ3BEsEPARPBD0EPQQ+BDUA--2" 240 760 basechar 0
AnchorPoint: "+BBEENQQ3BEsEPARPBD0EPQQ+BDUA--1" 152 760 basechar 0
AnchorPoint: "+BBEENQQ3BEsEPARPBD0EPQQ+BDUA--0" 82 -240 basechar 0
LayerCount: 2
Fore
SplineSet
151 636 m 0,0,1
 127 636 127 636 110.5 650 c 128,-1,2
 94 664 94 664 94 698 c 0,3,4
 94 733 94 733 110.5 746.5 c 128,-1,5
 127 760 127 760 151 760 c 0,6,7
 174 760 174 760 191 746.5 c 128,-1,8
 208 733 208 733 208 698 c 0,9,10
 208 664 208 664 191 650 c 128,-1,11
 174 636 174 636 151 636 c 0,0,1
-12 -240 m 1,12,-1
 -12 -193 l 1,13,-1
 -5 -193 l 2,14,15
 31 -193 31 -193 56.5 -176.5 c 128,-1,16
 82 -160 82 -160 95 -119.5 c 128,-1,17
 108 -79 108 -79 108 -9 c 2,18,-1
 108 426 l 2,19,20
 108 470 108 470 83.5 482 c 128,-1,21
 59 494 59 494 26 494 c 2,22,-1
 23 494 l 1,23,-1
 23 536 l 1,24,-1
 202 536 l 1,25,-1
 202 -8 l 2,26,27
 202 -97 202 -97 176.5 -148 c 128,-1,28
 151 -199 151 -199 106.5 -219.5 c 128,-1,29
 62 -240 62 -240 4 -240 c 2,30,-1
 -12 -240 l 1,12,-1
EndSplineSet
Substitution2: "'smcp' Lowercase to Small Capitals lookup 37 subtable" j.sc
Substitution2: "Single Substitution lookup 5 subtable" uni0237
Substitution2: "Single Substitution lookup 4 subtable" uni0237
AlternateSubs2: "'aalt' +BBIEQQQ1 +BDAEOwRMBEIENQRABD0EMARCBDgEMgQ9BEsENQAA +BDIEMARABDgEMAQ9BEIESwAA lookup 1 subtable" uni0237 j.sc
EndChar

StartChar: k
Encoding: 77 107 78
Width: 585
GlyphClass: 2
Flags: W
AnchorPoint: "+BBEENQQ3BEsEPARPBD0EPQQ+BDUA--2" 455 860 basechar 0
AnchorPoint: "+BBEENQQ3BEsEPARPBD0EPQQ+BDUA--1" 151 760 basechar 0
AnchorPoint: "+BBEENQQ3BEsEPARPBD0EPQQ+BDUA--0" 293 0 basechar 0
LayerCount: 2
Fore
SplineSet
18 0 m 1,0,-1
 18 42 l 1,1,-1
 26 42 l 2,2,3
 60 42 60 42 84 54.5 c 128,-1,4
 108 67 108 67 108 114 c 2,5,-1
 108 650 l 2,6,7
 108 694 108 694 83.5 706 c 128,-1,8
 59 718 59 718 26 718 c 2,9,-1
 18 718 l 1,10,-1
 18 760 l 1,11,-1
 202 760 l 1,12,-1
 202 374 l 2,13,14
 202 361 202 361 201.5 340 c 128,-1,15
 201 319 201 319 200 298 c 128,-1,16
 199 277 199 277 198.5 262.5 c 128,-1,17
 198 248 198 248 198 248 c 1,18,-1
 323 385 l 2,19,20
 355 421 355 421 366.5 440.5 c 128,-1,21
 378 460 378 460 378 474 c 0,22,23
 378 487 378 487 366 490.5 c 128,-1,24
 354 494 354 494 329 494 c 1,25,-1
 329 536 l 1,26,-1
 550 536 l 1,27,-1
 550 494 l 1,28,29
 516 494 516 494 482 469.5 c 128,-1,30
 448 445 448 445 409 401 c 2,31,-1
 339 322 l 1,32,-1
 472 124 l 2,33,34
 498 84 498 84 523.5 63 c 128,-1,35
 549 42 549 42 583 42 c 2,36,-1
 586 42 l 1,37,-1
 586 0 l 1,38,-1
 572 0 l 2,39,40
 529 0 529 0 500 3 c 128,-1,41
 471 6 471 6 451.5 15.5 c 128,-1,42
 432 25 432 25 414.5 44.5 c 128,-1,43
 397 64 397 64 376 97 c 2,44,-1
 276 254 l 1,45,-1
 202 199 l 1,46,-1
 202 109 l 2,47,48
 202 65 202 65 226.5 53.5 c 128,-1,49
 251 42 251 42 284 42 c 2,50,-1
 287 42 l 1,51,-1
 287 0 l 1,52,-1
 18 0 l 1,0,-1
EndSplineSet
Substitution2: "'smcp' Lowercase to Small Capitals lookup 37 subtable" k.sc
Substitution2: "'subs' +BB0EOAQ2BD0EOAQ5 +BDgEPQQ0BDUEOgRB lookup 20 subtable" uni2096
AlternateSubs2: "'aalt' +BBIEQQQ1 +BDAEOwRMBEIENQRABD0EMARCBDgEMgQ9BEsENQAA +BDIEMARABDgEMAQ9BEIESwAA lookup 1 subtable" k.sc uni2096
EndChar

StartChar: l
Encoding: 78 108 79
Width: 310
GlyphClass: 2
Flags: W
AnchorPoint: "+BBEENQQ3BEsEPARPBD0EPQQ+BDUA--3" 155 268 basechar 0
AnchorPoint: "+BBEENQQ3BEsEPARPBD0EPQQ+BDUA--2" 240 760 basechar 0
AnchorPoint: "+BBEENQQ3BEsEPARPBD0EPQQ+BDUA--1" 155 760 basechar 0
AnchorPoint: "+BBEENQQ3BEsEPARPBD0EPQQ+BDUA--0" 155 0 basechar 0
LayerCount: 2
Fore
SplineSet
13 0 m 1,0,-1
 13 42 l 1,1,-1
 26 42 l 2,2,3
 60 42 60 42 84 54.5 c 128,-1,4
 108 67 108 67 108 114 c 2,5,-1
 108 650 l 2,6,7
 108 694 108 694 83.5 706 c 128,-1,8
 59 718 59 718 26 718 c 2,9,-1
 13 718 l 1,10,-1
 13 760 l 1,11,-1
 202 760 l 1,12,-1
 202 114 l 2,13,14
 202 67 202 67 226 54.5 c 128,-1,15
 250 42 250 42 284 42 c 2,16,-1
 297 42 l 1,17,-1
 297 0 l 1,18,-1
 13 0 l 1,0,-1
EndSplineSet
Substitution2: "'smcp' Lowercase to Small Capitals lookup 37 subtable" l.sc
Substitution2: "'subs' +BB0EOAQ2BD0EOAQ5 +BDgEPQQ0BDUEOgRB lookup 20 subtable" uni2097
AlternateSubs2: "'aalt' +BBIEQQQ1 +BDAEOwRMBEIENQRABD0EMARCBDgEMgQ9BEsENQAA +BDIEMARABDgEMAQ9BEIESwAA lookup 1 subtable" l.sc uni2097
EndChar

StartChar: m
Encoding: 79 109 80
Width: 945
GlyphClass: 2
Flags: W
AnchorPoint: "+BBEENQQ3BEsEPARPBD0EPQQ+BDUA--2" 895 536 basechar 0
AnchorPoint: "+BBEENQQ3BEsEPARPBD0EPQQ+BDUA--1" 491 536 basechar 0
AnchorPoint: "+BBEENQQ3BEsEPARPBD0EPQQ+BDUA--0" 512 0 basechar 0
LayerCount: 2
Fore
SplineSet
28 0 m 1,0,-1
 28 42 l 1,1,-1
 41 42 l 2,2,3
 75 42 75 42 96.5 54.5 c 128,-1,4
 118 67 118 67 118 114 c 2,5,-1
 118 426 l 2,6,7
 118 470 118 470 96 482 c 128,-1,8
 74 494 74 494 41 494 c 2,9,-1
 38 494 l 1,10,-1
 38 536 l 1,11,-1
 195 536 l 1,12,-1
 208 455 l 1,13,-1
 213 455 l 1,14,15
 243 511 243 511 280.5 528.5 c 128,-1,16
 318 546 318 546 364 546 c 0,17,18
 412 546 412 546 451 525.5 c 128,-1,19
 490 505 490 505 509 455 c 1,20,-1
 517 455 l 1,21,22
 547 511 547 511 587.5 528.5 c 128,-1,23
 628 546 628 546 674 546 c 0,24,25
 751 546 751 546 794 499.5 c 128,-1,26
 837 453 837 453 837 350 c 2,27,-1
 837 114 l 2,28,29
 837 67 837 67 858.5 54.5 c 128,-1,30
 880 42 880 42 914 42 c 2,31,-1
 917 42 l 1,32,-1
 917 0 l 1,33,-1
 743 0 l 1,34,-1
 743 345 l 2,35,36
 743 410 743 410 719.5 446 c 128,-1,37
 696 482 696 482 638 482 c 0,38,39
 597 482 597 482 572.5 461.5 c 128,-1,40
 548 441 548 441 537.5 407 c 128,-1,41
 527 373 527 373 527 333 c 2,42,-1
 527 114 l 2,43,44
 527 67 527 67 548.5 54.5 c 128,-1,45
 570 42 570 42 604 42 c 2,46,-1
 607 42 l 1,47,-1
 607 0 l 1,48,-1
 433 0 l 1,49,-1
 433 345 l 2,50,51
 433 410 433 410 409.5 446 c 128,-1,52
 386 482 386 482 328 482 c 0,53,54
 285 482 285 482 259.5 459.5 c 128,-1,55
 234 437 234 437 223 400 c 128,-1,56
 212 363 212 363 212 320 c 2,57,-1
 212 109 l 2,58,59
 212 65 212 65 236.5 53.5 c 128,-1,60
 261 42 261 42 294 42 c 2,61,-1
 297 42 l 1,62,-1
 297 0 l 1,63,-1
 28 0 l 1,0,-1
EndSplineSet
Substitution2: "'smcp' Lowercase to Small Capitals lookup 37 subtable" m.sc
Substitution2: "'subs' +BB0EOAQ2BD0EOAQ5 +BDgEPQQ0BDUEOgRB lookup 20 subtable" uni2098
AlternateSubs2: "'aalt' +BBIEQQQ1 +BDAEOwRMBEIENQRABD0EMARCBDgEMgQ9BEsENQAA +BDIEMARABDgEMAQ9BEIESwAA lookup 1 subtable" m.sc uni2098
EndChar

StartChar: n
Encoding: 80 110 81
Width: 645
GlyphClass: 2
Flags: W
AnchorPoint: "+BBEENQQ3BEsEPARPBD0EPQQ+BDUA--2" 585 536 basechar 0
AnchorPoint: "+BBEENQQ3BEsEPARPBD0EPQQ+BDUA--1" 344 536 basechar 0
AnchorPoint: "+BBEENQQ3BEsEPARPBD0EPQQ+BDUA--0" 344 0 basechar 0
LayerCount: 2
Fore
SplineSet
28 0 m 1,0,-1
 28 42 l 1,1,-1
 36 42 l 2,2,3
 70 42 70 42 94 54.5 c 128,-1,4
 118 67 118 67 118 114 c 2,5,-1
 118 426 l 2,6,7
 118 470 118 470 94.5 482 c 128,-1,8
 71 494 71 494 38 494 c 2,9,-1
 33 494 l 1,10,-1
 33 536 l 1,11,-1
 195 536 l 1,12,-1
 208 455 l 1,13,-1
 213 455 l 1,14,15
 244 511 244 511 282.5 528.5 c 128,-1,16
 321 546 321 546 369 546 c 0,17,18
 448 546 448 546 492.5 499.5 c 128,-1,19
 537 453 537 453 537 350 c 2,20,-1
 537 114 l 2,21,22
 537 67 537 67 557.5 54.5 c 128,-1,23
 578 42 578 42 612 42 c 2,24,-1
 617 42 l 1,25,-1
 617 0 l 1,26,-1
 443 0 l 1,27,-1
 443 345 l 2,28,29
 443 410 443 410 418.5 446 c 128,-1,30
 394 482 394 482 333 482 c 0,31,32
 288 482 288 482 261.5 459.5 c 128,-1,33
 235 437 235 437 223.5 400 c 128,-1,34
 212 363 212 363 212 320 c 2,35,-1
 212 109 l 2,36,37
 212 65 212 65 235.5 53.5 c 128,-1,38
 259 42 259 42 292 42 c 2,39,-1
 297 42 l 1,40,-1
 297 0 l 1,41,-1
 28 0 l 1,0,-1
EndSplineSet
Substitution2: "'smcp' Lowercase to Small Capitals lookup 37 subtable" n.sc
Substitution2: "'sups' +BBIENQRABEUEPQQ4BDkA +BDgEPQQ0BDUEOgRB lookup 21 subtable" uni207F
Substitution2: "'subs' +BB0EOAQ2BD0EOAQ5 +BDgEPQQ0BDUEOgRB lookup 20 subtable" uni2099
AlternateSubs2: "'aalt' +BBIEQQQ1 +BDAEOwRMBEIENQRABD0EMARCBDgEMgQ9BEsENQAA +BDIEMARABDgEMAQ9BEIESwAA lookup 1 subtable" uni207F n.sc uni2099
EndChar

StartChar: o
Encoding: 81 111 82
Width: 577
GlyphClass: 2
Flags: W
AnchorPoint: "+BBEENQQ3BEsEPARPBD0EPQQ+BDUA--3" 289 268 basechar 0
AnchorPoint: "+BBEENQQ3BEsEPARPBD0EPQQ+BDUA--2" 557 536 basechar 0
AnchorPoint: "+BBEENQQ3BEsEPARPBD0EPQQ+BDUA--1" 289 536 basechar 0
AnchorPoint: "+BBEENQQ3BEsEPARPBD0EPQQ+BDUA--0" 289 0 basechar 0
LayerCount: 2
Fore
SplineSet
287 -10 m 0,0,1
 179 -10 179 -10 117 59 c 128,-1,2
 55 128 55 128 55 269 c 0,3,4
 55 409 55 409 114.5 477.5 c 128,-1,5
 174 546 174 546 290 546 c 0,6,7
 398 546 398 546 460 477.5 c 128,-1,8
 522 409 522 409 522 269 c 0,9,10
 522 128 522 128 462.5 59 c 128,-1,11
 403 -10 403 -10 287 -10 c 0,0,1
289 42 m 256,12,13
 364 42 364 42 394.5 99.5 c 128,-1,14
 425 157 425 157 425 269 c 256,15,16
 425 381 425 381 394 437 c 128,-1,17
 363 493 363 493 288 493 c 256,18,19
 213 493 213 493 182.5 437 c 128,-1,20
 152 381 152 381 152 269 c 256,21,22
 152 157 152 157 183 99.5 c 128,-1,23
 214 42 214 42 289 42 c 256,12,13
EndSplineSet
Substitution2: "'smcp' Lowercase to Small Capitals lookup 37 subtable" o.sc
Substitution2: "Single Substitution lookup 31 subtable" ordmasculine
AlternateSubs2: "'aalt' +BBIEQQQ1 +BDAEOwRMBEIENQRABD0EMARCBDgEMgQ9BEsENQAA +BDIEMARABDgEMAQ9BEIESwAA lookup 1 subtable" ordmasculine o.sc
EndChar

StartChar: p
Encoding: 82 112 83
Width: 614
GlyphClass: 2
Flags: W
AnchorPoint: "+BBEENQQ3BEsEPARPBD0EPQQ+BDUA--2" 594 536 basechar 0
AnchorPoint: "+BBEENQQ3BEsEPARPBD0EPQQ+BDUA--1" 307 536 basechar 0
AnchorPoint: "+BBEENQQ3BEsEPARPBD0EPQQ+BDUA--0" 157 -240 basechar 0
LayerCount: 2
Fore
SplineSet
18 -240 m 1,0,-1
 18 -198 l 1,1,-1
 26 -198 l 2,2,3
 60 -198 60 -198 84 -185.5 c 128,-1,4
 108 -173 108 -173 108 -126 c 2,5,-1
 108 426 l 2,6,7
 108 470 108 470 83.5 482 c 128,-1,8
 59 494 59 494 26 494 c 2,9,-1
 13 494 l 1,10,-1
 13 536 l 1,11,-1
 188 536 l 1,12,-1
 198 446 l 1,13,-1
 202 446 l 1,14,15
 225 492 225 492 261 519 c 128,-1,16
 297 546 297 546 355 546 c 0,17,18
 454 546 454 546 506.5 479.5 c 128,-1,19
 559 413 559 413 559 269 c 0,20,21
 559 124 559 124 506.5 57 c 128,-1,22
 454 -10 454 -10 355 -10 c 0,23,24
 297 -10 297 -10 260.5 14.5 c 128,-1,25
 224 39 224 39 202 78 c 1,26,-1
 198 78 l 1,27,28
 200 49 200 49 201 16.5 c 128,-1,29
 202 -16 202 -16 202 -35 c 2,30,-1
 202 -131 l 2,31,32
 202 -175 202 -175 226.5 -186.5 c 128,-1,33
 251 -198 251 -198 284 -198 c 2,34,-1
 287 -198 l 1,35,-1
 287 -240 l 1,36,-1
 18 -240 l 1,0,-1
339 54 m 0,37,38
 405 54 405 54 433.5 109.5 c 128,-1,39
 462 165 462 165 462 270 c 0,40,41
 462 377 462 377 433.5 429.5 c 128,-1,42
 405 482 405 482 338 482 c 0,43,44
 260 482 260 482 231 429.5 c 128,-1,45
 202 377 202 377 202 269 c 0,46,47
 202 165 202 165 231 109.5 c 128,-1,48
 260 54 260 54 339 54 c 0,37,38
EndSplineSet
Substitution2: "'smcp' Lowercase to Small Capitals lookup 37 subtable" p.sc
Substitution2: "'subs' +BB0EOAQ2BD0EOAQ5 +BDgEPQQ0BDUEOgRB lookup 20 subtable" uni209A
AlternateSubs2: "'aalt' +BBIEQQQ1 +BDAEOwRMBEIENQRABD0EMARCBDgEMgQ9BEsENQAA +BDIEMARABDgEMAQ9BEIESwAA lookup 1 subtable" p.sc uni209A
EndChar

StartChar: q
Encoding: 83 113 84
Width: 614
GlyphClass: 2
Flags: W
AnchorPoint: "+BBEENQQ3BEsEPARPBD0EPQQ+BDUA--2" 604 536 basechar 0
AnchorPoint: "+BBEENQQ3BEsEPARPBD0EPQQ+BDUA--1" 307 536 basechar 0
AnchorPoint: "+BBEENQQ3BEsEPARPBD0EPQQ+BDUA--0" 466 -240 basechar 0
LayerCount: 2
Fore
SplineSet
297 -240 m 1,0,-1
 297 -198 l 1,1,-1
 330 -198 l 2,2,3
 364 -198 364 -198 388 -185.5 c 128,-1,4
 412 -173 412 -173 412 -126 c 2,5,-1
 412 -40 l 2,6,7
 412 -24 412 -24 412.5 0.5 c 128,-1,8
 413 25 413 25 414 50 c 128,-1,9
 415 75 415 75 416 90 c 1,10,-1
 412 90 l 1,11,12
 390 44 390 44 354 17 c 128,-1,13
 318 -10 318 -10 259 -10 c 0,14,15
 160 -10 160 -10 107.5 56.5 c 128,-1,16
 55 123 55 123 55 267 c 0,17,18
 55 412 55 412 107.5 479 c 128,-1,19
 160 546 160 546 259 546 c 0,20,21
 317 546 317 546 353.5 521.5 c 128,-1,22
 390 497 390 497 412 458 c 1,23,-1
 418 458 l 1,24,-1
 436 536 l 1,25,-1
 596 536 l 1,26,-1
 596 494 l 1,27,-1
 588 494 l 2,28,29
 554 494 554 494 530 481.5 c 128,-1,30
 506 469 506 469 506 422 c 2,31,-1
 506 -130 l 2,32,33
 506 -174 506 -174 530.5 -186 c 128,-1,34
 555 -198 555 -198 588 -198 c 2,35,-1
 596 -198 l 1,36,-1
 596 -240 l 1,37,-1
 297 -240 l 1,0,-1
276 54 m 0,38,39
 354 54 354 54 383 106.5 c 128,-1,40
 412 159 412 159 412 267 c 0,41,42
 412 371 412 371 383 426.5 c 128,-1,43
 354 482 354 482 275 482 c 0,44,45
 209 482 209 482 180.5 426.5 c 128,-1,46
 152 371 152 371 152 266 c 0,47,48
 152 160 152 160 180.5 107 c 128,-1,49
 209 54 209 54 276 54 c 0,38,39
EndSplineSet
Substitution2: "'smcp' Lowercase to Small Capitals lookup 37 subtable" q.sc
Substitution2: "'aalt' +BBIEQQQ1 +BDAEOwRMBEIENQRABD0EMARCBDgEMgQ9BEsENQAA +BDIEMARABDgEMAQ9BEIESwAA lookup 0 subtable" q.sc
EndChar

StartChar: r
Encoding: 84 114 85
Width: 471
GlyphClass: 2
Flags: W
AnchorPoint: "+BBEENQQ3BEsEPARPBD0EPQQ+BDUA--2" 451 536 basechar 0
AnchorPoint: "+BBEENQQ3BEsEPARPBD0EPQQ+BDUA--1" 246 536 basechar 0
AnchorPoint: "+BBEENQQ3BEsEPARPBD0EPQQ+BDUA--0" 166 0 basechar 0
LayerCount: 2
Fore
SplineSet
33 0 m 1,0,-1
 33 42 l 1,1,-1
 36 42 l 2,2,3
 70 42 70 42 94 54.5 c 128,-1,4
 118 67 118 67 118 114 c 2,5,-1
 118 426 l 2,6,7
 118 470 118 470 93.5 482 c 128,-1,8
 69 494 69 494 36 494 c 2,9,-1
 33 494 l 1,10,-1
 33 536 l 1,11,-1
 187 536 l 1,12,-1
 206 437 l 1,13,-1
 211 437 l 1,14,15
 224 467 224 467 239 492 c 128,-1,16
 254 517 254 517 279 531.5 c 128,-1,17
 304 546 304 546 348 546 c 0,18,19
 403 546 403 546 429.5 527 c 128,-1,20
 456 508 456 508 456 473 c 0,21,22
 456 442 456 442 434.5 422 c 128,-1,23
 413 402 413 402 363 402 c 1,24,25
 363 443 363 443 351 461.5 c 128,-1,26
 339 480 339 480 310 480 c 0,27,28
 282 480 282 480 263 458 c 128,-1,29
 244 436 244 436 233 402 c 128,-1,30
 222 368 222 368 217 331.5 c 128,-1,31
 212 295 212 295 212 266 c 2,32,-1
 212 109 l 2,33,34
 212 65 212 65 236.5 53.5 c 128,-1,35
 261 42 261 42 294 42 c 2,36,-1
 322 42 l 1,37,-1
 322 0 l 1,38,-1
 33 0 l 1,0,-1
EndSplineSet
Substitution2: "'smcp' Lowercase to Small Capitals lookup 37 subtable" r.sc
Substitution2: "'aalt' +BBIEQQQ1 +BDAEOwRMBEIENQRABD0EMARCBDgEMgQ9BEsENQAA +BDIEMARABDgEMAQ9BEIESwAA lookup 0 subtable" r.sc
EndChar

StartChar: s
Encoding: 85 115 86
Width: 451
GlyphClass: 2
Flags: W
AnchorPoint: "+BBEENQQ3BEsEPARPBD0EPQQ+BDUA--2" 411 536 basechar 0
AnchorPoint: "+BBEENQQ3BEsEPARPBD0EPQQ+BDUA--1" 226 536 basechar 0
AnchorPoint: "+BBEENQQ3BEsEPARPBD0EPQQ+BDUA--0" 226 0 basechar 0
LayerCount: 2
Fore
SplineSet
210 -10 m 0,0,1
 135 -10 135 -10 90 17 c 128,-1,2
 45 44 45 44 45 96 c 0,3,4
 45 123 45 123 56 138 c 128,-1,5
 67 153 67 153 81.5 159 c 128,-1,6
 96 165 96 165 108 165 c 1,7,8
 108 113 108 113 131.5 75.5 c 128,-1,9
 155 38 155 38 216 38 c 0,10,11
 269 38 269 38 297.5 63.5 c 128,-1,12
 326 89 326 89 326 129 c 0,13,14
 326 154 326 154 315.5 170 c 128,-1,15
 305 186 305 186 278.5 201.5 c 128,-1,16
 252 217 252 217 203 238 c 0,17,18
 152 261 152 261 118.5 282.5 c 128,-1,19
 85 304 85 304 68.5 332.5 c 128,-1,20
 52 361 52 361 52 404 c 0,21,22
 52 472 52 472 103.5 508.5 c 128,-1,23
 155 545 155 545 240 545 c 0,24,25
 312 545 312 545 349 518 c 128,-1,26
 386 491 386 491 386 453 c 0,27,28
 386 426 386 426 367.5 409.5 c 128,-1,29
 349 393 349 393 314 393 c 1,30,31
 314 443 314 443 293 471 c 128,-1,32
 272 499 272 499 228 499 c 0,33,34
 177 499 177 499 155 476.5 c 128,-1,35
 133 454 133 454 133 419 c 0,36,37
 133 381 133 381 161.5 360.5 c 128,-1,38
 190 340 190 340 257 313 c 0,39,40
 310 291 310 291 343 269 c 128,-1,41
 376 247 376 247 391.5 218 c 128,-1,42
 407 189 407 189 407 147 c 0,43,44
 407 69 407 69 353 29.5 c 128,-1,45
 299 -10 299 -10 210 -10 c 0,0,1
EndSplineSet
Substitution2: "'smcp' Lowercase to Small Capitals lookup 37 subtable" s.sc
Substitution2: "'subs' +BB0EOAQ2BD0EOAQ5 +BDgEPQQ0BDUEOgRB lookup 20 subtable" uni209B
AlternateSubs2: "'aalt' +BBIEQQQ1 +BDAEOwRMBEIENQRABD0EMARCBDgEMgQ9BEsENQAA +BDIEMARABDgEMAQ9BEIESwAA lookup 1 subtable" s.sc uni209B
EndChar

StartChar: t
Encoding: 86 116 87
Width: 352
GlyphClass: 2
Flags: W
AnchorPoint: "+BBEENQQ3BEsEPARPBD0EPQQ+BDUA--3" 156 268 basechar 0
AnchorPoint: "+BBEENQQ3BEsEPARPBD0EPQQ+BDUA--2" 208 980 basechar 0
AnchorPoint: "+BBEENQQ3BEsEPARPBD0EPQQ+BDUA--1" 166 659 basechar 0
AnchorPoint: "+BBEENQQ3BEsEPARPBD0EPQQ+BDUA--0" 216 0 basechar 0
LayerCount: 2
Fore
SplineSet
240 -10 m 0,0,1
 164 -10 164 -10 129.5 24.5 c 128,-1,2
 95 59 95 59 95 145 c 2,3,-1
 95 479 l 1,4,-1
 19 479 l 1,5,-1
 19 519 l 1,6,7
 37 519 37 519 59 526.5 c 128,-1,8
 81 534 81 534 97 551 c 0,9,10
 114 569 114 569 125 595 c 128,-1,11
 136 621 136 621 143 659 c 1,12,-1
 189 659 l 1,13,-1
 189 536 l 1,14,-1
 320 536 l 1,15,-1
 320 479 l 1,16,-1
 189 479 l 1,17,-1
 189 142 l 2,18,19
 189 91 189 91 210 67 c 128,-1,20
 231 43 231 43 265 43 c 0,21,22
 283 43 283 43 298 45 c 128,-1,23
 313 47 313 47 329 50 c 1,24,-1
 329 6 l 1,25,26
 316 0 316 0 290 -5 c 128,-1,27
 264 -10 264 -10 240 -10 c 0,0,1
EndSplineSet
Substitution2: "'smcp' Lowercase to Small Capitals lookup 37 subtable" t.sc
Substitution2: "'subs' +BB0EOAQ2BD0EOAQ5 +BDgEPQQ0BDUEOgRB lookup 20 subtable" uni209C
AlternateSubs2: "'aalt' +BBIEQQQ1 +BDAEOwRMBEIENQRABD0EMARCBDgEMgQ9BEsENQAA +BDIEMARABDgEMAQ9BEIESwAA lookup 1 subtable" t.sc uni209C
EndChar

StartChar: u
Encoding: 87 117 88
Width: 635
GlyphClass: 2
Flags: W
AnchorPoint: "+BBEENQQ3BEsEPARPBD0EPQQ+BDUA--2" 595 536 basechar 0
AnchorPoint: "+BBEENQQ3BEsEPARPBD0EPQQ+BDUA--1" 308 536 basechar 0
AnchorPoint: "+BBEENQQ3BEsEPARPBD0EPQQ+BDUA--0" 530 0 basechar 0
LayerCount: 2
Fore
SplineSet
273 -10 m 0,0,1
 194 -10 194 -10 151 36.5 c 128,-1,2
 108 83 108 83 108 186 c 2,3,-1
 108 426 l 2,4,5
 108 470 108 470 83.5 482 c 128,-1,6
 59 494 59 494 26 494 c 2,7,-1
 23 494 l 1,8,-1
 23 536 l 1,9,-1
 202 536 l 1,10,-1
 202 191 l 2,11,12
 202 126 202 126 224 90 c 128,-1,13
 246 54 246 54 307 54 c 0,14,15
 373 54 373 54 403 98.5 c 128,-1,16
 433 143 433 143 433 216 c 2,17,-1
 433 422 l 2,18,19
 433 469 433 469 409 481.5 c 128,-1,20
 385 494 385 494 351 494 c 2,21,-1
 348 494 l 1,22,-1
 348 536 l 1,23,-1
 527 536 l 1,24,-1
 527 109 l 2,25,26
 527 65 527 65 551.5 53.5 c 128,-1,27
 576 42 576 42 609 42 c 2,28,-1
 612 42 l 1,29,-1
 612 0 l 1,30,-1
 453 0 l 1,31,-1
 440 81 l 1,32,-1
 435 81 l 1,33,34
 404 25 404 25 363 7.5 c 128,-1,35
 322 -10 322 -10 273 -10 c 0,0,1
EndSplineSet
Substitution2: "'smcp' Lowercase to Small Capitals lookup 37 subtable" u.sc
Substitution2: "'aalt' +BBIEQQQ1 +BDAEOwRMBEIENQRABD0EMARCBDgEMgQ9BEsENQAA +BDIEMARABDgEMAQ9BEIESwAA lookup 0 subtable" u.sc
EndChar

StartChar: v
Encoding: 88 118 89
Width: 579
GlyphClass: 2
Flags: W
AnchorPoint: "+BBEENQQ3BEsEPARPBD0EPQQ+BDUA--2" 569 536 basechar 0
AnchorPoint: "+BBEENQQ3BEsEPARPBD0EPQQ+BDUA--1" 300 536 basechar 0
AnchorPoint: "+BBEENQQ3BEsEPARPBD0EPQQ+BDUA--0" 290 0 basechar 0
LayerCount: 2
Fore
SplineSet
78 441 m 2,0,1
 67 473 67 473 51.5 483.5 c 128,-1,2
 36 494 36 494 4 494 c 1,3,-1
 4 536 l 1,4,-1
 254 536 l 1,5,-1
 254 494 l 1,6,-1
 241 494 l 2,7,8
 181 494 181 494 181 446 c 0,9,10
 181 438 181 438 183 429 c 128,-1,11
 185 420 185 420 189 409 c 2,12,-1
 257 220 l 2,13,14
 271 183 271 183 284 139.5 c 128,-1,15
 297 96 297 96 304 70 c 1,16,17
 309 91 309 91 325 131 c 128,-1,18
 341 171 341 171 354 207 c 2,19,-1
 426 402 l 2,20,21
 435 426 435 426 435 445 c 0,22,23
 435 494 435 494 369 494 c 2,24,-1
 362 494 l 1,25,-1
 362 536 l 1,26,-1
 576 536 l 1,27,-1
 576 494 l 1,28,-1
 564 494 l 2,29,30
 535 494 535 494 520.5 479 c 128,-1,31
 506 464 506 464 488 416 c 2,32,-1
 330 0 l 1,33,-1
 239 0 l 1,34,-1
 78 441 l 2,0,1
EndSplineSet
Substitution2: "'smcp' Lowercase to Small Capitals lookup 37 subtable" v.sc
Substitution2: "'aalt' +BBIEQQQ1 +BDAEOwRMBEIENQRABD0EMARCBDgEMgQ9BEsENQAA +BDIEMARABDgEMAQ9BEIESwAA lookup 0 subtable" v.sc
EndChar

StartChar: w
Encoding: 89 119 90
Width: 862
GlyphClass: 2
Flags: W
AnchorPoint: "+BBEENQQ3BEsEPARPBD0EPQQ+BDUA--2" 852 536 basechar 0
AnchorPoint: "+BBEENQQ3BEsEPARPBD0EPQQ+BDUA--1" 431 536 basechar 0
AnchorPoint: "+BBEENQQ3BEsEPARPBD0EPQQ+BDUA--0" 431 0 basechar 0
LayerCount: 2
Fore
SplineSet
75 441 m 2,0,1
 64 473 64 473 48.5 483.5 c 128,-1,2
 33 494 33 494 4 494 c 2,3,-1
 1 494 l 1,4,-1
 1 536 l 1,5,-1
 248 536 l 1,6,-1
 248 494 l 1,7,-1
 235 494 l 2,8,9
 205 494 205 494 190 485.5 c 128,-1,10
 175 477 175 477 175 452 c 0,11,12
 175 444 175 444 177.5 432 c 128,-1,13
 180 420 180 420 183 409 c 2,14,-1
 230 241 l 2,15,16
 237 217 237 217 243.5 187.5 c 128,-1,17
 250 158 250 158 256 131.5 c 128,-1,18
 262 105 262 105 265 88 c 1,19,-1
 268 88 l 1,20,21
 273 113 273 113 284.5 153.5 c 128,-1,22
 296 194 296 194 309 231 c 2,23,-1
 413 533 l 1,24,-1
 476 533 l 1,25,-1
 576 237 l 2,26,27
 584 213 584 213 593 184.5 c 128,-1,28
 602 156 602 156 609 130.5 c 128,-1,29
 616 105 616 105 619 88 c 1,30,-1
 622 88 l 1,31,32
 631 139 631 139 661 234 c 2,33,-1
 711 395 l 2,34,35
 715 408 715 408 717.5 422.5 c 128,-1,36
 720 437 720 437 720 445 c 0,37,38
 720 494 720 494 654 494 c 2,39,-1
 647 494 l 1,40,-1
 647 536 l 1,41,-1
 861 536 l 1,42,-1
 861 494 l 1,43,-1
 848 494 l 2,44,45
 819 494 819 494 803.5 480 c 128,-1,46
 788 466 788 466 773 416 c 2,47,-1
 644 0 l 1,48,-1
 564 0 l 1,49,-1
 427 418 l 1,50,-1
 285 0 l 1,51,-1
 206 0 l 1,52,-1
 75 441 l 2,0,1
EndSplineSet
Substitution2: "'smcp' Lowercase to Small Capitals lookup 37 subtable" w.sc
Substitution2: "'aalt' +BBIEQQQ1 +BDAEOwRMBEIENQRABD0EMARCBDgEMgQ9BEsENQAA +BDIEMARABDgEMAQ9BEIESwAA lookup 0 subtable" w.sc
EndChar

StartChar: x
Encoding: 90 120 91
Width: 578
GlyphClass: 2
Flags: W
AnchorPoint: "+BBEENQQ3BEsEPARPBD0EPQQ+BDUA--2" 558 536 basechar 0
AnchorPoint: "+BBEENQQ3BEsEPARPBD0EPQQ+BDUA--1" 289 536 basechar 0
AnchorPoint: "+BBEENQQ3BEsEPARPBD0EPQQ+BDUA--0" 289 0 basechar 0
LayerCount: 2
Fore
SplineSet
5 0 m 1,0,-1
 5 42 l 1,1,-1
 14 42 l 2,2,3
 50 42 50 42 72 55.5 c 128,-1,4
 94 69 94 69 123 106 c 2,5,-1
 249 269 l 1,6,-1
 123 441 l 2,7,8
 101 467 101 467 80.5 480.5 c 128,-1,9
 60 494 60 494 37 494 c 2,10,-1
 24 494 l 1,11,-1
 24 536 l 1,12,-1
 278 536 l 1,13,-1
 278 494 l 1,14,-1
 275 494 l 2,15,16
 241 494 241 494 229.5 485.5 c 128,-1,17
 218 477 218 477 218 465 c 0,18,19
 218 455 218 455 224 445 c 128,-1,20
 230 435 230 435 241 419 c 2,21,-1
 307 329 l 1,22,-1
 359 404 l 2,23,24
 370 421 370 421 377 436.5 c 128,-1,25
 384 452 384 452 384 465 c 0,26,27
 384 483 384 483 368.5 488.5 c 128,-1,28
 353 494 353 494 330 494 c 2,29,-1
 327 494 l 1,30,-1
 327 536 l 1,31,-1
 546 536 l 1,32,-1
 546 494 l 1,33,-1
 537 494 l 2,34,35
 508 494 508 494 487 482.5 c 128,-1,36
 466 471 466 471 436 430 c 2,37,-1
 333 293 l 1,38,-1
 480 95 l 2,39,40
 502 66 502 66 521.5 54 c 128,-1,41
 541 42 541 42 560 42 c 2,42,-1
 573 42 l 1,43,-1
 573 0 l 1,44,-1
 315 0 l 1,45,-1
 315 42 l 1,46,-1
 320 42 l 2,47,48
 380 42 380 42 380 75 c 0,49,50
 380 86 380 86 372.5 99.5 c 128,-1,51
 365 113 365 113 342 144 c 2,52,-1
 275 234 l 1,53,-1
 205 136 l 2,54,55
 196 124 196 124 187 106.5 c 128,-1,56
 178 89 178 89 178 73 c 256,57,58
 178 57 178 57 192.5 49.5 c 128,-1,59
 207 42 207 42 240 42 c 2,60,-1
 243 42 l 1,61,-1
 243 0 l 1,62,-1
 5 0 l 1,0,-1
EndSplineSet
Substitution2: "'smcp' Lowercase to Small Capitals lookup 37 subtable" x.sc
Substitution2: "'aalt' +BBIEQQQ1 +BDAEOwRMBEIENQRABD0EMARCBDgEMgQ9BEsENQAA +BDIEMARABDgEMAQ9BEIESwAA lookup 0 subtable" x.sc
EndChar

StartChar: y
Encoding: 91 121 92
Width: 565
GlyphClass: 2
Flags: W
AnchorPoint: "+BBEENQQ3BEsEPARPBD0EPQQ+BDUA--2" 545 536 basechar 0
AnchorPoint: "+BBEENQQ3BEsEPARPBD0EPQQ+BDUA--1" 303 536 basechar 0
AnchorPoint: "+BBEENQQ3BEsEPARPBD0EPQQ+BDUA--0" 143 -240 basechar 0
LayerCount: 2
Fore
SplineSet
38 -193 m 1,0,1
 106 -193 106 -193 149.5 -167 c 128,-1,2
 193 -141 193 -141 220 -96.5 c 128,-1,3
 247 -52 247 -52 263 4 c 1,4,-1
 78 441 l 2,5,6
 65 472 65 472 50.5 483 c 128,-1,7
 36 494 36 494 7 494 c 2,8,-1
 4 494 l 1,9,-1
 4 536 l 1,10,-1
 244 536 l 1,11,-1
 244 494 l 1,12,-1
 241 494 l 2,13,14
 181 494 181 494 181 446 c 0,15,16
 181 429 181 429 189 409 c 2,17,-1
 262 231 l 2,18,19
 272 208 272 208 281.5 180.5 c 128,-1,20
 291 153 291 153 299 128 c 128,-1,21
 307 103 307 103 310 86 c 1,22,23
 317 115 317 115 328.5 146 c 128,-1,24
 340 177 340 177 350 207 c 2,25,-1
 417 402 l 2,26,27
 426 426 426 426 426 445 c 0,28,29
 426 494 426 494 360 494 c 2,30,-1
 357 494 l 1,31,-1
 357 536 l 1,32,-1
 565 536 l 1,33,-1
 565 494 l 1,34,-1
 562 494 l 2,35,36
 533 494 533 494 518 479 c 128,-1,37
 503 464 503 464 486 416 c 2,38,-1
 334 -4 l 2,39,40
 308 -77 308 -77 284 -123 c 128,-1,41
 260 -169 260 -169 230.5 -194.5 c 128,-1,42
 201 -220 201 -220 157 -230 c 128,-1,43
 113 -240 113 -240 47 -240 c 2,44,-1
 38 -240 l 1,45,-1
 38 -193 l 1,0,1
EndSplineSet
Substitution2: "'smcp' Lowercase to Small Capitals lookup 37 subtable" y.sc
Substitution2: "'aalt' +BBIEQQQ1 +BDAEOwRMBEIENQRABD0EMARCBDgEMgQ9BEsENQAA +BDIEMARABDgEMAQ9BEIESwAA lookup 0 subtable" y.sc
EndChar

StartChar: z
Encoding: 92 122 93
Width: 511
GlyphClass: 2
Flags: W
AnchorPoint: "+BBEENQQ3BEsEPARPBD0EPQQ+BDUA--2" 471 536 basechar 0
AnchorPoint: "+BBEENQQ3BEsEPARPBD0EPQQ+BDUA--1" 256 536 basechar 0
AnchorPoint: "+BBEENQQ3BEsEPARPBD0EPQQ+BDUA--0" 256 0 basechar 0
LayerCount: 2
Fore
SplineSet
42 0 m 1,0,-1
 42 40 l 1,1,-1
 332 479 l 1,2,-1
 176 479 l 2,3,4
 136 479 136 479 123 458.5 c 128,-1,5
 110 438 110 438 99 398 c 2,6,-1
 98 394 l 1,7,-1
 56 394 l 1,8,-1
 66 536 l 1,9,-1
 449 536 l 1,10,-1
 449 495 l 1,11,-1
 158 57 l 1,12,-1
 340 57 l 2,13,14
 375 57 375 57 388 82 c 128,-1,15
 401 107 401 107 408 139 c 2,16,-1
 413 162 l 1,17,-1
 455 162 l 1,18,-1
 450 0 l 1,19,-1
 42 0 l 1,0,-1
EndSplineSet
Substitution2: "'smcp' Lowercase to Small Capitals lookup 37 subtable" z.sc
Substitution2: "'aalt' +BBIEQQQ1 +BDAEOwRMBEIENQRABD0EMARCBDgEMgQ9BEsENQAA +BDIEMARABDgEMAQ9BEIESwAA lookup 0 subtable" z.sc
EndChar

StartChar: braceleft
Encoding: 93 123 94
Width: 428
Flags: W
LayerCount: 2
Fore
SplineSet
312 -128 m 2,0,1
 242 -128 242 -128 205 -89 c 128,-1,2
 168 -50 168 -50 168 16 c 2,3,-1
 168 190 l 2,4,5
 168 231 168 231 152.5 253.5 c 128,-1,6
 137 276 137 276 110 285.5 c 128,-1,7
 83 295 83 295 50 296 c 1,8,-1
 50 338 l 1,9,10
 83 339 83 339 110 348.5 c 128,-1,11
 137 358 137 358 152.5 380.5 c 128,-1,12
 168 403 168 403 168 443 c 2,13,-1
 168 617 l 2,14,15
 168 685 168 685 205 722.5 c 128,-1,16
 242 760 242 760 312 760 c 2,17,-1
 378 760 l 1,18,-1
 378 717 l 1,19,-1
 348 717 l 2,20,21
 304 717 304 717 285 690.5 c 128,-1,22
 266 664 266 664 266 612 c 2,23,-1
 266 441 l 2,24,25
 266 392 266 392 238.5 359.5 c 128,-1,26
 211 327 211 327 155 318 c 1,27,-1
 155 317 l 1,28,29
 212 307 212 307 239 275 c 128,-1,30
 266 243 266 243 266 193 c 2,31,-1
 266 20 l 2,32,33
 266 -31 266 -31 285 -58 c 128,-1,34
 304 -85 304 -85 348 -85 c 2,35,-1
 378 -85 l 1,36,-1
 378 -128 l 1,37,-1
 312 -128 l 2,0,1
EndSplineSet
Substitution2: "'smcp' Lowercase to Small Capitals lookup 37 subtable" braceleft.sc
Substitution2: "'c2sc' +BBoEMAQ/BDgEQgQ1BDsETAAA +BDgENwAA +BD8EQAQ+BD8EOARBBD0ESwRF lookup 36 subtable" braceleft.sc
Substitution2: "'aalt' +BBIEQQQ1 +BDAEOwRMBEIENQRABD0EMARCBDgEMgQ9BEsENQAA +BDIEMARABDgEMAQ9BEIESwAA lookup 0 subtable" braceleft.sc
EndChar

StartChar: bar
Encoding: 94 124 95
Width: 559
Flags: W
LayerCount: 2
Fore
SplineSet
249 -240 m 1,0,-1
 249 760 l 1,1,-1
 309 760 l 1,2,-1
 309 -240 l 1,3,-1
 249 -240 l 1,0,-1
EndSplineSet
EndChar

StartChar: braceright
Encoding: 95 125 96
Width: 428
Flags: W
LayerCount: 2
Fore
SplineSet
50 -128 m 1,0,-1
 50 -85 l 1,1,-1
 80 -85 l 2,2,3
 124 -85 124 -85 143 -58 c 128,-1,4
 162 -31 162 -31 162 20 c 2,5,-1
 162 193 l 2,6,7
 162 243 162 243 189 275 c 128,-1,8
 216 307 216 307 273 317 c 1,9,-1
 273 318 l 1,10,11
 218 327 218 327 190 359.5 c 128,-1,12
 162 392 162 392 162 441 c 2,13,-1
 162 612 l 2,14,15
 162 664 162 664 143 690.5 c 128,-1,16
 124 717 124 717 80 717 c 2,17,-1
 50 717 l 1,18,-1
 50 760 l 1,19,-1
 116 760 l 2,20,21
 187 760 187 760 223.5 722.5 c 128,-1,22
 260 685 260 685 260 617 c 2,23,-1
 260 443 l 2,24,25
 260 403 260 403 276 380.5 c 128,-1,26
 292 358 292 358 318.5 348.5 c 128,-1,27
 345 339 345 339 378 338 c 1,28,-1
 378 296 l 1,29,30
 345 295 345 295 318.5 285.5 c 128,-1,31
 292 276 292 276 276 253.5 c 128,-1,32
 260 231 260 231 260 190 c 2,33,-1
 260 16 l 2,34,35
 260 -50 260 -50 223.5 -89 c 128,-1,36
 187 -128 187 -128 116 -128 c 2,37,-1
 50 -128 l 1,0,-1
EndSplineSet
Substitution2: "'smcp' Lowercase to Small Capitals lookup 37 subtable" braceright.sc
Substitution2: "'c2sc' +BBoEMAQ/BDgEQgQ1BDsETAAA +BDgENwAA +BD8EQAQ+BD8EOARBBD0ESwRF lookup 36 subtable" braceright.sc
Substitution2: "'aalt' +BBIEQQQ1 +BDAEOwRMBEIENQRABD0EMARCBDgEMgQ9BEsENQAA +BDIEMARABDgEMAQ9BEIESwAA lookup 0 subtable" braceright.sc
EndChar

StartChar: asciitilde
Encoding: 96 126 97
Width: 559
Flags: W
LayerCount: 2
Fore
SplineSet
54 269 m 1,0,1
 57 298 57 298 63 328.5 c 128,-1,2
 69 359 69 359 82 385.5 c 128,-1,3
 95 412 95 412 117.5 428 c 128,-1,4
 140 444 140 444 176 444 c 0,5,6
 211 444 211 444 238.5 427 c 128,-1,7
 266 410 266 410 301 378 c 0,8,9
 322 359 322 359 342 343.5 c 128,-1,10
 362 328 362 328 383 328 c 0,11,12
 411 328 411 328 424 358.5 c 128,-1,13
 437 389 437 389 444 444 c 1,14,-1
 504 444 l 1,15,16
 501 418 501 418 494.5 388 c 128,-1,17
 488 358 488 358 475 331 c 128,-1,18
 462 304 462 304 439.5 286.5 c 128,-1,19
 417 269 417 269 382 269 c 256,20,21
 347 269 347 269 318.5 287 c 128,-1,22
 290 305 290 305 262 332 c 0,23,24
 239 355 239 355 219 370 c 128,-1,25
 199 385 199 385 176 385 c 0,26,27
 147 385 147 385 132.5 356.5 c 128,-1,28
 118 328 118 328 113 269 c 1,29,-1
 54 269 l 1,0,1
EndSplineSet
EndChar

StartChar: cent
Encoding: 99 162 100
Width: 559
Flags: W
LayerCount: 2
Fore
SplineSet
285 88 m 1,0,1
 225 95 225 95 178.5 124 c 128,-1,2
 132 153 132 153 105.5 211 c 128,-1,3
 79 269 79 269 79 361 c 0,4,5
 79 460 79 460 106.5 519.5 c 128,-1,6
 134 579 134 579 181 607.5 c 128,-1,7
 228 636 228 636 285 641 c 1,8,-1
 285 714 l 1,9,-1
 335 714 l 1,10,-1
 335 641 l 1,11,12
 374 638 374 638 411 626 c 128,-1,13
 448 614 448 614 472 593 c 128,-1,14
 496 572 496 572 496 540 c 0,15,16
 496 506 496 506 473.5 491.5 c 128,-1,17
 451 477 451 477 407 477 c 1,18,19
 407 518 407 518 390 550 c 128,-1,20
 373 582 373 582 335 589 c 1,21,-1
 335 145 l 1,22,23
 382 145 382 145 419 166.5 c 128,-1,24
 456 188 456 188 473 219 c 1,25,26
 490 205 490 205 490 180 c 0,27,28
 490 146 490 146 455 117.5 c 128,-1,29
 420 89 420 89 335 86 c 1,30,-1
 335 0 l 1,31,-1
 285 0 l 1,32,-1
 285 88 l 1,0,1
285 589 m 1,33,34
 253 583 253 583 228.5 559.5 c 128,-1,35
 204 536 204 536 190 488.5 c 128,-1,36
 176 441 176 441 176 362 c 0,37,38
 176 273 176 273 203 219.5 c 128,-1,39
 230 166 230 166 285 151 c 1,40,-1
 285 589 l 1,33,34
EndSplineSet
EndChar

StartChar: sterling
Encoding: 100 163 101
Width: 559
Flags: W
LayerCount: 2
Fore
SplineSet
399 -10 m 0,0,1
 374 -10 374 -10 349 -2.5 c 128,-1,2
 324 5 324 5 298 14 c 0,3,4
 275 22 275 22 250.5 28.5 c 128,-1,5
 226 35 226 35 200 35 c 0,6,7
 167 35 167 35 138 25.5 c 128,-1,8
 109 16 109 16 77 1 c 2,9,-1
 64 -5 l 1,10,-1
 64 48 l 1,11,-1
 82 59 l 2,12,13
 107 74 107 74 130.5 97.5 c 128,-1,14
 154 121 154 121 169.5 152.5 c 128,-1,15
 185 184 185 184 185 224 c 0,16,17
 185 253 185 253 178 281.5 c 128,-1,18
 171 310 171 310 160 337 c 1,19,-1
 49 337 l 1,20,-1
 49 384 l 1,21,-1
 141 384 l 1,22,23
 128 416 128 416 115.5 459 c 128,-1,24
 103 502 103 502 103 543 c 0,25,26
 103 629 103 629 158 676.5 c 128,-1,27
 213 724 213 724 307 724 c 0,28,29
 404 724 404 724 444 692 c 128,-1,30
 484 660 484 660 484 612 c 0,31,32
 484 580 484 580 462.5 563.5 c 128,-1,33
 441 547 441 547 405 547 c 1,34,35
 405 578 405 578 397 607 c 128,-1,36
 389 636 389 636 367 655 c 128,-1,37
 345 674 345 674 303 674 c 0,38,39
 245 674 245 674 218 640.5 c 128,-1,40
 191 607 191 607 191 545 c 0,41,42
 191 499 191 499 204.5 456 c 128,-1,43
 218 413 218 413 230 384 c 1,44,-1
 400 384 l 1,45,-1
 400 337 l 1,46,-1
 244 337 l 1,47,48
 252 312 252 312 258 286 c 128,-1,49
 264 260 264 260 264 230 c 0,50,51
 264 187 264 187 240 154 c 128,-1,52
 216 121 216 121 176 94 c 1,53,-1
 178 90 l 1,54,55
 198 100 198 100 216.5 104 c 128,-1,56
 235 108 235 108 251 108 c 0,57,58
 271 108 271 108 296 102 c 128,-1,59
 321 96 321 96 345 88 c 0,60,61
 368 81 368 81 389 75.5 c 128,-1,62
 410 70 410 70 425 70 c 0,63,64
 460 70 460 70 485.5 88.5 c 128,-1,65
 511 107 511 107 530 129 c 1,66,-1
 530 64 l 1,67,68
 512 39 512 39 480.5 14.5 c 128,-1,69
 449 -10 449 -10 399 -10 c 0,0,1
EndSplineSet
EndChar

StartChar: currency
Encoding: 101 164 102
Width: 559
Flags: W
LayerCount: 2
Fore
SplineSet
106 143 m 1,0,-1
 64 185 l 1,1,-1
 129 251 l 1,2,3
 96 298 96 298 96 358 c 0,4,5
 96 419 96 419 130 465 c 1,6,-1
 64 531 l 1,7,-1
 106 573 l 1,8,-1
 171 507 l 1,9,10
 194 524 194 524 221 533 c 128,-1,11
 248 542 248 542 279 542 c 0,12,13
 308 542 308 542 335.5 533 c 128,-1,14
 363 524 363 524 385 507 c 1,15,-1
 452 574 l 1,16,-1
 494 531 l 1,17,-1
 428 465 l 1,18,19
 445 443 445 443 454 415.5 c 128,-1,20
 463 388 463 388 463 358 c 256,21,22
 463 328 463 328 454 301 c 128,-1,23
 445 274 445 274 428 251 c 1,24,-1
 494 185 l 1,25,-1
 453 143 l 1,26,-1
 386 209 l 1,27,28
 364 193 364 193 336.5 184 c 128,-1,29
 309 175 309 175 279 175 c 0,30,31
 218 175 218 175 172 209 c 1,32,-1
 106 143 l 1,0,-1
279 230 m 0,33,34
 315 230 315 230 344 247.5 c 128,-1,35
 373 265 373 265 390 294 c 128,-1,36
 407 323 407 323 407 358 c 0,37,38
 407 394 407 394 390 423.5 c 128,-1,39
 373 453 373 453 344 470 c 128,-1,40
 315 487 315 487 279 487 c 0,41,42
 244 487 244 487 215 470 c 128,-1,43
 186 453 186 453 169 423.5 c 128,-1,44
 152 394 152 394 152 358 c 0,45,46
 152 323 152 323 169 294 c 128,-1,47
 186 265 186 265 215 247.5 c 128,-1,48
 244 230 244 230 279 230 c 0,33,34
EndSplineSet
EndChar

StartChar: yen
Encoding: 102 165 103
Width: 559
Flags: W
LayerCount: 2
Fore
SplineSet
129 0 m 1,0,-1
 129 42 l 1,1,-1
 152 42 l 2,2,3
 185 42 185 42 209 53.5 c 128,-1,4
 233 65 233 65 234 109 c 2,5,-1
 234 177 l 1,6,-1
 94 177 l 1,7,-1
 94 224 l 1,8,-1
 234 224 l 1,9,-1
 234 294 l 1,10,-1
 94 294 l 1,11,-1
 94 341 l 1,12,-1
 215 341 l 1,13,-1
 79 619 l 2,14,15
 65 648 65 648 51 660 c 128,-1,16
 37 672 37 672 8 672 c 2,17,-1
 5 672 l 1,18,-1
 5 714 l 1,19,-1
 248 714 l 1,20,-1
 248 672 l 1,21,-1
 241 672 l 2,22,23
 184 672 184 672 184 633 c 0,24,25
 184 607 184 607 200 574 c 2,26,-1
 248 468 l 2,27,28
 262 437 262 437 275 399 c 128,-1,29
 288 361 288 361 294 341 c 1,30,31
 297 348 297 348 303.5 363.5 c 128,-1,32
 310 379 310 379 318.5 397 c 128,-1,33
 327 415 327 415 333 428 c 2,34,-1
 390 550 l 2,35,36
 402 576 402 576 408 598.5 c 128,-1,37
 414 621 414 621 414 632 c 0,38,39
 414 652 414 652 400 662 c 128,-1,40
 386 672 386 672 353 672 c 2,41,-1
 350 672 l 1,42,-1
 350 714 l 1,43,-1
 554 714 l 1,44,-1
 554 672 l 1,45,-1
 545 672 l 2,46,47
 520 672 520 672 506 656.5 c 128,-1,48
 492 641 492 641 469 594 c 2,49,-1
 347 341 l 1,50,-1
 471 341 l 1,51,-1
 471 294 l 1,52,-1
 331 294 l 1,53,-1
 331 224 l 1,54,-1
 471 224 l 1,55,-1
 471 177 l 1,56,-1
 331 177 l 1,57,-1
 331 114 l 2,58,59
 331 67 331 67 355 54.5 c 128,-1,60
 379 42 379 42 413 42 c 2,61,-1
 436 42 l 1,62,-1
 436 0 l 1,63,-1
 129 0 l 1,0,-1
EndSplineSet
EndChar

StartChar: brokenbar
Encoding: 103 166 104
Width: 559
Flags: W
LayerCount: 2
Fore
SplineSet
249 360 m 1,0,-1
 249 760 l 1,1,-1
 309 760 l 1,2,-1
 309 360 l 1,3,-1
 249 360 l 1,0,-1
249 -240 m 1,4,-1
 249 160 l 1,5,-1
 309 160 l 1,6,-1
 309 -240 l 1,7,-1
 249 -240 l 1,4,-1
EndSplineSet
EndChar

StartChar: section
Encoding: 104 167 105
Width: 544
Flags: W
LayerCount: 2
Fore
SplineSet
272 -114 m 0,0,1
 195 -114 195 -114 148 -84 c 128,-1,2
 101 -54 101 -54 101 2 c 0,3,4
 101 29 101 29 112 44.5 c 128,-1,5
 123 60 123 60 137.5 66 c 128,-1,6
 152 72 152 72 164 72 c 1,7,8
 164 37 164 37 176 5.5 c 128,-1,9
 188 -26 188 -26 213.5 -45.5 c 128,-1,10
 239 -65 239 -65 279 -65 c 0,11,12
 341 -65 341 -65 371 -38 c 128,-1,13
 401 -11 401 -11 401 35 c 0,14,15
 401 57 401 57 395.5 73.5 c 128,-1,16
 390 90 390 90 372 106 c 128,-1,17
 354 122 354 122 319 142 c 128,-1,18
 284 162 284 162 225 191 c 0,19,20
 146 230 146 230 112 273.5 c 128,-1,21
 78 317 78 317 78 377 c 0,22,23
 78 415 78 415 95 443 c 128,-1,24
 112 471 112 471 137 489 c 1,25,26
 119 511 119 511 109.5 538 c 128,-1,27
 100 565 100 565 100 601 c 0,28,29
 100 677 100 677 152.5 718.5 c 128,-1,30
 205 760 205 760 284 760 c 0,31,32
 366 760 366 760 406.5 728 c 128,-1,33
 447 696 447 696 447 648 c 0,34,35
 447 616 447 616 427.5 601.5 c 128,-1,36
 408 587 408 587 376 587 c 1,37,38
 376 618 376 618 367 646 c 128,-1,39
 358 674 358 674 337 692 c 128,-1,40
 316 710 316 710 280 710 c 0,41,42
 231 710 231 710 203 685 c 128,-1,43
 175 660 175 660 175 613 c 0,44,45
 175 578 175 578 192.5 556.5 c 128,-1,46
 210 535 210 535 245 518 c 128,-1,47
 280 501 280 501 330 476 c 0,48,49
 415 435 415 435 454 392.5 c 128,-1,50
 493 350 493 350 493 291 c 0,51,52
 493 254 493 254 474.5 220.5 c 128,-1,53
 456 187 456 187 433 164 c 1,54,55
 447 145 447 145 455.5 120.5 c 128,-1,56
 464 96 464 96 464 65 c 0,57,58
 464 -14 464 -14 418.5 -64 c 128,-1,59
 373 -114 373 -114 272 -114 c 0,0,1
401 199 m 1,60,61
 409 211 409 211 414.5 225.5 c 128,-1,62
 420 240 420 240 420 256 c 0,63,64
 420 279 420 279 410.5 299 c 128,-1,65
 401 319 401 319 373.5 340.5 c 128,-1,66
 346 362 346 362 292 388 c 0,67,68
 256 405 256 405 224.5 422 c 128,-1,69
 193 439 193 439 167 459 c 1,70,71
 157 449 157 449 149.5 435.5 c 128,-1,72
 142 422 142 422 142 402 c 0,73,74
 142 375 142 375 155 355 c 128,-1,75
 168 335 168 335 199.5 314.5 c 128,-1,76
 231 294 231 294 288 266 c 0,77,78
 318 251 318 251 347.5 235.5 c 128,-1,79
 377 220 377 220 401 199 c 1,60,61
EndSplineSet
EndChar

StartChar: dieresis
Encoding: 105 168 106
Width: 577
Flags: W
LayerCount: 2
Fore
SplineSet
383 632 m 0,0,1
 361 632 361 632 346.5 644.5 c 128,-1,2
 332 657 332 657 332 688 c 0,3,4
 332 720 332 720 346.5 732 c 128,-1,5
 361 744 361 744 383 744 c 0,6,7
 404 744 404 744 419 732 c 128,-1,8
 434 720 434 720 434 688 c 0,9,10
 434 657 434 657 419 644.5 c 128,-1,11
 404 632 404 632 383 632 c 0,0,1
193 632 m 0,12,13
 171 632 171 632 156.5 644.5 c 128,-1,14
 142 657 142 657 142 688 c 0,15,16
 142 720 142 720 156.5 732 c 128,-1,17
 171 744 171 744 193 744 c 0,18,19
 214 744 214 744 229 732 c 128,-1,20
 244 720 244 720 244 688 c 0,21,22
 244 657 244 657 229 644.5 c 128,-1,23
 214 632 214 632 193 632 c 0,12,13
EndSplineSet
EndChar

StartChar: copyright
Encoding: 106 169 107
Width: 845
Flags: W
LayerCount: 2
Fore
SplineSet
422 -10 m 0,0,1
 316 -10 316 -10 233 35.5 c 128,-1,2
 150 81 150 81 102.5 163.5 c 128,-1,3
 55 246 55 246 55 358 c 0,4,5
 55 469 55 469 102 551.5 c 128,-1,6
 149 634 149 634 232 679.5 c 128,-1,7
 315 725 315 725 422 725 c 256,8,9
 529 725 529 725 612 679.5 c 128,-1,10
 695 634 695 634 742.5 551.5 c 128,-1,11
 790 469 790 469 790 357 c 0,12,13
 790 246 790 246 742.5 163.5 c 128,-1,14
 695 81 695 81 612 35.5 c 128,-1,15
 529 -10 529 -10 422 -10 c 0,0,1
423 45 m 0,16,17
 516 45 516 45 585.5 83.5 c 128,-1,18
 655 122 655 122 693.5 192.5 c 128,-1,19
 732 263 732 263 732 358 c 0,20,21
 732 454 732 454 693 524 c 128,-1,22
 654 594 654 594 584.5 632 c 128,-1,23
 515 670 515 670 423 670 c 0,24,25
 332 670 332 670 262 632 c 128,-1,26
 192 594 192 594 152.5 524 c 128,-1,27
 113 454 113 454 113 357 c 0,28,29
 113 259 113 259 153 189 c 128,-1,30
 193 119 193 119 263 82 c 128,-1,31
 333 45 333 45 423 45 c 0,16,17
428 129 m 0,32,33
 325 129 325 129 273.5 192 c 128,-1,34
 222 255 222 255 222 358 c 0,35,36
 222 459 222 459 278 522 c 128,-1,37
 334 585 334 585 442 585 c 0,38,39
 513 585 513 585 548 564 c 128,-1,40
 583 543 583 543 583 512 c 0,41,42
 583 490 583 490 562.5 477 c 128,-1,43
 542 464 542 464 513 464 c 1,44,45
 513 493 513 493 497 517.5 c 128,-1,46
 481 542 481 542 440 542 c 0,47,48
 367 542 367 542 336.5 494.5 c 128,-1,49
 306 447 306 447 306 358 c 0,50,51
 306 270 306 270 341 221.5 c 128,-1,52
 376 173 376 173 441 173 c 0,53,54
 488 173 488 173 521 195.5 c 128,-1,55
 554 218 554 218 567 243 c 1,56,57
 582 233 582 233 582 211 c 0,58,59
 582 183 582 183 543.5 156 c 128,-1,60
 505 129 505 129 428 129 c 0,32,33
EndSplineSet
EndChar

StartChar: ordfeminine
Encoding: 107 170 108
Width: 382
GlyphClass: 2
Flags: W
AnchorPoint: "+BBEENQQ3BEsEPARPBD0EPQQ+BDUA--1" 188 719 basechar 0
AnchorPoint: "+BBEENQQ3BEsEPARPBD0EPQQ+BDUA--0" 182 386 basechar 0
LayerCount: 2
Fore
SplineSet
139 380 m 0,0,1
 91 380 91 380 63 406 c 128,-1,2
 35 432 35 432 35 482 c 256,3,4
 35 532 35 532 75 555.5 c 128,-1,5
 115 579 115 579 196 583 c 2,6,-1
 239 585 l 1,7,-1
 239 614 l 2,8,9
 239 644 239 644 230.5 663 c 128,-1,10
 222 682 222 682 189 682 c 0,11,12
 159 682 159 682 150 662.5 c 128,-1,13
 141 643 141 643 141 614 c 1,14,15
 104 614 104 614 83 624 c 128,-1,16
 62 634 62 634 62 657 c 0,17,18
 62 691 62 691 100 705 c 128,-1,19
 138 719 138 719 191 719 c 0,20,21
 257 719 257 719 289.5 694.5 c 128,-1,22
 322 670 322 670 322 611 c 2,23,-1
 322 459 l 2,24,25
 322 437 322 437 331.5 428.5 c 128,-1,26
 341 420 341 420 365 420 c 1,27,-1
 365 386 l 1,28,-1
 268 386 l 1,29,-1
 250 432 l 1,30,-1
 245 432 l 1,31,32
 228 413 228 413 202.5 396.5 c 128,-1,33
 177 380 177 380 139 380 c 0,0,1
168 426 m 0,34,35
 201 426 201 426 220 448.5 c 128,-1,36
 239 471 239 471 239 506 c 2,37,-1
 239 553 l 1,38,-1
 208 552 l 2,39,40
 159 551 159 551 140.5 532.5 c 128,-1,41
 122 514 122 514 122 481 c 0,42,43
 122 450 122 450 135.5 438 c 128,-1,44
 149 426 149 426 168 426 c 0,34,35
EndSplineSet
EndChar

StartChar: guillemotleft
Encoding: 108 171 109
Width: 514
Flags: W
LayerCount: 2
Fore
SplineSet
399 80 m 1,0,-1
 246 254 l 1,1,-1
 246 286 l 1,2,-1
 399 460 l 1,3,-1
 449 460 l 1,4,-1
 348 270 l 1,5,-1
 449 80 l 1,6,-1
 399 80 l 1,0,-1
218 80 m 1,7,-1
 65 254 l 1,8,-1
 65 286 l 1,9,-1
 218 460 l 1,10,-1
 268 460 l 1,11,-1
 167 270 l 1,12,-1
 268 80 l 1,13,-1
 218 80 l 1,7,-1
EndSplineSet
EndChar

StartChar: logicalnot
Encoding: 109 172 110
Width: 559
Flags: W
LayerCount: 2
Fore
SplineSet
434 123 m 1,0,-1
 434 328 l 1,1,-1
 65 328 l 1,2,-1
 65 387 l 1,3,-1
 494 387 l 1,4,-1
 494 123 l 1,5,-1
 434 123 l 1,0,-1
EndSplineSet
EndChar

StartChar: registered
Encoding: 111 174 112
Width: 845
Flags: W
LayerCount: 2
Fore
SplineSet
422 -10 m 0,0,1
 316 -10 316 -10 233 35.5 c 128,-1,2
 150 81 150 81 102.5 163.5 c 128,-1,3
 55 246 55 246 55 358 c 0,4,5
 55 469 55 469 102 551.5 c 128,-1,6
 149 634 149 634 232 679.5 c 128,-1,7
 315 725 315 725 422 725 c 256,8,9
 529 725 529 725 612 679.5 c 128,-1,10
 695 634 695 634 742.5 551.5 c 128,-1,11
 790 469 790 469 790 357 c 0,12,13
 790 246 790 246 742.5 163.5 c 128,-1,14
 695 81 695 81 612 35.5 c 128,-1,15
 529 -10 529 -10 422 -10 c 0,0,1
423 45 m 0,16,17
 516 45 516 45 585.5 83.5 c 128,-1,18
 655 122 655 122 693.5 192.5 c 128,-1,19
 732 263 732 263 732 358 c 0,20,21
 732 454 732 454 693 524 c 128,-1,22
 654 594 654 594 584.5 632 c 128,-1,23
 515 670 515 670 423 670 c 0,24,25
 332 670 332 670 262 632 c 128,-1,26
 192 594 192 594 152.5 524 c 128,-1,27
 113 454 113 454 113 357 c 0,28,29
 113 259 113 259 153 189 c 128,-1,30
 193 119 193 119 263 82 c 128,-1,31
 333 45 333 45 423 45 c 0,16,17
230 141 m 1,32,-1
 230 175 l 1,33,-1
 243 175 l 2,34,35
 263 175 263 175 277.5 181 c 128,-1,36
 292 187 292 187 292 210 c 2,37,-1
 292 503 l 2,38,39
 292 526 292 526 277.5 532 c 128,-1,40
 263 538 263 538 243 538 c 2,41,-1
 230 538 l 1,42,-1
 230 573 l 1,43,-1
 413 573 l 2,44,45
 585 573 585 573 585 456 c 0,46,47
 585 407 585 407 557.5 381.5 c 128,-1,48
 530 356 530 356 494 344 c 1,49,-1
 583 202 l 2,50,51
 594 186 594 186 604 180.5 c 128,-1,52
 614 175 614 175 639 175 c 1,53,-1
 639 141 l 1,54,-1
 530 141 l 1,55,-1
 420 327 l 1,56,-1
 370 327 l 1,57,-1
 370 210 l 2,58,59
 370 187 370 187 385 181 c 128,-1,60
 400 175 400 175 419 175 c 2,61,-1
 433 175 l 1,62,-1
 433 141 l 1,63,-1
 230 141 l 1,32,-1
412 368 m 2,64,65
 465 368 465 368 485.5 388 c 128,-1,66
 506 408 506 408 506 451 c 0,67,68
 506 497 506 497 484 514 c 128,-1,69
 462 531 462 531 409 531 c 2,70,-1
 370 531 l 1,71,-1
 370 368 l 1,72,-1
 412 368 l 2,64,65
EndSplineSet
EndChar

StartChar: overscore
Encoding: 112 175 113
Width: 459
Flags: W
LayerCount: 2
Fore
SplineSet
-5 760 m 1,0,-1
 -5 819 l 1,1,-1
 464 819 l 1,2,-1
 464 760 l 1,3,-1
 -5 760 l 1,0,-1
EndSplineSet
Substitution2: "'smcp' Lowercase to Small Capitals lookup 37 subtable" overscore.sc
Substitution2: "'c2sc' +BBoEMAQ/BDgEQgQ1BDsETAAA +BDgENwAA +BD8EQAQ+BD8EOARBBD0ESwRF lookup 36 subtable" overscore.sc
Substitution2: "'aalt' +BBIEQQQ1 +BDAEOwRMBEIENQRABD0EMARCBDgEMgQ9BEsENQAA +BDIEMARABDgEMAQ9BEIESwAA lookup 0 subtable" overscore.sc
EndChar

StartChar: degree
Encoding: 113 176 114
Width: 400
Flags: W
LayerCount: 2
Fore
SplineSet
199 423 m 0,0,1
 132 423 132 423 90 465 c 128,-1,2
 48 507 48 507 48 574 c 256,3,4
 48 641 48 641 90 683.5 c 128,-1,5
 132 726 132 726 199 726 c 0,6,7
 267 726 267 726 309 683.5 c 128,-1,8
 351 641 351 641 351 574 c 256,9,10
 351 507 351 507 309 465 c 128,-1,11
 267 423 267 423 199 423 c 0,0,1
200 482 m 0,12,13
 241 482 241 482 263.5 507 c 128,-1,14
 286 532 286 532 286 574 c 0,15,16
 286 617 286 617 263 642 c 128,-1,17
 240 667 240 667 200 667 c 0,18,19
 161 667 161 667 137.5 642 c 128,-1,20
 114 617 114 617 114 574 c 0,21,22
 114 532 114 532 137 507 c 128,-1,23
 160 482 160 482 200 482 c 0,12,13
EndSplineSet
EndChar

StartChar: plusminus
Encoding: 114 177 115
Width: 559
Flags: W
LayerCount: 2
Fore
SplineSet
249 143 m 1,0,-1
 249 328 l 1,1,-1
 65 328 l 1,2,-1
 65 387 l 1,3,-1
 249 387 l 1,4,-1
 249 572 l 1,5,-1
 309 572 l 1,6,-1
 309 387 l 1,7,-1
 494 387 l 1,8,-1
 494 328 l 1,9,-1
 309 328 l 1,10,-1
 309 143 l 1,11,-1
 249 143 l 1,0,-1
65 0 m 1,12,-1
 65 59 l 1,13,-1
 494 59 l 1,14,-1
 494 0 l 1,15,-1
 65 0 l 1,12,-1
EndSplineSet
EndChar

StartChar: uni00B2
Encoding: 115 178 116
Width: 400
Flags: W
LayerCount: 2
Fore
SplineSet
42 387 m 1,0,-1
 42 432 l 1,1,-1
 169 546 l 2,2,3
 213 586 213 586 230 627.5 c 128,-1,4
 247 669 247 669 247 709 c 0,5,6
 247 742 247 742 233.5 763.5 c 128,-1,7
 220 785 220 785 188 785 c 0,8,9
 151 785 151 785 136.5 759 c 128,-1,10
 122 733 122 733 122 698 c 1,11,12
 88 698 88 698 69 706.5 c 128,-1,13
 50 715 50 715 50 741 c 0,14,15
 50 777 50 777 85 801 c 128,-1,16
 120 825 120 825 188 825 c 0,17,18
 258 825 258 825 297.5 797.5 c 128,-1,19
 337 770 337 770 337 717 c 0,20,21
 337 686 337 686 327 659 c 128,-1,22
 317 632 317 632 293.5 604.5 c 128,-1,23
 270 577 270 577 228 541 c 2,24,-1
 122 450 l 1,25,-1
 267 450 l 2,26,27
 290 450 290 450 299 462.5 c 128,-1,28
 308 475 308 475 311 491 c 2,29,-1
 315 512 l 1,30,-1
 349 512 l 1,31,-1
 346 387 l 1,32,-1
 42 387 l 1,0,-1
EndSplineSet
EndChar

StartChar: uni00B3
Encoding: 116 179 117
Width: 400
Flags: W
LayerCount: 2
Fore
SplineSet
174 380 m 0,0,1
 109 380 109 380 74.5 402.5 c 128,-1,2
 40 425 40 425 40 462 c 0,3,4
 40 484 40 484 52.5 497.5 c 128,-1,5
 65 511 65 511 86 511 c 1,6,7
 86 480 86 480 107 452.5 c 128,-1,8
 128 425 128 425 171 425 c 0,9,10
 212 425 212 425 236 445.5 c 128,-1,11
 260 466 260 466 260 512 c 0,12,13
 260 547 260 547 234.5 568 c 128,-1,14
 209 589 209 589 154 589 c 2,15,-1
 121 589 l 1,16,-1
 121 630 l 1,17,-1
 154 630 l 2,18,19
 192 630 192 630 217.5 653 c 128,-1,20
 243 676 243 676 243 716 c 0,21,22
 243 749 243 749 230 766.5 c 128,-1,23
 217 784 217 784 186 784 c 0,24,25
 148 784 148 784 134 758 c 128,-1,26
 120 732 120 732 120 697 c 1,27,28
 86 697 86 697 66 705.5 c 128,-1,29
 46 714 46 714 46 740 c 0,30,31
 46 776 46 776 82 800 c 128,-1,32
 118 824 118 824 186 824 c 0,33,34
 253 824 253 824 293.5 798 c 128,-1,35
 334 772 334 772 334 725 c 0,36,37
 334 682 334 682 303.5 655.5 c 128,-1,38
 273 629 273 629 232 617 c 1,39,-1
 232 612 l 1,40,41
 259 608 259 608 286.5 598 c 128,-1,42
 314 588 314 588 332.5 568 c 128,-1,43
 351 548 351 548 351 511 c 0,44,45
 351 462 351 462 323.5 433.5 c 128,-1,46
 296 405 296 405 255 392.5 c 128,-1,47
 214 380 214 380 174 380 c 0,0,1
EndSplineSet
EndChar

StartChar: acute
Encoding: 117 180 118
Width: 274
Flags: W
LayerCount: 2
Fore
SplineSet
40 619 m 1,0,1
 62 648 62 648 86.5 690 c 128,-1,2
 111 732 111 732 127 766 c 1,3,-1
 234 766 l 1,4,-1
 234 756 l 1,5,6
 222 739 222 739 195 710 c 128,-1,7
 168 681 168 681 136.5 652.5 c 128,-1,8
 105 624 105 624 78 606 c 1,9,-1
 40 606 l 1,10,-1
 40 619 l 1,0,1
EndSplineSet
EndChar

StartChar: uni00B5
Encoding: 118 181 119
Width: 615
Flags: W
LayerCount: 2
Fore
SplineSet
167 -240 m 0,0,1
 136 -240 136 -240 111 -214 c 128,-1,2
 86 -188 86 -188 86 -121 c 0,3,4
 86 -61 86 -61 91.5 19.5 c 128,-1,5
 97 100 97 100 98 225 c 2,6,-1
 98 536 l 1,7,-1
 192 536 l 1,8,-1
 192 200 l 2,9,10
 192 135 192 135 213 94.5 c 128,-1,11
 234 54 234 54 292 54 c 0,12,13
 348 54 348 54 380.5 98.5 c 128,-1,14
 413 143 413 143 413 216 c 2,15,-1
 413 536 l 1,16,-1
 507 536 l 1,17,-1
 507 129 l 2,18,19
 507 85 507 85 527.5 63.5 c 128,-1,20
 548 42 548 42 570 42 c 2,21,-1
 573 42 l 1,22,-1
 573 0 l 1,23,-1
 519 0 l 2,24,25
 440 0 440 0 422 80 c 1,26,-1
 418 80 l 1,27,28
 395 40 395 40 363 15 c 128,-1,29
 331 -10 331 -10 278 -10 c 0,30,31
 236 -10 236 -10 206 5.5 c 128,-1,32
 176 21 176 21 156 49 c 1,33,34
 157 -6 157 -6 162 -49.5 c 128,-1,35
 167 -93 167 -93 183.5 -120 c 128,-1,36
 200 -147 200 -147 237 -153 c 1,37,38
 237 -190 237 -190 220 -215 c 128,-1,39
 203 -240 203 -240 167 -240 c 0,0,1
EndSplineSet
EndChar

StartChar: paragraph
Encoding: 119 182 120
Width: 617
Flags: W
LayerCount: 2
Fore
SplineSet
169 -111 m 1,0,-1
 169 -69 l 1,1,-1
 182 -69 l 2,2,3
 216 -69 216 -69 240 -56.5 c 128,-1,4
 264 -44 264 -44 264 3 c 2,5,-1
 264 386 l 1,6,-1
 193 386 l 2,7,8
 135 386 135 386 101.5 413.5 c 128,-1,9
 68 441 68 441 54 485.5 c 128,-1,10
 40 530 40 530 40 582 c 0,11,12
 40 662 40 662 75 711 c 128,-1,13
 110 760 110 760 195 760 c 2,14,-1
 576 760 l 1,15,-1
 576 718 l 1,16,-1
 563 718 l 2,17,18
 529 718 529 718 505 705.5 c 128,-1,19
 481 693 481 693 481 646 c 2,20,-1
 481 3 l 2,21,22
 481 -44 481 -44 505 -56.5 c 128,-1,23
 529 -69 529 -69 563 -69 c 2,24,-1
 576 -69 l 1,25,-1
 576 -111 l 1,26,-1
 420 -111 l 1,27,-1
 420 709 l 1,28,-1
 325 709 l 1,29,-1
 325 -111 l 1,30,-1
 169 -111 l 1,0,-1
EndSplineSet
EndChar

StartChar: periodcentered
Encoding: 120 183 121
Width: 250
Flags: W
LayerCount: 2
Fore
SplineSet
125 288 m 256,0,1
 99 288 99 288 80.5 303 c 128,-1,2
 62 318 62 318 62 356 c 0,3,4
 62 395 62 395 80.5 409.5 c 128,-1,5
 99 424 99 424 125 424 c 256,6,7
 151 424 151 424 169.5 409.5 c 128,-1,8
 188 395 188 395 188 356 c 0,9,10
 188 318 188 318 169.5 303 c 128,-1,11
 151 288 151 288 125 288 c 256,0,1
EndSplineSet
EndChar

StartChar: cedilla
Encoding: 121 184 122
Width: 333
Flags: W
LayerCount: 2
Fore
SplineSet
137 -240 m 0,0,1
 121 -240 121 -240 99.5 -237 c 128,-1,2
 78 -234 78 -234 60 -229 c 1,3,-1
 60 -178 l 1,4,5
 98 -186 98 -186 128 -186 c 0,6,7
 157 -186 157 -186 173 -170.5 c 128,-1,8
 189 -155 189 -155 189 -130 c 0,9,10
 189 -101 189 -101 167.5 -86 c 128,-1,11
 146 -71 146 -71 114 -69 c 1,12,-1
 135 9 l 1,13,-1
 182 9 l 1,14,-1
 172 -34 l 1,15,16
 221 -38 221 -38 245 -62 c 128,-1,17
 269 -86 269 -86 269 -126 c 0,18,19
 269 -179 269 -179 235 -209.5 c 128,-1,20
 201 -240 201 -240 137 -240 c 0,0,1
EndSplineSet
EndChar

StartChar: uni00B9
Encoding: 122 185 123
Width: 400
Flags: W
LayerCount: 2
Fore
SplineSet
62 387 m 1,0,-1
 62 421 l 1,1,-1
 117 421 l 2,2,3
 134 421 134 421 146 427.5 c 128,-1,4
 158 434 158 434 158 459 c 2,5,-1
 158 747 l 1,6,7
 128 720 128 720 114 711.5 c 128,-1,8
 100 703 100 703 78 703 c 0,9,10
 62 703 62 703 52 714.5 c 128,-1,11
 42 726 42 726 42 744 c 1,12,13
 57 747 57 747 72 749.5 c 128,-1,14
 87 752 87 752 113 765 c 128,-1,15
 139 778 139 778 186 810 c 2,16,-1
 198 819 l 1,17,-1
 248 819 l 1,18,-1
 248 459 l 2,19,20
 248 434 248 434 260.5 427.5 c 128,-1,21
 273 421 273 421 290 421 c 2,22,-1
 336 421 l 1,23,-1
 336 387 l 1,24,-1
 62 387 l 1,0,-1
EndSplineSet
EndChar

StartChar: ordmasculine
Encoding: 123 186 124
Width: 397
GlyphClass: 2
Flags: W
AnchorPoint: "+BBEENQQ3BEsEPARPBD0EPQQ+BDUA--1" 197 719 basechar 0
AnchorPoint: "+BBEENQQ3BEsEPARPBD0EPQQ+BDUA--0" 195 383 basechar 0
LayerCount: 2
Fore
SplineSet
198 380 m 0,0,1
 121 380 121 380 78 422.5 c 128,-1,2
 35 465 35 465 35 550 c 0,3,4
 35 719 35 719 200 719 c 0,5,6
 275 719 275 719 318.5 677.5 c 128,-1,7
 362 636 362 636 362 550 c 0,8,9
 362 465 362 465 320 422.5 c 128,-1,10
 278 380 278 380 198 380 c 0,0,1
199 420 m 0,11,12
 241 420 241 420 258.5 453 c 128,-1,13
 276 486 276 486 276 550 c 256,14,15
 276 614 276 614 258 645.5 c 128,-1,16
 240 677 240 677 198 677 c 256,17,18
 156 677 156 677 139 645.5 c 128,-1,19
 122 614 122 614 122 550 c 256,20,21
 122 486 122 486 139 453 c 128,-1,22
 156 420 156 420 199 420 c 0,11,12
EndSplineSet
EndChar

StartChar: guillemotright
Encoding: 124 187 125
Width: 514
Flags: W
LayerCount: 2
Fore
SplineSet
246 80 m 1,0,-1
 347 270 l 1,1,-1
 246 460 l 1,2,-1
 296 460 l 1,3,-1
 449 286 l 1,4,-1
 449 254 l 1,5,-1
 296 80 l 1,6,-1
 246 80 l 1,0,-1
65 80 m 1,7,-1
 166 270 l 1,8,-1
 65 460 l 1,9,-1
 115 460 l 1,10,-1
 268 286 l 1,11,-1
 268 254 l 1,12,-1
 115 80 l 1,13,-1
 65 80 l 1,7,-1
EndSplineSet
EndChar

StartChar: Aring
Encoding: 134 197 135
Width: 705
GlyphClass: 2
Flags: W
AnchorPoint: "+BBEENQQ3BEsEPARPBD0EPQQ+BDUA--1" 353 883 basechar 0
AnchorPoint: "+BBEENQQ3BEsEPARPBD0EPQQ+BDUA--0" 353 0 basechar 0
LayerCount: 2
Fore
SplineSet
0 0 m 1,0,-1
 0 42 l 1,1,-1
 19 42 l 2,2,3
 48 42 48 42 62.5 57 c 128,-1,4
 77 72 77 72 95 120 c 2,5,-1
 302 673 l 1,6,7
 271 684 271 684 252.5 709.5 c 128,-1,8
 234 735 234 735 234 774 c 0,9,10
 234 827 234 827 269 855 c 128,-1,11
 304 883 304 883 354 883 c 256,12,13
 404 883 404 883 439 855 c 128,-1,14
 474 827 474 827 474 774 c 0,15,16
 474 737 474 737 456 711.5 c 128,-1,17
 438 686 438 686 409 675 c 1,18,-1
 621 95 l 2,19,20
 632 64 632 64 647.5 53 c 128,-1,21
 663 42 663 42 692 42 c 2,22,-1
 705 42 l 1,23,-1
 705 0 l 1,24,-1
 430 0 l 1,25,-1
 430 42 l 1,26,-1
 453 42 l 2,27,28
 513 42 513 42 513 90 c 0,29,30
 513 98 513 98 511 107 c 128,-1,31
 509 116 509 116 505 127 c 2,32,-1
 465 239 l 1,33,-1
 202 239 l 1,34,-1
 164 134 l 2,35,36
 155 110 155 110 155 91 c 0,37,38
 155 42 155 42 221 42 c 2,39,-1
 244 42 l 1,40,-1
 244 0 l 1,41,-1
 0 0 l 1,0,-1
354 714 m 256,42,43
 381 714 381 714 400.5 728 c 128,-1,44
 420 742 420 742 420 774 c 256,45,46
 420 806 420 806 400.5 820 c 128,-1,47
 381 834 381 834 354 834 c 256,48,49
 327 834 327 834 307.5 820 c 128,-1,50
 288 806 288 806 288 774 c 256,51,52
 288 742 288 742 307.5 728 c 128,-1,53
 327 714 327 714 354 714 c 256,42,43
221 289 m 1,54,-1
 447 289 l 1,55,-1
 385 464 l 2,56,57
 369 508 369 508 356 547 c 128,-1,58
 343 586 343 586 335 622 c 1,59,60
 328 586 328 586 317 553 c 128,-1,61
 306 520 306 520 289 473 c 2,62,-1
 221 289 l 1,54,-1
EndSplineSet
Substitution2: "'c2sc' +BBoEMAQ/BDgEQgQ1BDsETAAA +BDgENwAA +BD8EQAQ+BD8EOARBBD0ESwRF lookup 36 subtable" aring.sc
Substitution2: "'aalt' +BBIEQQQ1 +BDAEOwRMBEIENQRABD0EMARCBDgEMgQ9BEsENQAA +BDIEMARABDgEMAQ9BEIESwAA lookup 0 subtable" aring.sc
EndChar

StartChar: AE
Encoding: 135 198 136
Width: 951
GlyphClass: 2
Flags: W
AnchorPoint: "+BBEENQQ3BEsEPARPBD0EPQQ+BDUA--1" 476 714 basechar 0
AnchorPoint: "+BBEENQQ3BEsEPARPBD0EPQQ+BDUA--0" 476 0 basechar 0
LayerCount: 2
Fore
SplineSet
0 0 m 1,0,-1
 0 42 l 1,1,-1
 16 42 l 2,2,3
 42 42 42 42 63 61 c 128,-1,4
 84 80 84 80 105 120 c 2,5,-1
 394 667 l 1,6,-1
 316 672 l 1,7,-1
 316 714 l 1,8,-1
 870 714 l 1,9,-1
 875 539 l 1,10,-1
 823 539 l 1,11,-1
 818 582 l 2,12,13
 814 615 814 615 794.5 639 c 128,-1,14
 775 663 775 663 730 664 c 2,15,-1
 562 664 l 1,16,-1
 562 398 l 1,17,-1
 803 398 l 1,18,-1
 803 349 l 1,19,-1
 562 349 l 1,20,-1
 562 50 l 1,21,-1
 755 50 l 2,22,23
 802 50 802 50 823.5 74.5 c 128,-1,24
 845 99 845 99 850 132 c 2,25,-1
 857 175 l 1,26,-1
 909 175 l 1,27,-1
 902 0 l 1,28,-1
 366 0 l 1,29,-1
 366 42 l 1,30,-1
 379 42 l 2,31,32
 412 42 412 42 436 53.5 c 128,-1,33
 460 65 460 65 461 109 c 2,34,-1
 461 239 l 1,35,-1
 231 239 l 1,36,-1
 176 134 l 2,37,38
 168 118 168 118 164 104 c 128,-1,39
 160 90 160 90 160 81 c 0,40,41
 160 42 160 42 220 42 c 2,42,-1
 243 42 l 1,43,-1
 243 0 l 1,44,-1
 0 0 l 1,0,-1
257 289 m 1,45,-1
 461 289 l 1,46,-1
 461 664 l 1,47,-1
 447 664 l 1,48,-1
 257 289 l 1,45,-1
EndSplineSet
Substitution2: "'c2sc' +BBoEMAQ/BDgEQgQ1BDsETAAA +BDgENwAA +BD8EQAQ+BD8EOARBBD0ESwRF lookup 36 subtable" ae.sc
Substitution2: "'aalt' +BBIEQQQ1 +BDAEOwRMBEIENQRABD0EMARCBDgEMgQ9BEsENQAA +BDIEMARABDgEMAQ9BEIESwAA lookup 0 subtable" ae.sc
EndChar

StartChar: Eth
Encoding: 145 208 146
Width: 727
GlyphClass: 2
Flags: W
AnchorPoint: "+BBEENQQ3BEsEPARPBD0EPQQ+BDUA--1" 364 714 basechar 0
AnchorPoint: "+BBEENQQ3BEsEPARPBD0EPQQ+BDUA--0" 364 0 basechar 0
LayerCount: 2
Fore
SplineSet
38 0 m 1,0,-1
 38 42 l 1,1,-1
 51 42 l 2,2,3
 85 42 85 42 109 54.5 c 128,-1,4
 133 67 133 67 133 114 c 2,5,-1
 133 349 l 1,6,-1
 38 349 l 1,7,-1
 38 398 l 1,8,-1
 133 398 l 1,9,-1
 133 604 l 2,10,11
 133 648 133 648 108.5 660 c 128,-1,12
 84 672 84 672 51 672 c 2,13,-1
 38 672 l 1,14,-1
 38 714 l 1,15,-1
 344 714 l 2,16,17
 499 714 499 714 584.5 621 c 128,-1,18
 670 528 670 528 670 358 c 0,19,20
 670 249 670 249 633.5 168.5 c 128,-1,21
 597 88 597 88 525 44 c 128,-1,22
 453 0 453 0 344 0 c 2,23,-1
 38 0 l 1,0,-1
321 51 m 2,24,25
 440 51 440 51 499.5 130.5 c 128,-1,26
 559 210 559 210 559 358 c 0,27,28
 559 507 559 507 500 585.5 c 128,-1,29
 441 664 441 664 322 664 c 2,30,-1
 234 664 l 1,31,-1
 234 398 l 1,32,-1
 404 398 l 1,33,-1
 404 349 l 1,34,-1
 234 349 l 1,35,-1
 234 51 l 1,36,-1
 321 51 l 2,24,25
EndSplineSet
Substitution2: "'c2sc' +BBoEMAQ/BDgEQgQ1BDsETAAA +BDgENwAA +BD8EQAQ+BD8EOARBBD0ESwRF lookup 36 subtable" eth.sc
Substitution2: "'aalt' +BBIEQQQ1 +BDAEOwRMBEIENQRABD0EMARCBDgEMgQ9BEsENQAA +BDIEMARABDgEMAQ9BEIESwAA lookup 0 subtable" eth.sc
EndChar

StartChar: multiply
Encoding: 152 215 153
Width: 559
Flags: W
LayerCount: 2
Fore
SplineSet
113 150 m 1,0,-1
 71 193 l 1,1,-1
 237 359 l 1,2,-1
 71 524 l 1,3,-1
 113 566 l 1,4,-1
 279 400 l 1,5,-1
 445 567 l 1,6,-1
 487 524 l 1,7,-1
 321 358 l 1,8,-1
 487 192 l 1,9,-1
 445 150 l 1,10,-1
 279 316 l 1,11,-1
 113 150 l 1,0,-1
EndSplineSet
EndChar

StartChar: Oslash
Encoding: 153 216 154
Width: 742
GlyphClass: 2
Flags: W
AnchorPoint: "+BBEENQQ3BEsEPARPBD0EPQQ+BDUA--1" 371 714 basechar 0
AnchorPoint: "+BBEENQQ3BEsEPARPBD0EPQQ+BDUA--0" 371 0 basechar 0
LayerCount: 2
Fore
SplineSet
173 52 m 1,0,1
 114 99 114 99 85 178 c 128,-1,2
 56 257 56 257 56 359 c 0,3,4
 56 470 56 470 90.5 552 c 128,-1,5
 125 634 125 634 195.5 679.5 c 128,-1,6
 266 725 266 725 372 725 c 0,7,8
 416 725 416 725 454.5 715.5 c 128,-1,9
 493 706 493 706 525 689 c 1,10,-1
 562 755 l 1,11,-1
 620 755 l 1,12,-1
 568 661 l 1,13,14
 625 614 625 614 655 536.5 c 128,-1,15
 685 459 685 459 685 358 c 0,16,17
 685 247 685 247 648.5 164.5 c 128,-1,18
 612 82 612 82 542 36 c 128,-1,19
 472 -10 472 -10 371 -10 c 0,20,21
 282 -10 282 -10 216 24 c 1,22,-1
 181 -40 l 1,23,-1
 122 -40 l 1,24,-1
 173 52 l 1,0,1
493 631 m 1,25,26
 447 671 447 671 372 671 c 0,27,28
 260 671 260 671 213.5 589 c 128,-1,29
 167 507 167 507 167 358 c 0,30,31
 167 283 167 283 178 225 c 128,-1,32
 189 167 189 167 214 126 c 1,33,-1
 493 631 l 1,25,26
371 44 m 0,34,35
 483 44 483 44 528.5 127 c 128,-1,36
 574 210 574 210 574 358 c 0,37,38
 574 432 574 432 563 490.5 c 128,-1,39
 552 549 552 549 528 589 c 1,40,-1
 249 83 l 1,41,42
 296 44 296 44 371 44 c 0,34,35
EndSplineSet
Substitution2: "'c2sc' +BBoEMAQ/BDgEQgQ1BDsETAAA +BDgENwAA +BD8EQAQ+BD8EOARBBD0ESwRF lookup 36 subtable" oslash.sc
Substitution2: "'aalt' +BBIEQQQ1 +BDAEOwRMBEIENQRABD0EMARCBDgEMgQ9BEsENQAA +BDIEMARABDgEMAQ9BEIESwAA lookup 0 subtable" oslash.sc
EndChar

StartChar: Thorn
Encoding: 159 222 160
Width: 604
GlyphClass: 2
Flags: W
AnchorPoint: "+BBEENQQ3BEsEPARPBD0EPQQ+BDUA--1" 302 714 basechar 0
AnchorPoint: "+BBEENQQ3BEsEPARPBD0EPQQ+BDUA--0" 302 0 basechar 0
LayerCount: 2
Fore
SplineSet
38 0 m 1,0,-1
 38 42 l 1,1,-1
 51 42 l 2,2,3
 85 42 85 42 109 54.5 c 128,-1,4
 133 67 133 67 133 114 c 2,5,-1
 133 600 l 2,6,7
 133 647 133 647 109 659.5 c 128,-1,8
 85 672 85 672 51 672 c 2,9,-1
 38 672 l 1,10,-1
 38 714 l 1,11,-1
 339 714 l 1,12,-1
 339 672 l 1,13,-1
 316 672 l 2,14,15
 282 672 282 672 258 659.5 c 128,-1,16
 234 647 234 647 234 600 c 2,17,-1
 234 570 l 1,18,-1
 319 570 l 2,19,20
 445 570 445 570 505 519.5 c 128,-1,21
 565 469 565 469 565 371 c 0,22,23
 565 312 565 312 539.5 262.5 c 128,-1,24
 514 213 514 213 455 183.5 c 128,-1,25
 396 154 396 154 297 154 c 2,26,-1
 234 154 l 1,27,-1
 234 114 l 2,28,29
 234 67 234 67 258 54.5 c 128,-1,30
 282 42 282 42 316 42 c 2,31,-1
 339 42 l 1,32,-1
 339 0 l 1,33,-1
 38 0 l 1,0,-1
287 201 m 2,34,35
 348 201 348 201 385 216 c 128,-1,36
 422 231 422 231 439.5 267.5 c 128,-1,37
 457 304 457 304 457 367 c 0,38,39
 457 451 457 451 422 486.5 c 128,-1,40
 387 522 387 522 302 522 c 2,41,-1
 234 522 l 1,42,-1
 234 201 l 1,43,-1
 287 201 l 2,34,35
EndSplineSet
Substitution2: "'c2sc' +BBoEMAQ/BDgEQgQ1BDsETAAA +BDgENwAA +BD8EQAQ+BD8EOARBBD0ESwRF lookup 36 subtable" thorn.sc
Substitution2: "'aalt' +BBIEQQQ1 +BDAEOwRMBEIENQRABD0EMARCBDgEMgQ9BEsENQAA +BDIEMARABDgEMAQ9BEIESwAA lookup 0 subtable" thorn.sc
EndChar

StartChar: germandbls
Encoding: 160 223 161
Width: 647
GlyphClass: 2
Flags: W
AnchorPoint: "+BBEENQQ3BEsEPARPBD0EPQQ+BDUA--1" 324 763 basechar 0
AnchorPoint: "+BBEENQQ3BEsEPARPBD0EPQQ+BDUA--0" 324 0 basechar 0
LayerCount: 2
Fore
SplineSet
434 -10 m 0,0,1
 364 -10 364 -10 321 17 c 128,-1,2
 278 44 278 44 278 96 c 0,3,4
 278 123 278 123 288 138 c 128,-1,5
 298 153 298 153 311.5 159 c 128,-1,6
 325 165 325 165 335 165 c 1,7,8
 335 113 335 113 356.5 75.5 c 128,-1,9
 378 38 378 38 433 38 c 0,10,11
 470 38 470 38 493.5 60.5 c 128,-1,12
 517 83 517 83 517 129 c 0,13,14
 517 151 517 151 509.5 169 c 128,-1,15
 502 187 502 187 481.5 204.5 c 128,-1,16
 461 222 461 222 420 241 c 0,17,18
 378 262 378 262 349.5 283 c 128,-1,19
 321 304 321 304 307 332.5 c 128,-1,20
 293 361 293 361 293 403 c 0,21,22
 293 464 293 464 333 501 c 128,-1,23
 373 538 373 538 458 538 c 1,24,25
 458 633 458 633 429.5 675.5 c 128,-1,26
 401 718 401 718 333 718 c 0,27,28
 272 718 272 718 242 680.5 c 128,-1,29
 212 643 212 643 212 580 c 2,30,-1
 212 0 l 1,31,-1
 23 0 l 1,32,-1
 23 42 l 1,33,-1
 36 42 l 2,34,35
 70 42 70 42 94 54.5 c 128,-1,36
 118 67 118 67 118 114 c 2,37,-1
 118 489 l 1,38,-1
 37 489 l 1,39,-1
 37 536 l 1,40,-1
 118 536 l 1,41,-1
 118 566 l 2,42,43
 118 640 118 640 146.5 683 c 128,-1,44
 175 726 175 726 224 744.5 c 128,-1,45
 273 763 273 763 334 763 c 0,46,47
 417 763 417 763 464.5 731.5 c 128,-1,48
 512 700 512 700 532 639.5 c 128,-1,49
 552 579 552 579 552 491 c 1,50,-1
 479 491 l 2,51,52
 426 491 426 491 401 471 c 128,-1,53
 376 451 376 451 376 410 c 0,54,55
 376 379 376 379 398 358.5 c 128,-1,56
 420 338 420 338 480 310 c 0,57,58
 530 287 530 287 556.5 260.5 c 128,-1,59
 583 234 583 234 593 205 c 128,-1,60
 603 176 603 176 603 146 c 0,61,62
 603 70 603 70 558 30 c 128,-1,63
 513 -10 513 -10 434 -10 c 0,0,1
EndSplineSet
Substitution2: "'smcp' Lowercase to Small Capitals lookup 37 subtable" germandbls.sc
Substitution2: "'aalt' +BBIEQQQ1 +BDAEOwRMBEIENQRABD0EMARCBDgEMgQ9BEsENQAA +BDIEMARABDgEMAQ9BEIESwAA lookup 0 subtable" germandbls.sc
EndChar

StartChar: ae
Encoding: 167 230 168
Width: 841
GlyphClass: 2
Flags: W
AnchorPoint: "+BBEENQQ3BEsEPARPBD0EPQQ+BDUA--1" 421 536 basechar 0
AnchorPoint: "+BBEENQQ3BEsEPARPBD0EPQQ+BDUA--0" 421 0 basechar 0
LayerCount: 2
Fore
SplineSet
205 -10 m 0,0,1
 138 -10 138 -10 94 29 c 128,-1,2
 50 68 50 68 50 150 c 0,3,4
 50 230 50 230 106.5 268 c 128,-1,5
 163 306 163 306 278 310 c 2,6,-1
 361 313 l 1,7,-1
 361 373 l 2,8,9
 361 409 361 409 355 436.5 c 128,-1,10
 349 464 349 464 329 480 c 128,-1,11
 309 496 309 496 268 496 c 0,12,13
 230 496 230 496 210 482 c 128,-1,14
 190 468 190 468 183.5 443.5 c 128,-1,15
 177 419 177 419 177 387 c 1,16,17
 135 387 135 387 113.5 401.5 c 128,-1,18
 92 416 92 416 92 450 c 0,19,20
 92 485 92 485 116.5 506 c 128,-1,21
 141 527 141 527 182 536.5 c 128,-1,22
 223 546 223 546 272 546 c 0,23,24
 328 546 328 546 367 531.5 c 128,-1,25
 406 517 406 517 428 485 c 1,26,27
 484 546 484 546 583 546 c 0,28,29
 680 546 680 546 735.5 486 c 128,-1,30
 791 426 791 426 791 307 c 2,31,-1
 791 261 l 1,32,-1
 458 261 l 1,33,34
 460 152 460 152 497 102.5 c 128,-1,35
 534 53 534 53 613 53 c 0,36,37
 657 53 657 53 694 73.5 c 128,-1,38
 731 94 731 94 750 123 c 1,39,40
 757 120 757 120 763 111 c 128,-1,41
 769 102 769 102 769 89 c 0,42,43
 769 69 769 69 750 46 c 128,-1,44
 731 23 731 23 692.5 6.5 c 128,-1,45
 654 -10 654 -10 596 -10 c 0,46,47
 450 -10 450 -10 393 104 c 1,48,49
 374 59 374 59 326.5 24.5 c 128,-1,50
 279 -10 279 -10 205 -10 c 0,0,1
690 315 m 1,51,52
 690 395 690 395 665.5 443.5 c 128,-1,53
 641 492 641 492 581 492 c 0,54,55
 526 492 526 492 495.5 446.5 c 128,-1,56
 465 401 465 401 460 315 c 1,57,-1
 690 315 l 1,51,52
228 52 m 0,58,59
 289 52 289 52 325 89.5 c 128,-1,60
 361 127 361 127 361 191 c 2,61,-1
 361 272 l 1,62,-1
 297 269 l 2,63,64
 212 265 212 265 179.5 234.5 c 128,-1,65
 147 204 147 204 147 145 c 0,66,67
 147 52 147 52 228 52 c 0,58,59
EndSplineSet
Substitution2: "'smcp' Lowercase to Small Capitals lookup 37 subtable" ae.sc
Substitution2: "'aalt' +BBIEQQQ1 +BDAEOwRMBEIENQRABD0EMARCBDgEMgQ9BEsENQAA +BDIEMARABDgEMAQ9BEIESwAA lookup 0 subtable" ae.sc
EndChar

StartChar: eth
Encoding: 177 240 178
Width: 577
GlyphClass: 2
Flags: W
AnchorPoint: "+BBEENQQ3BEsEPARPBD0EPQQ+BDUA--1" 289 762 basechar 0
AnchorPoint: "+BBEENQQ3BEsEPARPBD0EPQQ+BDUA--0" 289 0 basechar 0
LayerCount: 2
Fore
SplineSet
287 -10 m 0,0,1
 179 -10 179 -10 117 54 c 128,-1,2
 55 118 55 118 55 249 c 0,3,4
 55 506 55 506 290 506 c 0,5,6
 323 506 323 506 351.5 499 c 128,-1,7
 380 492 380 492 405 480 c 1,8,9
 395 513 395 513 368.5 550 c 128,-1,10
 342 587 342 587 304 620 c 1,11,-1
 179 549 l 1,12,-1
 179 605 l 1,13,-1
 263 653 l 1,14,15
 238 670 238 670 210 683.5 c 128,-1,16
 182 697 182 697 150 707 c 1,17,-1
 150 761 l 1,18,19
 196 750 196 750 240 731.5 c 128,-1,20
 284 713 284 713 323 687 c 1,21,-1
 452 762 l 1,22,-1
 452 705 l 1,23,-1
 364 655 l 1,24,25
 435 597 435 597 478.5 504 c 128,-1,26
 522 411 522 411 522 291 c 0,27,28
 522 139 522 139 462.5 64.5 c 128,-1,29
 403 -10 403 -10 287 -10 c 0,0,1
289 42 m 256,30,31
 364 42 364 42 394.5 94.5 c 128,-1,32
 425 147 425 147 425 249 c 256,33,34
 425 351 425 351 394 402 c 128,-1,35
 363 453 363 453 288 453 c 256,36,37
 213 453 213 453 182.5 402 c 128,-1,38
 152 351 152 351 152 249 c 256,39,40
 152 147 152 147 183 94.5 c 128,-1,41
 214 42 214 42 289 42 c 256,30,31
EndSplineSet
Substitution2: "'smcp' Lowercase to Small Capitals lookup 37 subtable" eth.sc
Substitution2: "'aalt' +BBIEQQQ1 +BDAEOwRMBEIENQRABD0EMARCBDgEMgQ9BEsENQAA +BDIEMARABDgEMAQ9BEIESwAA lookup 0 subtable" eth.sc
EndChar

StartChar: divide
Encoding: 184 247 185
Width: 559
Flags: W
LayerCount: 2
Fore
SplineSet
280 492 m 0,0,1
 258 492 258 492 243.5 504 c 128,-1,2
 229 516 229 516 229 547 c 0,3,4
 229 579 229 579 243.5 590.5 c 128,-1,5
 258 602 258 602 280 602 c 0,6,7
 301 602 301 602 316 590.5 c 128,-1,8
 331 579 331 579 331 547 c 0,9,10
 331 516 331 516 316 504 c 128,-1,11
 301 492 301 492 280 492 c 0,0,1
65 328 m 1,12,-1
 65 387 l 1,13,-1
 494 387 l 1,14,-1
 494 328 l 1,15,-1
 65 328 l 1,12,-1
280 113 m 0,16,17
 258 113 258 113 243.5 125 c 128,-1,18
 229 137 229 137 229 168 c 0,19,20
 229 200 229 200 243.5 211.5 c 128,-1,21
 258 223 258 223 280 223 c 0,22,23
 301 223 301 223 316 211.5 c 128,-1,24
 331 200 331 200 331 168 c 0,25,26
 331 137 331 137 316 125 c 128,-1,27
 301 113 301 113 280 113 c 0,16,17
EndSplineSet
EndChar

StartChar: oslash
Encoding: 185 248 186
Width: 577
GlyphClass: 2
Flags: W
AnchorPoint: "+BBEENQQ3BEsEPARPBD0EPQQ+BDUA--1" 289 536 basechar 0
AnchorPoint: "+BBEENQQ3BEsEPARPBD0EPQQ+BDUA--0" 289 0 basechar 0
LayerCount: 2
Fore
SplineSet
126 48 m 1,0,1
 92 83 92 83 73.5 138 c 128,-1,2
 55 193 55 193 55 269 c 0,3,4
 55 409 55 409 114.5 477.5 c 128,-1,5
 174 546 174 546 290 546 c 0,6,7
 361 546 361 546 414 515 c 1,8,-1
 452 576 l 1,9,-1
 510 576 l 1,10,-1
 454 484 l 1,11,12
 487 450 487 450 504.5 396.5 c 128,-1,13
 522 343 522 343 522 269 c 0,14,15
 522 128 522 128 462.5 59 c 128,-1,16
 403 -10 403 -10 287 -10 c 0,17,18
 216 -10 216 -10 167 18 c 1,19,-1
 131 -40 l 1,20,-1
 72 -40 l 1,21,-1
 126 48 l 1,0,1
379 457 m 1,22,23
 346 493 346 493 288 493 c 0,24,25
 213 493 213 493 182.5 437 c 128,-1,26
 152 381 152 381 152 269 c 0,27,28
 152 223 152 223 157 186.5 c 128,-1,29
 162 150 162 150 172 122 c 1,30,-1
 379 457 l 1,22,23
289 42 m 0,31,32
 364 42 364 42 394.5 99.5 c 128,-1,33
 425 157 425 157 425 269 c 0,34,35
 425 356 425 356 407 408 c 1,36,-1
 201 74 l 1,37,38
 233 42 233 42 289 42 c 0,31,32
EndSplineSet
Substitution2: "'smcp' Lowercase to Small Capitals lookup 37 subtable" oslash.sc
Substitution2: "'aalt' +BBIEQQQ1 +BDAEOwRMBEIENQRABD0EMARCBDgEMgQ9BEsENQAA +BDIEMARABDgEMAQ9BEIESwAA lookup 0 subtable" oslash.sc
EndChar

StartChar: thorn
Encoding: 191 254 192
Width: 614
GlyphClass: 2
Flags: W
AnchorPoint: "+BBEENQQ3BEsEPARPBD0EPQQ+BDUA--1" 307 760 basechar 0
AnchorPoint: "+BBEENQQ3BEsEPARPBD0EPQQ+BDUA--0" 307 -240 basechar 0
LayerCount: 2
Fore
SplineSet
18 -240 m 1,0,-1
 18 -198 l 1,1,-1
 26 -198 l 2,2,3
 60 -198 60 -198 84 -185.5 c 128,-1,4
 108 -173 108 -173 108 -126 c 2,5,-1
 108 650 l 2,6,7
 108 694 108 694 83.5 706 c 128,-1,8
 59 718 59 718 26 718 c 2,9,-1
 18 718 l 1,10,-1
 18 760 l 1,11,-1
 202 760 l 1,12,-1
 202 576 l 2,13,14
 202 554 202 554 201 523 c 128,-1,15
 200 492 200 492 199 469 c 128,-1,16
 198 446 198 446 198 446 c 1,17,-1
 202 446 l 1,18,19
 225 492 225 492 261 519 c 128,-1,20
 297 546 297 546 355 546 c 0,21,22
 454 546 454 546 506.5 479.5 c 128,-1,23
 559 413 559 413 559 269 c 0,24,25
 559 124 559 124 506.5 57 c 128,-1,26
 454 -10 454 -10 355 -10 c 0,27,28
 297 -10 297 -10 260.5 14.5 c 128,-1,29
 224 39 224 39 202 78 c 1,30,-1
 198 78 l 1,31,32
 198 78 198 78 198.5 64 c 128,-1,33
 199 50 199 50 200 30 c 128,-1,34
 201 10 201 10 201.5 -8.5 c 128,-1,35
 202 -27 202 -27 202 -35 c 2,36,-1
 202 -131 l 2,37,38
 202 -175 202 -175 226.5 -186.5 c 128,-1,39
 251 -198 251 -198 284 -198 c 2,40,-1
 287 -198 l 1,41,-1
 287 -240 l 1,42,-1
 18 -240 l 1,0,-1
339 54 m 0,43,44
 405 54 405 54 433.5 109.5 c 128,-1,45
 462 165 462 165 462 270 c 0,46,47
 462 377 462 377 433.5 429.5 c 128,-1,48
 405 482 405 482 338 482 c 0,49,50
 260 482 260 482 231 429.5 c 128,-1,51
 202 377 202 377 202 269 c 0,52,53
 202 165 202 165 231 109.5 c 128,-1,54
 260 54 260 54 339 54 c 0,43,44
EndSplineSet
Substitution2: "'smcp' Lowercase to Small Capitals lookup 37 subtable" thorn.sc
Substitution2: "'aalt' +BBIEQQQ1 +BDAEOwRMBEIENQRABD0EMARCBDgEMgQ9BEsENQAA +BDIEMARABDgEMAQ9BEIESwAA lookup 0 subtable" thorn.sc
EndChar

StartChar: dcaron
Encoding: 208 271 209
Width: 614
GlyphClass: 2
Flags: W
AnchorPoint: "+BBEENQQ3BEsEPARPBD0EPQQ+BDUA--3" 307 268 basechar 0
AnchorPoint: "+BBEENQQ3BEsEPARPBD0EPQQ+BDUA--2" 574 760 basechar 0
AnchorPoint: "+BBEENQQ3BEsEPARPBD0EPQQ+BDUA--1" 307 760 basechar 0
AnchorPoint: "+BBEENQQ3BEsEPARPBD0EPQQ+BDUA--0" 307 0 basechar 0
LayerCount: 2
Fore
SplineSet
561 613 m 1,0,1
 569 646 569 646 577 685 c 128,-1,2
 585 724 585 724 591 760 c 1,3,-1
 678 760 l 1,4,-1
 678 750 l 1,5,6
 669 729 669 729 655 702 c 128,-1,7
 641 675 641 675 625 648 c 128,-1,8
 609 621 609 621 595 600 c 1,9,-1
 561 600 l 1,10,-1
 561 613 l 1,0,1
259 -10 m 0,11,12
 160 -10 160 -10 107.5 56.5 c 128,-1,13
 55 123 55 123 55 267 c 0,14,15
 55 412 55 412 107.5 479 c 128,-1,16
 160 546 160 546 259 546 c 0,17,18
 317 546 317 546 353.5 521.5 c 128,-1,19
 390 497 390 497 412 458 c 1,20,-1
 418 458 l 1,21,22
 415 483 415 483 413.5 513.5 c 128,-1,23
 412 544 412 544 412 568 c 2,24,-1
 412 650 l 2,25,26
 412 694 412 694 387.5 706 c 128,-1,27
 363 718 363 718 330 718 c 2,28,-1
 322 718 l 1,29,-1
 322 760 l 1,30,-1
 506 760 l 1,31,-1
 506 110 l 2,32,33
 506 66 506 66 530.5 54 c 128,-1,34
 555 42 555 42 588 42 c 2,35,-1
 596 42 l 1,36,-1
 596 0 l 1,37,-1
 427 0 l 1,38,-1
 416 90 l 1,39,-1
 412 90 l 1,40,41
 390 44 390 44 354 17 c 128,-1,42
 318 -10 318 -10 259 -10 c 0,11,12
276 54 m 0,43,44
 354 54 354 54 383 106.5 c 128,-1,45
 412 159 412 159 412 267 c 0,46,47
 412 371 412 371 383 426.5 c 128,-1,48
 354 482 354 482 275 482 c 0,49,50
 209 482 209 482 180.5 426.5 c 128,-1,51
 152 371 152 371 152 266 c 0,52,53
 152 160 152 160 180.5 107 c 128,-1,54
 209 54 209 54 276 54 c 0,43,44
EndSplineSet
Substitution2: "'smcp' Lowercase to Small Capitals lookup 37 subtable" dcaron.sc
Substitution2: "'aalt' +BBIEQQQ1 +BDAEOwRMBEIENQRABD0EMARCBDgEMgQ9BEsENQAA +BDIEMARABDgEMAQ9BEIESwAA lookup 0 subtable" dcaron.sc
EndChar

StartChar: dcroat
Encoding: 210 273 211
Width: 614
GlyphClass: 2
Flags: W
AnchorPoint: "+BBEENQQ3BEsEPARPBD0EPQQ+BDUA--1" 307 760 basechar 0
AnchorPoint: "+BBEENQQ3BEsEPARPBD0EPQQ+BDUA--0" 307 0 basechar 0
LayerCount: 2
Fore
SplineSet
259 -10 m 0,0,1
 160 -10 160 -10 107.5 54 c 128,-1,2
 55 118 55 118 55 257 c 0,3,4
 55 397 55 397 107.5 461.5 c 128,-1,5
 160 526 160 526 259 526 c 0,6,7
 317 526 317 526 353.5 501.5 c 128,-1,8
 390 477 390 477 412 438 c 1,9,-1
 418 438 l 1,10,11
 418 438 418 438 417 451.5 c 128,-1,12
 416 465 416 465 415 484.5 c 128,-1,13
 414 504 414 504 413 522.5 c 128,-1,14
 412 541 412 541 412 551 c 2,15,-1
 412 593 l 1,16,-1
 241 593 l 1,17,-1
 241 640 l 1,18,-1
 412 640 l 1,19,-1
 412 650 l 2,20,21
 412 694 412 694 387.5 706 c 128,-1,22
 363 718 363 718 330 718 c 2,23,-1
 322 718 l 1,24,-1
 322 760 l 1,25,-1
 506 760 l 1,26,-1
 506 640 l 1,27,-1
 597 640 l 1,28,-1
 597 593 l 1,29,-1
 506 593 l 1,30,-1
 506 110 l 2,31,32
 506 66 506 66 530.5 54 c 128,-1,33
 555 42 555 42 588 42 c 2,34,-1
 596 42 l 1,35,-1
 596 0 l 1,36,-1
 427 0 l 1,37,-1
 416 90 l 1,38,-1
 412 90 l 1,39,40
 390 44 390 44 354 17 c 128,-1,41
 318 -10 318 -10 259 -10 c 0,0,1
276 54 m 0,42,43
 354 54 354 54 383 104 c 128,-1,44
 412 154 412 154 412 257 c 0,45,46
 412 357 412 357 383 409.5 c 128,-1,47
 354 462 354 462 275 462 c 0,48,49
 209 462 209 462 180.5 409.5 c 128,-1,50
 152 357 152 357 152 256 c 256,51,52
 152 155 152 155 180.5 104.5 c 128,-1,53
 209 54 209 54 276 54 c 0,42,43
EndSplineSet
Substitution2: "'smcp' Lowercase to Small Capitals lookup 37 subtable" dcroat.sc
Substitution2: "'aalt' +BBIEQQQ1 +BDAEOwRMBEIENQRABD0EMARCBDgEMgQ9BEsENQAA +BDIEMARABDgEMAQ9BEIESwAA lookup 0 subtable" dcroat.sc
EndChar

StartChar: eogonek
Encoding: 218 281 219
Width: 535
GlyphClass: 2
Flags: W
AnchorPoint: "+BBEENQQ3BEsEPARPBD0EPQQ+BDUA--1" 268 536 basechar 0
AnchorPoint: "+BBEENQQ3BEsEPARPBD0EPQQ+BDUA--0" 268 -225 basechar 0
LayerCount: 2
Fore
SplineSet
367 -225 m 0,0,1
 303 -225 303 -225 266.5 -198.5 c 128,-1,2
 230 -172 230 -172 230 -115 c 0,3,4
 230 -83 230 -83 250 -55.5 c 128,-1,5
 270 -28 270 -28 296 -10 c 1,6,-1
 287 -10 l 2,7,8
 178 -10 178 -10 116.5 62 c 128,-1,9
 55 134 55 134 55 264 c 0,10,11
 55 404 55 404 113 475 c 128,-1,12
 171 546 171 546 277 546 c 0,13,14
 374 546 374 546 429.5 486 c 128,-1,15
 485 426 485 426 485 307 c 2,16,-1
 485 261 l 1,17,-1
 152 261 l 1,18,19
 154 152 154 152 191.5 102.5 c 128,-1,20
 229 53 229 53 301 53 c 0,21,22
 353 53 353 53 389.5 74.5 c 128,-1,23
 426 96 426 96 444 123 c 1,24,25
 451 120 451 120 457 111 c 128,-1,26
 463 102 463 102 463 89 c 0,27,28
 463 69 463 69 449 51.5 c 128,-1,29
 435 34 435 34 416 22 c 128,-1,30
 397 10 397 10 381 5 c 0,31,32
 355 -8 355 -8 333.5 -35 c 128,-1,33
 312 -62 312 -62 312 -100 c 0,34,35
 312 -133 312 -133 331.5 -148 c 128,-1,36
 351 -163 351 -163 381 -163 c 0,37,38
 395 -163 395 -163 410.5 -161 c 128,-1,39
 426 -159 426 -159 444 -155 c 1,40,-1
 444 -209 l 1,41,42
 428 -216 428 -216 405.5 -220.5 c 128,-1,43
 383 -225 383 -225 367 -225 c 0,0,1
384 315 m 1,44,45
 384 395 384 395 359.5 443.5 c 128,-1,46
 335 492 335 492 275 492 c 0,47,48
 220 492 220 492 189.5 446.5 c 128,-1,49
 159 401 159 401 154 315 c 1,50,-1
 384 315 l 1,44,45
EndSplineSet
Substitution2: "'smcp' Lowercase to Small Capitals lookup 37 subtable" eogonek.sc
Substitution2: "'locl' Localized Forms in Latin lookup 8 subtable" eogonek.loclNAV
Ligature2: "'ccmp' +BBoEPgQ8BD8EPgQ3BDgERgQ4BE8A-/+BDQENQQ6BD4EPAQ/BD4ENwQ4BEYEOARP +BDMEOwQ4BEQEMAAA lookup 6 subtable" e uni0328
AlternateSubs2: "'aalt' +BBIEQQQ1 +BDAEOwRMBEIENQRABD0EMARCBDgEMgQ9BEsENQAA +BDIEMARABDgEMAQ9BEIESwAA lookup 1 subtable" eogonek.loclNAV eogonek.sc
EndChar

StartChar: uni0123
Encoding: 228 291 229
Width: 538
GlyphClass: 2
Flags: W
AnchorPoint: "+BBEENQQ3BEsEPARPBD0EPQQ+BDUA--2" 518 536 basechar 0
AnchorPoint: "+BBEENQQ3BEsEPARPBD0EPQQ+BDUA--1" 269 766 basechar 0
AnchorPoint: "+BBEENQQ3BEsEPARPBD0EPQQ+BDUA--0" 269 -240 basechar 0
LayerCount: 2
Fore
SplineSet
210 616 m 1,0,1
 219 637 219 637 233 664 c 128,-1,2
 247 691 247 691 263 718 c 128,-1,3
 279 745 279 745 293 766 c 1,4,-1
 337 766 l 1,5,-1
 337 753 l 1,6,7
 329 720 329 720 321 681 c 128,-1,8
 313 642 313 642 307 606 c 1,9,-1
 210 606 l 1,10,-1
 210 616 l 1,0,1
231 -240 m 0,11,12
 127 -240 127 -240 75 -201.5 c 128,-1,13
 23 -163 23 -163 23 -94 c 0,14,15
 23 -35 23 -35 61 -5 c 128,-1,16
 99 25 99 25 148 34 c 1,17,18
 128 43 128 43 110.5 63.5 c 128,-1,19
 93 84 93 84 93 116 c 0,20,21
 93 146 93 146 108.5 168 c 128,-1,22
 124 190 124 190 158 210 c 1,23,24
 115 228 115 228 91.5 269.5 c 128,-1,25
 68 311 68 311 68 361 c 0,26,27
 68 447 68 447 115 496.5 c 128,-1,28
 162 546 162 546 256 546 c 0,29,30
 292 546 292 546 324 536 c 128,-1,31
 356 526 356 526 370 513 c 1,32,33
 384 529 384 529 409 548 c 128,-1,34
 434 567 434 567 467 567 c 0,35,36
 497 567 497 567 511.5 551.5 c 128,-1,37
 526 536 526 536 526 515 c 256,38,39
 526 494 526 494 513.5 478.5 c 128,-1,40
 501 463 501 463 473 463 c 1,41,42
 473 474 473 474 466.5 485.5 c 128,-1,43
 460 497 460 497 440 497 c 0,44,45
 417 497 417 497 397 485 c 1,46,47
 414 464 414 464 425 435.5 c 128,-1,48
 436 407 436 407 436 364 c 0,49,50
 436 290 436 290 391.5 241 c 128,-1,51
 347 192 347 192 256 192 c 0,52,53
 244 192 244 192 228.5 193.5 c 128,-1,54
 213 195 213 195 203 197 c 1,55,56
 184 187 184 187 170 172 c 128,-1,57
 156 157 156 157 156 134 c 0,58,59
 156 116 156 116 167.5 106 c 128,-1,60
 179 96 179 96 218 96 c 2,61,-1
 331 96 l 2,62,63
 420 96 420 96 458 54 c 128,-1,64
 496 12 496 12 496 -53 c 0,65,66
 496 -139 496 -139 431.5 -189.5 c 128,-1,67
 367 -240 367 -240 231 -240 c 0,11,12
253 240 m 0,68,69
 302 240 302 240 322 270 c 128,-1,70
 342 300 342 300 342 365 c 0,71,72
 342 433 342 433 321.5 465 c 128,-1,73
 301 497 301 497 252 497 c 0,74,75
 204 497 204 497 183 464 c 128,-1,76
 162 431 162 431 162 364 c 0,77,78
 162 300 162 300 183.5 270 c 128,-1,79
 205 240 205 240 253 240 c 0,68,69
233 -191 m 0,80,81
 305 -191 305 -191 344 -175.5 c 128,-1,82
 383 -160 383 -160 398.5 -132.5 c 128,-1,83
 414 -105 414 -105 414 -70 c 0,84,85
 414 -24 414 -24 388 -8.5 c 128,-1,86
 362 7 362 7 312 7 c 2,87,-1
 214 7 l 2,88,89
 186 7 186 7 161 -0.5 c 128,-1,90
 136 -8 136 -8 120 -28 c 128,-1,91
 104 -48 104 -48 104 -88 c 0,92,93
 104 -117 104 -117 115 -140.5 c 128,-1,94
 126 -164 126 -164 154 -177.5 c 128,-1,95
 182 -191 182 -191 233 -191 c 0,80,81
EndSplineSet
Substitution2: "'smcp' Lowercase to Small Capitals lookup 37 subtable" uni0123.sc
Substitution2: "'aalt' +BBIEQQQ1 +BDAEOwRMBEIENQRABD0EMARCBDgEMgQ9BEsENQAA +BDIEMARABDgEMAQ9BEIESwAA lookup 0 subtable" uni0123.sc
EndChar

StartChar: Hbar
Encoding: 231 294 232
Width: 793
GlyphClass: 2
Flags: W
AnchorPoint: "+BBEENQQ3BEsEPARPBD0EPQQ+BDUA--1" 397 714 basechar 0
AnchorPoint: "+BBEENQQ3BEsEPARPBD0EPQQ+BDUA--0" 397 0 basechar 0
LayerCount: 2
Fore
SplineSet
38 0 m 1,0,-1
 38 42 l 1,1,-1
 51 42 l 2,2,3
 85 42 85 42 109 54.5 c 128,-1,4
 133 67 133 67 133 114 c 2,5,-1
 133 499 l 1,6,-1
 38 499 l 1,7,-1
 38 548 l 1,8,-1
 133 548 l 1,9,-1
 133 604 l 2,10,11
 133 648 133 648 108.5 660 c 128,-1,12
 84 672 84 672 51 672 c 2,13,-1
 38 672 l 1,14,-1
 38 714 l 1,15,-1
 329 714 l 1,16,-1
 329 672 l 1,17,-1
 316 672 l 2,18,19
 282 672 282 672 258 659.5 c 128,-1,20
 234 647 234 647 234 600 c 2,21,-1
 234 548 l 1,22,-1
 559 548 l 1,23,-1
 559 600 l 2,24,25
 559 647 559 647 535 659.5 c 128,-1,26
 511 672 511 672 477 672 c 2,27,-1
 464 672 l 1,28,-1
 464 714 l 1,29,-1
 755 714 l 1,30,-1
 755 672 l 1,31,-1
 742 672 l 2,32,33
 708 672 708 672 684 659.5 c 128,-1,34
 660 647 660 647 660 600 c 2,35,-1
 660 548 l 1,36,-1
 755 548 l 1,37,-1
 755 499 l 1,38,-1
 660 499 l 1,39,-1
 660 109 l 2,40,41
 660 65 660 65 684.5 53.5 c 128,-1,42
 709 42 709 42 742 42 c 2,43,-1
 755 42 l 1,44,-1
 755 0 l 1,45,-1
 464 0 l 1,46,-1
 464 42 l 1,47,-1
 477 42 l 2,48,49
 511 42 511 42 535 54.5 c 128,-1,50
 559 67 559 67 559 114 c 2,51,-1
 559 348 l 1,52,-1
 234 348 l 1,53,-1
 234 114 l 2,54,55
 234 67 234 67 258 54.5 c 128,-1,56
 282 42 282 42 316 42 c 2,57,-1
 329 42 l 1,58,-1
 329 0 l 1,59,-1
 38 0 l 1,0,-1
234 398 m 1,60,-1
 559 398 l 1,61,-1
 559 499 l 1,62,-1
 234 499 l 1,63,-1
 234 398 l 1,60,-1
EndSplineSet
Substitution2: "'c2sc' +BBoEMAQ/BDgEQgQ1BDsETAAA +BDgENwAA +BD8EQAQ+BD8EOARBBD0ESwRF lookup 36 subtable" hbar.sc
Substitution2: "'aalt' +BBIEQQQ1 +BDAEOwRMBEIENQRABD0EMARCBDgEMgQ9BEsENQAA +BDIEMARABDgEMAQ9BEIESwAA lookup 0 subtable" hbar.sc
EndChar

StartChar: hbar
Encoding: 232 295 233
Width: 635
GlyphClass: 2
Flags: W
AnchorPoint: "+BBEENQQ3BEsEPARPBD0EPQQ+BDUA--1" 318 760 basechar 0
AnchorPoint: "+BBEENQQ3BEsEPARPBD0EPQQ+BDUA--0" 318 0 basechar 0
LayerCount: 2
Fore
SplineSet
18 0 m 1,0,-1
 18 42 l 1,1,-1
 26 42 l 2,2,3
 60 42 60 42 84 54.5 c 128,-1,4
 108 67 108 67 108 114 c 2,5,-1
 108 593 l 1,6,-1
 17 593 l 1,7,-1
 17 640 l 1,8,-1
 108 640 l 1,9,-1
 108 650 l 2,10,11
 108 694 108 694 83.5 706 c 128,-1,12
 59 718 59 718 26 718 c 2,13,-1
 18 718 l 1,14,-1
 18 760 l 1,15,-1
 202 760 l 1,16,-1
 202 640 l 1,17,-1
 373 640 l 1,18,-1
 373 593 l 1,19,-1
 202 593 l 1,20,-1
 202 520 l 2,21,22
 202 502 202 502 201 482.5 c 128,-1,23
 200 463 200 463 199 449 c 128,-1,24
 198 435 198 435 198 435 c 1,25,-1
 203 435 l 1,26,27
 249 526 249 526 350 526 c 0,28,29
 436 526 436 526 481.5 479.5 c 128,-1,30
 527 433 527 433 527 330 c 2,31,-1
 527 114 l 2,32,33
 527 67 527 67 548.5 54.5 c 128,-1,34
 570 42 570 42 604 42 c 2,35,-1
 607 42 l 1,36,-1
 607 0 l 1,37,-1
 433 0 l 1,38,-1
 433 325 l 2,39,40
 433 390 433 390 408.5 426 c 128,-1,41
 384 462 384 462 323 462 c 0,42,43
 261 462 261 462 231.5 418 c 128,-1,44
 202 374 202 374 202 300 c 2,45,-1
 202 109 l 2,46,47
 202 65 202 65 226.5 53.5 c 128,-1,48
 251 42 251 42 284 42 c 2,49,-1
 287 42 l 1,50,-1
 287 0 l 1,51,-1
 18 0 l 1,0,-1
EndSplineSet
Substitution2: "'smcp' Lowercase to Small Capitals lookup 37 subtable" hbar.sc
Substitution2: "'aalt' +BBIEQQQ1 +BDAEOwRMBEIENQRABD0EMARCBDgEMgQ9BEsENQAA +BDIEMARABDgEMAQ9BEIESwAA lookup 0 subtable" hbar.sc
EndChar

StartChar: kgreenlandic
Encoding: 249 312 249
Width: 585
GlyphClass: 2
Flags: W
AnchorPoint: "+BBEENQQ3BEsEPARPBD0EPQQ+BDUA--1" 293 536 basechar 0
AnchorPoint: "+BBEENQQ3BEsEPARPBD0EPQQ+BDUA--0" 293 0 basechar 0
LayerCount: 2
Fore
SplineSet
18 0 m 1,0,-1
 18 42 l 1,1,-1
 26 42 l 2,2,3
 60 42 60 42 84 54.5 c 128,-1,4
 108 67 108 67 108 114 c 2,5,-1
 108 426 l 2,6,7
 108 470 108 470 83.5 482 c 128,-1,8
 59 494 59 494 26 494 c 2,9,-1
 18 494 l 1,10,-1
 18 536 l 1,11,-1
 202 536 l 1,12,-1
 202 374 l 2,13,14
 202 361 202 361 201.5 340 c 128,-1,15
 201 319 201 319 200 298 c 128,-1,16
 199 277 199 277 198.5 262.5 c 128,-1,17
 198 248 198 248 198 248 c 1,18,-1
 323 385 l 2,19,20
 355 421 355 421 366.5 440.5 c 128,-1,21
 378 460 378 460 378 474 c 0,22,23
 378 487 378 487 366 490.5 c 128,-1,24
 354 494 354 494 329 494 c 1,25,-1
 329 536 l 1,26,-1
 550 536 l 1,27,-1
 550 494 l 1,28,29
 516 494 516 494 482 469.5 c 128,-1,30
 448 445 448 445 409 401 c 2,31,-1
 339 322 l 1,32,-1
 472 124 l 2,33,34
 498 84 498 84 523.5 63 c 128,-1,35
 549 42 549 42 583 42 c 2,36,-1
 586 42 l 1,37,-1
 586 0 l 1,38,-1
 572 0 l 2,39,40
 529 0 529 0 500 3 c 128,-1,41
 471 6 471 6 451.5 15.5 c 128,-1,42
 432 25 432 25 414.5 44.5 c 128,-1,43
 397 64 397 64 376 97 c 2,44,-1
 276 254 l 1,45,-1
 202 199 l 1,46,-1
 202 109 l 2,47,48
 202 65 202 65 226.5 53.5 c 128,-1,49
 251 42 251 42 284 42 c 2,50,-1
 287 42 l 1,51,-1
 287 0 l 1,52,-1
 18 0 l 1,0,-1
EndSplineSet
EndChar

StartChar: Lcaron
Encoding: 254 317 254
Width: 623
GlyphClass: 2
Flags: W
AnchorPoint: "+BBEENQQ3BEsEPARPBD0EPQQ+BDUA--3" 184 357 basechar 0
AnchorPoint: "+BBEENQQ3BEsEPARPBD0EPQQ+BDUA--2" 603 714 basechar 0
AnchorPoint: "+BBEENQQ3BEsEPARPBD0EPQQ+BDUA--1" 312 714 basechar 0
AnchorPoint: "+BBEENQQ3BEsEPARPBD0EPQQ+BDUA--0" 312 0 basechar 0
LayerCount: 2
Fore
SplineSet
422 567 m 1,0,1
 430 600 430 600 438 639 c 128,-1,2
 446 678 446 678 452 714 c 1,3,-1
 539 714 l 1,4,-1
 539 704 l 1,5,6
 530 683 530 683 516 656 c 128,-1,7
 502 629 502 629 486 602 c 128,-1,8
 470 575 470 575 456 554 c 1,9,-1
 422 554 l 1,10,-1
 422 567 l 1,0,1
38 0 m 1,11,-1
 38 42 l 1,12,-1
 51 42 l 2,13,14
 85 42 85 42 109 54.5 c 128,-1,15
 133 67 133 67 133 114 c 2,16,-1
 133 600 l 2,17,18
 133 647 133 647 109 659.5 c 128,-1,19
 85 672 85 672 51 672 c 2,20,-1
 38 672 l 1,21,-1
 38 714 l 1,22,-1
 329 714 l 1,23,-1
 329 672 l 1,24,-1
 316 672 l 2,25,26
 283 672 283 672 258.5 660 c 128,-1,27
 234 648 234 648 234 604 c 2,28,-1
 234 50 l 1,29,-1
 431 50 l 2,30,31
 461 50 461 50 479.5 63.5 c 128,-1,32
 498 77 498 77 507 98 c 128,-1,33
 516 119 516 119 519 140 c 2,34,-1
 529 215 l 1,35,-1
 581 215 l 1,36,-1
 574 0 l 1,37,-1
 38 0 l 1,11,-1
EndSplineSet
Substitution2: "'c2sc' +BBoEMAQ/BDgEQgQ1BDsETAAA +BDgENwAA +BD8EQAQ+BD8EOARBBD0ESwRF lookup 36 subtable" lcaron.sc
Substitution2: "'aalt' +BBIEQQQ1 +BDAEOwRMBEIENQRABD0EMARCBDgEMgQ9BEsENQAA +BDIEMARABDgEMAQ9BEIESwAA lookup 0 subtable" lcaron.sc
EndChar

StartChar: lcaron
Encoding: 255 318 255
Width: 310
GlyphClass: 2
Flags: W
AnchorPoint: "+BBEENQQ3BEsEPARPBD0EPQQ+BDUA--3" 155 268 basechar 0
AnchorPoint: "+BBEENQQ3BEsEPARPBD0EPQQ+BDUA--2" 240 760 basechar 0
AnchorPoint: "+BBEENQQ3BEsEPARPBD0EPQQ+BDUA--1" 155 760 basechar 0
AnchorPoint: "+BBEENQQ3BEsEPARPBD0EPQQ+BDUA--0" 155 0 basechar 0
LayerCount: 2
Fore
SplineSet
257 613 m 1,0,1
 265 646 265 646 273 685 c 128,-1,2
 281 724 281 724 287 760 c 1,3,-1
 374 760 l 1,4,-1
 374 750 l 1,5,6
 365 729 365 729 351 702 c 128,-1,7
 337 675 337 675 321 648 c 128,-1,8
 305 621 305 621 291 600 c 1,9,-1
 257 600 l 1,10,-1
 257 613 l 1,0,1
13 0 m 1,11,-1
 13 42 l 1,12,-1
 26 42 l 2,13,14
 60 42 60 42 84 54.5 c 128,-1,15
 108 67 108 67 108 114 c 2,16,-1
 108 650 l 2,17,18
 108 694 108 694 83.5 706 c 128,-1,19
 59 718 59 718 26 718 c 2,20,-1
 13 718 l 1,21,-1
 13 760 l 1,22,-1
 202 760 l 1,23,-1
 202 114 l 2,24,25
 202 67 202 67 226 54.5 c 128,-1,26
 250 42 250 42 284 42 c 2,27,-1
 297 42 l 1,28,-1
 297 0 l 1,29,-1
 13 0 l 1,11,-1
EndSplineSet
Substitution2: "'smcp' Lowercase to Small Capitals lookup 37 subtable" lcaron.sc
Substitution2: "'aalt' +BBIEQQQ1 +BDAEOwRMBEIENQRABD0EMARCBDgEMgQ9BEsENQAA +BDIEMARABDgEMAQ9BEIESwAA lookup 0 subtable" lcaron.sc
EndChar

StartChar: Lslash
Encoding: 258 321 258
Width: 623
GlyphClass: 2
Flags: W
AnchorPoint: "+BBEENQQ3BEsEPARPBD0EPQQ+BDUA--1" 312 714 basechar 0
AnchorPoint: "+BBEENQQ3BEsEPARPBD0EPQQ+BDUA--0" 312 0 basechar 0
LayerCount: 2
Fore
SplineSet
38 0 m 1,0,-1
 38 42 l 1,1,-1
 51 42 l 2,2,3
 85 42 85 42 109 54.5 c 128,-1,4
 133 67 133 67 133 114 c 2,5,-1
 133 283 l 1,6,-1
 38 229 l 1,7,-1
 38 285 l 1,8,-1
 133 340 l 1,9,-1
 133 600 l 2,10,11
 133 647 133 647 109 659.5 c 128,-1,12
 85 672 85 672 51 672 c 2,13,-1
 38 672 l 1,14,-1
 38 714 l 1,15,-1
 329 714 l 1,16,-1
 329 672 l 1,17,-1
 316 672 l 2,18,19
 283 672 283 672 258.5 660 c 128,-1,20
 234 648 234 648 234 604 c 2,21,-1
 234 398 l 1,22,-1
 390 489 l 1,23,-1
 390 431 l 1,24,-1
 234 341 l 1,25,-1
 234 50 l 1,26,-1
 431 50 l 2,27,28
 461 50 461 50 479.5 63.5 c 128,-1,29
 498 77 498 77 507 98 c 128,-1,30
 516 119 516 119 519 140 c 2,31,-1
 529 215 l 1,32,-1
 581 215 l 1,33,-1
 574 0 l 1,34,-1
 38 0 l 1,0,-1
EndSplineSet
Substitution2: "'c2sc' +BBoEMAQ/BDgEQgQ1BDsETAAA +BDgENwAA +BD8EQAQ+BD8EOARBBD0ESwRF lookup 36 subtable" lslash.sc
Substitution2: "'aalt' +BBIEQQQ1 +BDAEOwRMBEIENQRABD0EMARCBDgEMgQ9BEsENQAA +BDIEMARABDgEMAQ9BEIESwAA lookup 0 subtable" lslash.sc
EndChar

StartChar: lslash
Encoding: 259 322 259
Width: 324
GlyphClass: 2
Flags: W
AnchorPoint: "+BBEENQQ3BEsEPARPBD0EPQQ+BDUA--1" 162 760 basechar 0
AnchorPoint: "+BBEENQQ3BEsEPARPBD0EPQQ+BDUA--0" 162 0 basechar 0
LayerCount: 2
Fore
SplineSet
28 0 m 1,0,-1
 28 42 l 1,1,-1
 41 42 l 2,2,3
 75 42 75 42 99 54.5 c 128,-1,4
 123 67 123 67 123 114 c 2,5,-1
 123 277 l 1,6,-1
 38 229 l 1,7,-1
 38 285 l 1,8,-1
 123 334 l 1,9,-1
 123 650 l 2,10,11
 123 694 123 694 98.5 706 c 128,-1,12
 74 718 74 718 41 718 c 2,13,-1
 28 718 l 1,14,-1
 28 760 l 1,15,-1
 217 760 l 1,16,-1
 217 388 l 1,17,-1
 311 442 l 1,18,-1
 311 384 l 1,19,-1
 217 331 l 1,20,-1
 217 114 l 2,21,22
 217 67 217 67 241 54.5 c 128,-1,23
 265 42 265 42 299 42 c 2,24,-1
 312 42 l 1,25,-1
 312 0 l 1,26,-1
 28 0 l 1,0,-1
EndSplineSet
Substitution2: "'smcp' Lowercase to Small Capitals lookup 37 subtable" lslash.sc
Substitution2: "'aalt' +BBIEQQQ1 +BDAEOwRMBEIENQRABD0EMARCBDgEMgQ9BEsENQAA +BDIEMARABDgEMAQ9BEIESwAA lookup 0 subtable" lslash.sc
EndChar

StartChar: Eng
Encoding: 267 330 267
Width: 763
GlyphClass: 2
Flags: W
AnchorPoint: "+BBEENQQ3BEsEPARPBD0EPQQ+BDUA--1" 382 714 basechar 0
AnchorPoint: "+BBEENQQ3BEsEPARPBD0EPQQ+BDUA--0" 382 -240 basechar 0
LayerCount: 2
Fore
SplineSet
465 -240 m 1,0,-1
 465 -193 l 1,1,-1
 479 -193 l 2,2,3
 511 -193 511 -193 533.5 -176.5 c 128,-1,4
 556 -160 556 -160 567.5 -119.5 c 128,-1,5
 579 -79 579 -79 579 -9 c 2,6,-1
 579 0 l 1,7,-1
 194 576 l 1,8,-1
 194 114 l 2,9,10
 194 67 194 67 218 54.5 c 128,-1,11
 242 42 242 42 276 42 c 2,12,-1
 289 42 l 1,13,-1
 289 0 l 1,14,-1
 38 0 l 1,15,-1
 38 42 l 1,16,-1
 51 42 l 2,17,18
 85 42 85 42 109 54.5 c 128,-1,19
 133 67 133 67 133 114 c 2,20,-1
 133 604 l 2,21,22
 133 648 133 648 108.5 660 c 128,-1,23
 84 672 84 672 51 672 c 2,24,-1
 38 672 l 1,25,-1
 38 714 l 1,26,-1
 221 714 l 1,27,-1
 579 175 l 1,28,-1
 579 604 l 2,29,30
 579 648 579 648 554.5 660 c 128,-1,31
 530 672 530 672 497 672 c 2,32,-1
 484 672 l 1,33,-1
 484 714 l 1,34,-1
 735 714 l 1,35,-1
 735 672 l 1,36,-1
 722 672 l 2,37,38
 688 672 688 672 664 659.5 c 128,-1,39
 640 647 640 647 640 600 c 2,40,-1
 640 -8 l 2,41,42
 640 -97 640 -97 623 -148 c 128,-1,43
 606 -199 606 -199 572.5 -219.5 c 128,-1,44
 539 -240 539 -240 488 -240 c 2,45,-1
 465 -240 l 1,0,-1
EndSplineSet
Substitution2: "'c2sc' +BBoEMAQ/BDgEQgQ1BDsETAAA +BDgENwAA +BD8EQAQ+BD8EOARBBD0ESwRF lookup 36 subtable" eng.sc
AlternateSubs2: "'aalt' +BBIEQQQ1 +BDAEOwRMBEIENQRABD0EMARCBDgEMgQ9BEsENQAA +BDIEMARABDgEMAQ9BEIESwAA lookup 1 subtable" Eng.alt1 Eng.alt2 Eng.alt3 eng.sc
EndChar

StartChar: eng
Encoding: 268 331 268
Width: 635
GlyphClass: 2
Flags: W
AnchorPoint: "+BBEENQQ3BEsEPARPBD0EPQQ+BDUA--2" 585 536 basechar 0
AnchorPoint: "+BBEENQQ3BEsEPARPBD0EPQQ+BDUA--1" 318 536 basechar 0
AnchorPoint: "+BBEENQQ3BEsEPARPBD0EPQQ+BDUA--0" 318 -240 basechar 0
LayerCount: 2
Fore
SplineSet
337 -240 m 1,0,-1
 337 -193 l 1,1,-1
 343 -193 l 2,2,3
 375 -193 375 -193 397.5 -176.5 c 128,-1,4
 420 -160 420 -160 431.5 -119.5 c 128,-1,5
 443 -79 443 -79 443 -9 c 2,6,-1
 443 345 l 2,7,8
 443 410 443 410 418.5 446 c 128,-1,9
 394 482 394 482 333 482 c 0,10,11
 288 482 288 482 261.5 459.5 c 128,-1,12
 235 437 235 437 223.5 400 c 128,-1,13
 212 363 212 363 212 320 c 2,14,-1
 212 109 l 2,15,16
 212 65 212 65 236.5 53.5 c 128,-1,17
 261 42 261 42 294 42 c 2,18,-1
 297 42 l 1,19,-1
 297 0 l 1,20,-1
 28 0 l 1,21,-1
 28 42 l 1,22,-1
 36 42 l 2,23,24
 70 42 70 42 94 54.5 c 128,-1,25
 118 67 118 67 118 114 c 2,26,-1
 118 426 l 2,27,28
 118 470 118 470 93.5 482 c 128,-1,29
 69 494 69 494 36 494 c 2,30,-1
 33 494 l 1,31,-1
 33 536 l 1,32,-1
 195 536 l 1,33,-1
 208 455 l 1,34,-1
 213 455 l 1,35,36
 244 511 244 511 282.5 528.5 c 128,-1,37
 321 546 321 546 369 546 c 0,38,39
 448 546 448 546 492.5 499.5 c 128,-1,40
 537 453 537 453 537 350 c 2,41,-1
 537 -8 l 2,42,43
 537 -97 537 -97 513 -148 c 128,-1,44
 489 -199 489 -199 447.5 -219.5 c 128,-1,45
 406 -240 406 -240 352 -240 c 2,46,-1
 337 -240 l 1,0,-1
EndSplineSet
Substitution2: "'smcp' Lowercase to Small Capitals lookup 37 subtable" eng.sc
Substitution2: "'aalt' +BBIEQQQ1 +BDAEOwRMBEIENQRABD0EMARCBDgEMgQ9BEsENQAA +BDIEMARABDgEMAQ9BEIESwAA lookup 0 subtable" eng.sc
EndChar

StartChar: OE
Encoding: 275 338 275
Width: 959
GlyphClass: 2
Flags: W
AnchorPoint: "+BBEENQQ3BEsEPARPBD0EPQQ+BDUA--1" 480 714 basechar 0
AnchorPoint: "+BBEENQQ3BEsEPARPBD0EPQQ+BDUA--0" 480 0 basechar 0
LayerCount: 2
Fore
SplineSet
371 -10 m 0,0,1
 265 -10 265 -10 195 36 c 128,-1,2
 125 82 125 82 90.5 165 c 128,-1,3
 56 248 56 248 56 359 c 256,4,5
 56 470 56 470 90.5 552 c 128,-1,6
 125 634 125 634 195.5 679.5 c 128,-1,7
 266 725 266 725 372 725 c 0,8,9
 396 725 396 725 425.5 722 c 128,-1,10
 455 719 455 719 475 714 c 1,11,-1
 878 714 l 1,12,-1
 883 539 l 1,13,-1
 831 539 l 1,14,-1
 826 582 l 2,15,16
 822 615 822 615 802.5 639.5 c 128,-1,17
 783 664 783 664 738 664 c 2,18,-1
 570 664 l 1,19,-1
 570 398 l 1,20,-1
 811 398 l 1,21,-1
 811 349 l 1,22,-1
 570 349 l 1,23,-1
 570 50 l 1,24,-1
 763 50 l 2,25,26
 810 50 810 50 831.5 74.5 c 128,-1,27
 853 99 853 99 858 132 c 2,28,-1
 865 175 l 1,29,-1
 917 175 l 1,30,-1
 910 0 l 1,31,-1
 474 0 l 1,32,33
 454 -4 454 -4 424 -7 c 128,-1,34
 394 -10 394 -10 371 -10 c 0,0,1
371 44 m 0,35,36
 400 44 400 44 425 48 c 128,-1,37
 450 52 450 52 469 59 c 1,38,-1
 469 654 l 1,39,40
 429 671 429 671 372 671 c 0,41,42
 260 671 260 671 213.5 589 c 128,-1,43
 167 507 167 507 167 358 c 0,44,45
 167 210 167 210 213.5 127 c 128,-1,46
 260 44 260 44 371 44 c 0,35,36
EndSplineSet
Substitution2: "'c2sc' +BBoEMAQ/BDgEQgQ1BDsETAAA +BDgENwAA +BD8EQAQ+BD8EOARBBD0ESwRF lookup 36 subtable" oe.sc
Substitution2: "'aalt' +BBIEQQQ1 +BDAEOwRMBEIENQRABD0EMARCBDgEMgQ9BEsENQAA +BDIEMARABDgEMAQ9BEIESwAA lookup 0 subtable" oe.sc
EndChar

StartChar: oe
Encoding: 276 339 276
Width: 905
GlyphClass: 2
Flags: W
AnchorPoint: "+BBEENQQ3BEsEPARPBD0EPQQ+BDUA--1" 453 536 basechar 0
AnchorPoint: "+BBEENQQ3BEsEPARPBD0EPQQ+BDUA--0" 453 0 basechar 0
LayerCount: 2
Fore
SplineSet
287 -10 m 0,0,1
 179 -10 179 -10 117 59 c 128,-1,2
 55 128 55 128 55 269 c 0,3,4
 55 409 55 409 114.5 477.5 c 128,-1,5
 174 546 174 546 290 546 c 0,6,7
 412 546 412 546 472 449 c 1,8,9
 529 546 529 546 647 546 c 0,10,11
 744 546 744 546 799.5 486 c 128,-1,12
 855 426 855 426 855 307 c 2,13,-1
 855 261 l 1,14,-1
 522 261 l 1,15,16
 524 165 524 165 557 109 c 128,-1,17
 590 53 590 53 671 53 c 0,18,19
 723 53 723 53 759.5 74.5 c 128,-1,20
 796 96 796 96 814 123 c 1,21,22
 821 120 821 120 827 111 c 128,-1,23
 833 102 833 102 833 89 c 0,24,25
 833 69 833 69 814 46 c 128,-1,26
 795 23 795 23 756 6.5 c 128,-1,27
 717 -10 717 -10 657 -10 c 0,28,29
 594 -10 594 -10 549 15.5 c 128,-1,30
 504 41 504 41 475 90 c 1,31,32
 417 -10 417 -10 287 -10 c 0,0,1
289 42 m 0,33,34
 363 42 363 42 393.5 99 c 128,-1,35
 424 156 424 156 425 270 c 0,36,37
 424 389 424 389 392 441 c 128,-1,38
 360 493 360 493 288 493 c 0,39,40
 213 493 213 493 182.5 437 c 128,-1,41
 152 381 152 381 152 269 c 256,42,43
 152 157 152 157 183 99.5 c 128,-1,44
 214 42 214 42 289 42 c 0,33,34
754 315 m 1,45,46
 754 395 754 395 729.5 443.5 c 128,-1,47
 705 492 705 492 645 492 c 0,48,49
 590 492 590 492 559.5 446.5 c 128,-1,50
 529 401 529 401 524 315 c 1,51,-1
 754 315 l 1,45,46
EndSplineSet
Substitution2: "'smcp' Lowercase to Small Capitals lookup 37 subtable" oe.sc
Substitution2: "'aalt' +BBIEQQQ1 +BDAEOwRMBEIENQRABD0EMARCBDgEMgQ9BEsENQAA +BDIEMARABDgEMAQ9BEIESwAA lookup 0 subtable" oe.sc
EndChar

StartChar: tcaron
Encoding: 294 357 294
Width: 352
GlyphClass: 2
Flags: W
AnchorPoint: "+BBEENQQ3BEsEPARPBD0EPQQ+BDUA--3" 156 268 basechar 0
AnchorPoint: "+BBEENQQ3BEsEPARPBD0EPQQ+BDUA--2" 208 980 basechar 0
AnchorPoint: "+BBEENQQ3BEsEPARPBD0EPQQ+BDUA--1" 176 760 basechar 0
AnchorPoint: "+BBEENQQ3BEsEPARPBD0EPQQ+BDUA--0" 176 0 basechar 0
LayerCount: 2
Fore
SplineSet
260 613 m 1,0,1
 268 646 268 646 276 685 c 128,-1,2
 284 724 284 724 290 760 c 1,3,-1
 377 760 l 1,4,-1
 377 750 l 1,5,6
 368 729 368 729 354 702 c 128,-1,7
 340 675 340 675 324 648 c 128,-1,8
 308 621 308 621 294 600 c 1,9,-1
 260 600 l 1,10,-1
 260 613 l 1,0,1
240 -10 m 0,11,12
 164 -10 164 -10 129.5 24.5 c 128,-1,13
 95 59 95 59 95 145 c 2,14,-1
 95 479 l 1,15,-1
 19 479 l 1,16,-1
 19 519 l 1,17,18
 37 519 37 519 59 526.5 c 128,-1,19
 81 534 81 534 97 551 c 0,20,21
 114 569 114 569 125 595 c 128,-1,22
 136 621 136 621 143 659 c 1,23,-1
 189 659 l 1,24,-1
 189 536 l 1,25,-1
 320 536 l 1,26,-1
 320 479 l 1,27,-1
 189 479 l 1,28,-1
 189 142 l 2,29,30
 189 91 189 91 210 67 c 128,-1,31
 231 43 231 43 265 43 c 0,32,33
 283 43 283 43 298 45 c 128,-1,34
 313 47 313 47 329 50 c 1,35,-1
 329 6 l 1,36,37
 316 0 316 0 290 -5 c 128,-1,38
 264 -10 264 -10 240 -10 c 0,11,12
EndSplineSet
Substitution2: "'smcp' Lowercase to Small Capitals lookup 37 subtable" tcaron.sc
Substitution2: "'aalt' +BBIEQQQ1 +BDAEOwRMBEIENQRABD0EMARCBDgEMgQ9BEsENQAA +BDIEMARABDgEMAQ9BEIESwAA lookup 0 subtable" tcaron.sc
EndChar

StartChar: Tbar
Encoding: 295 358 295
Width: 613
GlyphClass: 2
Flags: W
AnchorPoint: "+BBEENQQ3BEsEPARPBD0EPQQ+BDUA--1" 307 714 basechar 0
AnchorPoint: "+BBEENQQ3BEsEPARPBD0EPQQ+BDUA--0" 307 0 basechar 0
LayerCount: 2
Fore
SplineSet
150 0 m 1,0,-1
 150 42 l 1,1,-1
 173 42 l 2,2,3
 206 42 206 42 230.5 53.5 c 128,-1,4
 255 65 255 65 255 109 c 2,5,-1
 255 328 l 1,6,-1
 88 328 l 1,7,-1
 88 377 l 1,8,-1
 255 377 l 1,9,-1
 255 664 l 1,10,-1
 159 664 l 2,11,12
 115 664 115 664 98 639.5 c 128,-1,13
 81 615 81 615 77 582 c 2,14,-1
 72 539 l 1,15,-1
 20 539 l 1,16,-1
 25 714 l 1,17,-1
 588 714 l 1,18,-1
 593 539 l 1,19,-1
 541 539 l 1,20,-1
 536 582 l 2,21,22
 532 615 532 615 515 639.5 c 128,-1,23
 498 664 498 664 453 664 c 2,24,-1
 356 664 l 1,25,-1
 356 377 l 1,26,-1
 525 377 l 1,27,-1
 525 328 l 1,28,-1
 356 328 l 1,29,-1
 356 114 l 2,30,31
 356 67 356 67 380 54.5 c 128,-1,32
 404 42 404 42 438 42 c 2,33,-1
 461 42 l 1,34,-1
 461 0 l 1,35,-1
 150 0 l 1,0,-1
EndSplineSet
Substitution2: "'c2sc' +BBoEMAQ/BDgEQgQ1BDsETAAA +BDgENwAA +BD8EQAQ+BD8EOARBBD0ESwRF lookup 36 subtable" tbar.sc
Substitution2: "'aalt' +BBIEQQQ1 +BDAEOwRMBEIENQRABD0EMARCBDgEMgQ9BEsENQAA +BDIEMARABDgEMAQ9BEIESwAA lookup 0 subtable" tbar.sc
EndChar

StartChar: tbar
Encoding: 296 359 296
Width: 352
GlyphClass: 2
Flags: W
AnchorPoint: "+BBEENQQ3BEsEPARPBD0EPQQ+BDUA--3" 156 268 basechar 0
AnchorPoint: "+BBEENQQ3BEsEPARPBD0EPQQ+BDUA--2" 208 980 basechar 0
AnchorPoint: "+BBEENQQ3BEsEPARPBD0EPQQ+BDUA--1" 176 659 basechar 0
AnchorPoint: "+BBEENQQ3BEsEPARPBD0EPQQ+BDUA--0" 176 0 basechar 0
LayerCount: 2
Fore
SplineSet
240 -10 m 0,0,1
 164 -10 164 -10 129.5 24.5 c 128,-1,2
 95 59 95 59 95 145 c 2,3,-1
 95 291 l 1,4,-1
 27 291 l 1,5,-1
 27 338 l 1,6,-1
 95 338 l 1,7,-1
 95 479 l 1,8,-1
 19 479 l 1,9,-1
 19 519 l 1,10,11
 37 519 37 519 59 526.5 c 128,-1,12
 81 534 81 534 97 551 c 0,13,14
 114 569 114 569 125 595 c 128,-1,15
 136 621 136 621 143 659 c 1,16,-1
 189 659 l 1,17,-1
 189 536 l 1,18,-1
 320 536 l 1,19,-1
 320 479 l 1,20,-1
 189 479 l 1,21,-1
 189 338 l 1,22,-1
 310 338 l 1,23,-1
 310 291 l 1,24,-1
 189 291 l 1,25,-1
 189 142 l 2,26,27
 189 91 189 91 210 67 c 128,-1,28
 231 43 231 43 265 43 c 0,29,30
 283 43 283 43 298 45 c 128,-1,31
 313 47 313 47 329 50 c 1,32,-1
 329 6 l 1,33,34
 316 0 316 0 290 -5 c 128,-1,35
 264 -10 264 -10 240 -10 c 0,0,1
EndSplineSet
Substitution2: "'smcp' Lowercase to Small Capitals lookup 37 subtable" tbar.sc
Substitution2: "'aalt' +BBIEQQQ1 +BDAEOwRMBEIENQRABD0EMARCBDgEMgQ9BEsENQAA +BDIEMARABDgEMAQ9BEIESwAA lookup 0 subtable" tbar.sc
EndChar

StartChar: longs
Encoding: 320 383 320
Width: 355
GlyphClass: 2
Flags: W
AnchorPoint: "+BBEENQQ3BEsEPARPBD0EPQQ+BDUA--1" 258 770 basechar 0
AnchorPoint: "+BBEENQQ3BEsEPARPBD0EPQQ+BDUA--0" 178 0 basechar 0
LayerCount: 2
Fore
SplineSet
13 0 m 1,0,-1
 13 42 l 1,1,-1
 26 42 l 2,2,3
 60 42 60 42 84 54.5 c 128,-1,4
 108 67 108 67 108 114 c 2,5,-1
 108 586 l 2,6,7
 108 675 108 675 155.5 722.5 c 128,-1,8
 203 770 203 770 285 770 c 0,9,10
 363 770 363 770 394 750.5 c 128,-1,11
 425 731 425 731 425 700 c 0,12,13
 425 673 425 673 402 658.5 c 128,-1,14
 379 644 379 644 343 644 c 1,15,16
 343 674 343 674 329 699 c 128,-1,17
 315 724 315 724 277 724 c 0,18,19
 234 724 234 724 218 691 c 128,-1,20
 202 658 202 658 202 595 c 2,21,-1
 202 114 l 2,22,23
 202 67 202 67 226 54.5 c 128,-1,24
 250 42 250 42 284 42 c 2,25,-1
 322 42 l 1,26,-1
 322 0 l 1,27,-1
 13 0 l 1,0,-1
EndSplineSet
EndChar

StartChar: florin
Encoding: 339 402 321
Width: 451
GlyphClass: 2
Flags: W
AnchorPoint: "+BBEENQQ3BEsEPARPBD0EPQQ+BDUA--2" 521 770 basechar 0
AnchorPoint: "+BBEENQQ3BEsEPARPBD0EPQQ+BDUA--1" 370 772 basechar 0
AnchorPoint: "+BBEENQQ3BEsEPARPBD0EPQQ+BDUA--0" 126 -10 basechar 0
LayerCount: 2
Fore
SplineSet
126 -240 m 0,0,1
 92 -240 92 -240 61.5 -230 c 128,-1,2
 31 -220 31 -220 12 -200.5 c 128,-1,3
 -7 -181 -7 -181 -7 -151 c 0,4,5
 -7 -126 -7 -126 4 -112 c 128,-1,6
 15 -98 15 -98 29.5 -92 c 128,-1,7
 44 -86 44 -86 56 -86 c 1,8,9
 56 -192 56 -192 130 -192 c 0,10,11
 164 -192 164 -192 184 -163.5 c 128,-1,12
 204 -135 204 -135 204 -70 c 2,13,-1
 204 489 l 1,14,-1
 113 489 l 1,15,-1
 113 536 l 1,16,-1
 204 536 l 1,17,-1
 204 586 l 2,18,19
 204 675 204 675 251.5 722.5 c 128,-1,20
 299 770 299 770 381 770 c 0,21,22
 459 770 459 770 490 750.5 c 128,-1,23
 521 731 521 731 521 700 c 0,24,25
 521 673 521 673 498 658.5 c 128,-1,26
 475 644 475 644 439 644 c 1,27,28
 439 674 439 674 425 699 c 128,-1,29
 411 724 411 724 373 724 c 0,30,31
 330 724 330 724 314 691 c 128,-1,32
 298 658 298 658 298 595 c 2,33,-1
 298 536 l 1,34,-1
 439 536 l 1,35,-1
 439 489 l 1,36,-1
 298 489 l 1,37,-1
 298 -63 l 2,38,39
 298 -126 298 -126 274 -165 c 128,-1,40
 250 -204 250 -204 211 -222 c 128,-1,41
 172 -240 172 -240 126 -240 c 0,0,1
EndSplineSet
Substitution2: "'ss03' Style Set 3 lookup 42 subtable" florin.ss03
EndChar

StartChar: Aringacute
Encoding: 443 506 322
Width: 705
GlyphClass: 2
Flags: W
AnchorPoint: "+BBEENQQ3BEsEPARPBD0EPQQ+BDUA--1" 353 958 basechar 0
AnchorPoint: "+BBEENQQ3BEsEPARPBD0EPQQ+BDUA--0" 353 0 basechar 0
LayerCount: 2
Fore
SplineSet
311 840 m 1,0,1
 333 863 333 863 357.5 897 c 128,-1,2
 382 931 382 931 398 958 c 1,3,-1
 505 958 l 1,4,-1
 505 950 l 1,5,6
 493 936 493 936 466 913 c 128,-1,7
 439 890 439 890 407.5 867.5 c 128,-1,8
 376 845 376 845 349 830 c 1,9,-1
 311 830 l 1,10,-1
 311 840 l 1,0,1
0 0 m 1,11,-1
 0 42 l 1,12,-1
 19 42 l 2,13,14
 48 42 48 42 62.5 56 c 128,-1,15
 77 70 77 70 95 113 c 2,16,-1
 300 602 l 1,17,18
 270 613 270 613 251.5 638.5 c 128,-1,19
 233 664 233 664 233 702 c 0,20,21
 233 755 233 755 268 783 c 128,-1,22
 303 811 303 811 353 811 c 256,23,24
 403 811 403 811 438 783 c 128,-1,25
 473 755 473 755 473 702 c 0,26,27
 473 665 473 665 456 640.5 c 128,-1,28
 439 616 439 616 410 604 c 1,29,-1
 621 90 l 2,30,31
 633 62 633 62 648 52 c 128,-1,32
 663 42 663 42 692 42 c 2,33,-1
 705 42 l 1,34,-1
 705 0 l 1,35,-1
 430 0 l 1,36,-1
 430 42 l 1,37,-1
 453 42 l 2,38,39
 513 42 513 42 513 86 c 0,40,41
 513 100 513 100 505 119 c 2,42,-1
 465 217 l 1,43,-1
 202 217 l 1,44,-1
 164 125 l 2,45,46
 160 115 160 115 157.5 104.5 c 128,-1,47
 155 94 155 94 155 87 c 0,48,49
 155 42 155 42 221 42 c 2,50,-1
 244 42 l 1,51,-1
 244 0 l 1,52,-1
 0 0 l 1,11,-1
353 642 m 256,53,54
 380 642 380 642 399.5 656 c 128,-1,55
 419 670 419 670 419 702 c 256,56,57
 419 734 419 734 399.5 748 c 128,-1,58
 380 762 380 762 353 762 c 256,59,60
 326 762 326 762 306.5 748 c 128,-1,61
 287 734 287 734 287 702 c 256,62,63
 287 670 287 670 306.5 656 c 128,-1,64
 326 642 326 642 353 642 c 256,53,54
224 267 m 1,65,-1
 444 267 l 1,66,-1
 385 425 l 2,67,68
 370 465 370 465 356.5 500 c 128,-1,69
 343 535 343 535 335 568 c 1,70,71
 327 537 327 537 316.5 506 c 128,-1,72
 306 475 306 475 289 433 c 2,73,-1
 224 267 l 1,65,-1
EndSplineSet
Substitution2: "'c2sc' +BBoEMAQ/BDgEQgQ1BDsETAAA +BDgENwAA +BD8EQAQ+BD8EOARBBD0ESwRF lookup 36 subtable" aringacute.sc
Substitution2: "'aalt' +BBIEQQQ1 +BDAEOwRMBEIENQRABD0EMARCBDgEMgQ9BEsENQAA +BDIEMARABDgEMAQ9BEIESwAA lookup 0 subtable" aringacute.sc
EndChar

StartChar: aringacute
Encoding: 444 507 323
Width: 563
GlyphClass: 2
Flags: W
AnchorPoint: "+BBEENQQ3BEsEPARPBD0EPQQ+BDUA--1" 282 958 basechar 0
AnchorPoint: "+BBEENQQ3BEsEPARPBD0EPQQ+BDUA--0" 282 0 basechar 0
LayerCount: 2
Fore
SplineSet
233 840 m 1,0,1
 255 863 255 863 279.5 897 c 128,-1,2
 304 931 304 931 320 958 c 1,3,-1
 427 958 l 1,4,-1
 427 950 l 1,5,6
 415 936 415 936 388 913 c 128,-1,7
 361 890 361 890 329.5 867.5 c 128,-1,8
 298 845 298 845 271 830 c 1,9,-1
 233 830 l 1,10,-1
 233 840 l 1,0,1
280 583 m 256,11,12
 230 583 230 583 195 611 c 128,-1,13
 160 639 160 639 160 692 c 256,14,15
 160 745 160 745 195 773 c 128,-1,16
 230 801 230 801 280 801 c 256,17,18
 330 801 330 801 365 773 c 128,-1,19
 400 745 400 745 400 692 c 256,20,21
 400 639 400 639 365 611 c 128,-1,22
 330 583 330 583 280 583 c 256,11,12
280 632 m 256,23,24
 307 632 307 632 326.5 646 c 128,-1,25
 346 660 346 660 346 692 c 256,26,27
 346 724 346 724 326.5 738 c 128,-1,28
 307 752 307 752 280 752 c 256,29,30
 253 752 253 752 233.5 738 c 128,-1,31
 214 724 214 724 214 692 c 256,32,33
 214 660 214 660 233.5 646 c 128,-1,34
 253 632 253 632 280 632 c 256,23,24
205 -10 m 0,35,36
 138 -10 138 -10 94 29 c 128,-1,37
 50 68 50 68 50 150 c 0,38,39
 50 230 50 230 106.5 268 c 128,-1,40
 163 306 163 306 278 310 c 2,41,-1
 361 313 l 1,42,-1
 361 373 l 2,43,44
 361 409 361 409 355 436.5 c 128,-1,45
 349 464 349 464 329 480 c 128,-1,46
 309 496 309 496 268 496 c 0,47,48
 230 496 230 496 210 482 c 128,-1,49
 190 468 190 468 183.5 443.5 c 128,-1,50
 177 419 177 419 177 387 c 1,51,52
 135 387 135 387 113.5 401.5 c 128,-1,53
 92 416 92 416 92 450 c 0,54,55
 92 485 92 485 116.5 506 c 128,-1,56
 141 527 141 527 182 536.5 c 128,-1,57
 223 546 223 546 272 546 c 0,58,59
 364 546 364 546 409.5 507 c 128,-1,60
 455 468 455 468 455 373 c 2,61,-1
 455 114 l 2,62,63
 455 72 455 72 469 57 c 128,-1,64
 483 42 483 42 517 42 c 2,65,-1
 520 42 l 1,66,-1
 520 0 l 1,67,-1
 385 0 l 1,68,-1
 369 86 l 1,69,-1
 361 86 l 1,70,71
 340 58 340 58 320 36.5 c 128,-1,72
 300 15 300 15 273.5 2.5 c 128,-1,73
 247 -10 247 -10 205 -10 c 0,35,36
228 52 m 0,74,75
 289 52 289 52 325 89.5 c 128,-1,76
 361 127 361 127 361 191 c 2,77,-1
 361 272 l 1,78,-1
 297 269 l 2,79,80
 212 265 212 265 179.5 234.5 c 128,-1,81
 147 204 147 204 147 145 c 0,82,83
 147 52 147 52 228 52 c 0,74,75
EndSplineSet
Substitution2: "'smcp' Lowercase to Small Capitals lookup 37 subtable" aringacute.sc
Substitution2: "'aalt' +BBIEQQQ1 +BDAEOwRMBEIENQRABD0EMARCBDgEMgQ9BEsENQAA +BDIEMARABDgEMAQ9BEIESwAA lookup 0 subtable" aringacute.sc
EndChar

